{
copyright = "Copyright (c) 2015, Cadson Demak (info@cadsondemak.com)";
customParameters = (
{
name = vendorID;
value = CDK;
},
{
name = description;
value = "Copyright (c) 2015, Cadson Demak (info@cadsondemak.com)";
},
{
name = license;

glyphs = (
{
glyphname = A;
lastChange = "2015-10-26 01:40:07 +0000";
layers = (
{
layerId = "DC57E17D-D7E6-498D-B8B0-08C45E75F177";
name = "Light Italic";
paths = (
{
closed = 1;
nodes = (
"156 0 LINE",
"157 7 LINE",
"142 15 OFFCURVE",
"119 20 OFFCURVE",
"82 24 CURVE",
"415 632 LINE",
"499 24 LINE",
"462 20 OFFCURVE",
"437 16 OFFCURVE",
"416 8 CURVE",
"415 0 LINE",
"614 0 LINE",
"615 8 LINE",
"594 17 OFFCURVE",
"569 22 OFFCURVE",
"544 25 CURVE",
"449 704 LINE",
"420 704 LINE",
"48 26 LINE",
"24 23 OFFCURVE",
"-6 17 OFFCURVE",
"-31 8 CURVE",
"-32 0 LINE"
);
},
{
closed = 1;
nodes = (
"490 184 LINE",
"494 211 LINE",
"162 211 LINE",
"157 184 LINE"
);
}
);
width = 660;
}
);
leftKerningGroup = A;
note = A;
rightKerningGroup = A;
unicode = 0041;
},
{
glyphname = Aacute;
lastChange = "2015-10-26 01:49:28 +0000";
layers = (
{
layerId = "DC57E17D-D7E6-498D-B8B0-08C45E75F177";
name = "Light Italic";
paths = (
{
closed = 1;
nodes = (
"156 0 LINE",
"157 7 LINE",
"142 15 OFFCURVE",
"119 20 OFFCURVE",
"82 24 CURVE",
"415 632 LINE",
"499 24 LINE",
"462 20 OFFCURVE",
"437 16 OFFCURVE",
"416 8 CURVE",
"415 0 LINE",
"614 0 LINE",
"615 8 LINE",
"594 17 OFFCURVE",
"569 22 OFFCURVE",
"544 25 CURVE",
"449 704 LINE",
"420 704 LINE",
"48 26 LINE",
"24 23 OFFCURVE",
"-6 17 OFFCURVE",
"-31 8 CURVE",
"-32 0 LINE"
);
},
{
closed = 1;
nodes = (
"490 184 LINE",
"494 211 LINE",
"162 211 LINE",
"157 184 LINE"
);
},
{
closed = 1;
nodes = (
"576 862 LINE SMOOTH",
"593 871 OFFCURVE",
"603 884 OFFCURVE",
"603 895 CURVE SMOOTH",
"603 904 OFFCURVE",
"598 910 OFFCURVE",
"588 910 CURVE SMOOTH",
"574 910 OFFCURVE",
"562 901 OFFCURVE",
"554 894 CURVE",
"429 801 LINE",
"436 786 LINE"
);
}
);
width = 660;
}
);
leftKerningGroup = A;
note = Aacute;
rightKerningGroup = A;
unicode = 00C1;
},
{
glyphname = Abreve;
lastChange = "2015-10-26 01:49:30 +0000";
layers = (
{
layerId = "DC57E17D-D7E6-498D-B8B0-08C45E75F177";
name = "Light Italic";
paths = (
{
closed = 1;
nodes = (
"156 0 LINE",
"157 7 LINE",
"142 15 OFFCURVE",
"119 20 OFFCURVE",
"82 24 CURVE",
"415 632 LINE",
"499 24 LINE",
"462 20 OFFCURVE",
"437 16 OFFCURVE",
"416 8 CURVE",
"415 0 LINE",
"614 0 LINE",
"615 8 LINE",
"594 17 OFFCURVE",
"569 22 OFFCURVE",
"544 25 CURVE",
"449 704 LINE",
"420 704 LINE",
"48 26 LINE",
"24 23 OFFCURVE",
"-6 17 OFFCURVE",
"-31 8 CURVE",
"-32 0 LINE"
);
},
{
closed = 1;
nodes = (
"490 184 LINE",
"494 211 LINE",
"162 211 LINE",
"157 184 LINE"
);
},
{
closed = 1;
nodes = (
"519 772 OFFCURVE",
"581 808 OFFCURVE",
"604 889 CURVE",
"569 889 LINE",
"544 811 OFFCURVE",
"492 799 OFFCURVE",
"453 799 CURVE SMOOTH",
"417 799 OFFCURVE",
"371 809 OFFCURVE",
"371 875 CURVE SMOOTH",
"371 879 OFFCURVE",
"372 884 OFFCURVE",
"372 889 CURVE",
"338 889 LINE",
"337 883 OFFCURVE",
"337 877 OFFCURVE",
"337 871 CURVE SMOOTH",
"337 803 OFFCURVE",
"380 772 OFFCURVE",
"447 772 CURVE SMOOTH"
);
}
);
width = 660;
}
);
leftKerningGroup = A;
note = Abreve;
rightKerningGroup = A;
unicode = 0102;
},
{
glyphname = Abreveacute;
lastChange = "2015-10-26 01:49:30 +0000";
layers = (
{
layerId = "DC57E17D-D7E6-498D-B8B0-08C45E75F177";
name = "Light Italic";
paths = (
{
closed = 1;
nodes = (
"156 0 LINE",
"157 7 LINE",
"142 15 OFFCURVE",
"119 20 OFFCURVE",
"82 24 CURVE",
"415 632 LINE",
"499 24 LINE",
"462 20 OFFCURVE",
"437 16 OFFCURVE",
"416 8 CURVE",
"415 0 LINE",
"614 0 LINE",
"615 8 LINE",
"594 17 OFFCURVE",
"569 22 OFFCURVE",
"544 25 CURVE",
"449 704 LINE",
"420 704 LINE",
"48 26 LINE",
"24 23 OFFCURVE",
"-6 17 OFFCURVE",
"-31 8 CURVE",
"-32 0 LINE"
);
},
{
closed = 1;
nodes = (
"490 184 LINE",
"494 211 LINE",
"162 211 LINE",
"157 184 LINE"
);
},
{
closed = 1;
nodes = (
"522 784 OFFCURVE",
"583 818 OFFCURVE",
"604 891 CURVE",
"570 891 LINE",
"548 823 OFFCURVE",
"495 811 OFFCURVE",
"456 811 CURVE SMOOTH",
"417 811 OFFCURVE",
"368 823 OFFCURVE",
"373 891 CURVE",
"339 891 LINE",
"338 885 OFFCURVE",
"338 880 OFFCURVE",
"338 875 CURVE SMOOTH",
"338 813 OFFCURVE",
"383 784 OFFCURVE",
"450 784 CURVE SMOOTH"
);
},
{
closed = 1;
nodes = (
"577 958 LINE SMOOTH",
"597 969 OFFCURVE",
"608 983 OFFCURVE",
"608 995 CURVE SMOOTH",
"608 1003 OFFCURVE",
"603 1008 OFFCURVE",
"595 1008 CURVE SMOOTH",
"584 1008 OFFCURVE",
"570 1000 OFFCURVE",
"556 989 CURVE SMOOTH",
"444 904 LINE",
"451 891 LINE"
);
}
);
width = 660;
}
);
leftKerningGroup = A;
note = Abreveacute;
rightKerningGroup = A;
unicode = 1EAE;
},
{
glyphname = Abrevedotbelow;
lastChange = "2015-10-26 01:49:28 +0000";
layers = (
{
layerId = "DC57E17D-D7E6-498D-B8B0-08C45E75F177";
name = "Light Italic";
paths = (
{
closed = 1;
nodes = (
"156 0 LINE",
"157 7 LINE",
"142 15 OFFCURVE",
"119 20 OFFCURVE",
"82 24 CURVE",
"415 632 LINE",
"499 24 LINE",
"462 20 OFFCURVE",
"437 16 OFFCURVE",
"416 8 CURVE",
"415 0 LINE",
"614 0 LINE",
"615 8 LINE",
"594 17 OFFCURVE",
"569 22 OFFCURVE",
"544 25 CURVE",
"449 704 LINE",
"420 704 LINE",
"48 26 LINE",
"24 23 OFFCURVE",
"-6 17 OFFCURVE",
"-31 8 CURVE",
"-32 0 LINE"
);
},
{
closed = 1;
nodes = (
"281 -133 OFFCURVE",
"298 -120 OFFCURVE",
"302 -98 CURVE",
"303 -95 OFFCURVE",
"303 -92 OFFCURVE",
"303 -89 CURVE SMOOTH",
"303 -72 OFFCURVE",
"293 -63 OFFCURVE",
"277 -63 CURVE SMOOTH",
"258 -63 OFFCURVE",
"242 -76 OFFCURVE",
"238 -98 CURVE",
"237 -102 OFFCURVE",
"237 -105 OFFCURVE",
"237 -108 CURVE SMOOTH",
"237 -124 OFFCURVE",
"247 -133 OFFCURVE",
"263 -133 CURVE SMOOTH"
);
},
{
closed = 1;
nodes = (
"490 184 LINE",
"494 211 LINE",
"162 211 LINE",
"157 184 LINE"
);
},
{
closed = 1;
nodes = (
"514 772 OFFCURVE",
"575 808 OFFCURVE",
"598 889 CURVE",
"564 889 LINE",
"539 811 OFFCURVE",
"487 799 OFFCURVE",
"447 799 CURVE SMOOTH",
"411 799 OFFCURVE",
"366 809 OFFCURVE",
"366 873 CURVE SMOOTH",
"366 878 OFFCURVE",
"366 883 OFFCURVE",
"367 889 CURVE",
"332 889 LINE",
"331 883 OFFCURVE",
"331 877 OFFCURVE",
"331 871 CURVE SMOOTH",
"331 803 OFFCURVE",
"375 772 OFFCURVE",
"442 772 CURVE SMOOTH"
);
}
);
width = 660;
}
);
leftKerningGroup = A;
note = Abrevedotbelow;
rightKerningGroup = A;
unicode = 1EB6;
},
{
glyphname = Abrevegrave;
lastChange = "2015-10-26 01:49:29 +0000";
layers = (
{
layerId = "DC57E17D-D7E6-498D-B8B0-08C45E75F177";
name = "Light Italic";
paths = (
{
closed = 1;
nodes = (
"156 0 LINE",
"157 7 LINE",
"142 15 OFFCURVE",
"119 20 OFFCURVE",
"82 24 CURVE",
"415 632 LINE",
"499 24 LINE",
"462 20 OFFCURVE",
"437 16 OFFCURVE",
"416 8 CURVE",
"415 0 LINE",
"614 0 LINE",
"615 8 LINE",
"594 17 OFFCURVE",
"569 22 OFFCURVE",
"544 25 CURVE",
"449 704 LINE",
"420 704 LINE",
"48 26 LINE",
"24 23 OFFCURVE",
"-6 17 OFFCURVE",
"-31 8 CURVE",
"-32 0 LINE"
);
},
{
closed = 1;
nodes = (
"490 184 LINE",
"494 211 LINE",
"162 211 LINE",
"157 184 LINE"
);
},
{
closed = 1;
nodes = (
"523 784 OFFCURVE",
"584 818 OFFCURVE",
"605 891 CURVE",
"571 891 LINE",
"549 823 OFFCURVE",
"496 811 OFFCURVE",
"457 811 CURVE SMOOTH",
"418 811 OFFCURVE",
"369 823 OFFCURVE",
"374 891 CURVE",
"340 891 LINE",
"339 885 OFFCURVE",
"339 880 OFFCURVE",
"339 875 CURVE SMOOTH",
"339 813 OFFCURVE",
"384 784 OFFCURVE",
"451 784 CURVE SMOOTH"
);
},
{
closed = 1;
nodes = (
"501 904 LINE",
"424 989 LINE SMOOTH",
"414 1000 OFFCURVE",
"404 1008 OFFCURVE",
"393 1008 CURVE SMOOTH",
"382 1008 OFFCURVE",
"372 999 OFFCURVE",
"372 986 CURVE SMOOTH",
"372 977 OFFCURVE",
"377 967 OFFCURVE",
"390 958 CURVE SMOOTH",
"489 891 LINE"
);
}
);
width = 660;
}
);
leftKerningGroup = A;
note = Abrevegrave;
rightKerningGroup = A;
unicode = 1EB0;
},
{
glyphname = Abrevehookabove;
lastChange = "2015-10-26 01:49:29 +0000";
layers = (
{
layerId = "DC57E17D-D7E6-498D-B8B0-08C45E75F177";
name = "Light Italic";
paths = (
{
closed = 1;
nodes = (
"156 0 LINE",
"157 7 LINE",
"142 15 OFFCURVE",
"119 20 OFFCURVE",
"82 24 CURVE",
"415 632 LINE",
"499 24 LINE",
"462 20 OFFCURVE",
"437 16 OFFCURVE",
"416 8 CURVE",
"415 0 LINE",
"614 0 LINE",
"615 8 LINE",
"594 17 OFFCURVE",
"569 22 OFFCURVE",
"544 25 CURVE",
"449 704 LINE",
"420 704 LINE",
"48 26 LINE",
"24 23 OFFCURVE",
"-6 17 OFFCURVE",
"-31 8 CURVE",
"-32 0 LINE"
);
},
{
closed = 1;
nodes = (
"490 184 LINE",
"494 211 LINE",
"162 211 LINE",
"157 184 LINE"
);
},
{
closed = 1;
nodes = (
"522 784 OFFCURVE",
"583 818 OFFCURVE",
"604 891 CURVE",
"570 891 LINE",
"548 823 OFFCURVE",
"495 811 OFFCURVE",
"456 811 CURVE SMOOTH",
"417 811 OFFCURVE",
"368 823 OFFCURVE",
"373 891 CURVE",
"339 891 LINE",
"338 885 OFFCURVE",
"338 880 OFFCURVE",
"338 875 CURVE SMOOTH",
"338 813 OFFCURVE",
"383 784 OFFCURVE",
"450 784 CURVE SMOOTH"
);
},
{
closed = 1;
nodes = (
"473 872 LINE",
"492 921 LINE",
"534 926 OFFCURVE",
"559 944 OFFCURVE",
"566 980 CURVE SMOOTH",
"567 985 OFFCURVE",
"568 990 OFFCURVE",
"568 994 CURVE SMOOTH",
"568 1025 OFFCURVE",
"541 1038 OFFCURVE",
"511 1038 CURVE SMOOTH",
"489 1038 OFFCURVE",
"467 1031 OFFCURVE",
"451 1024 CURVE",
"452 1004 LINE",
"470 1013 OFFCURVE",
"486 1016 OFFCURVE",
"498 1016 CURVE SMOOTH",
"529 1016 OFFCURVE",
"540 1002 OFFCURVE",
"537 981 CURVE SMOOTH",
"532 958 OFFCURVE",
"514 939 OFFCURVE",
"474 939 CURVE SMOOTH",
"462 939 LINE",
"453 872 LINE"
);
}
);
width = 660;
}
);
leftKerningGroup = A;
note = Abrevehookabove;
rightKerningGroup = A;
unicode = 1EB2;
},
{
glyphname = Abrevetilde;
lastChange = "2015-10-26 01:49:30 +0000";
layers = (
{
layerId = "DC57E17D-D7E6-498D-B8B0-08C45E75F177";
name = "Light Italic";
paths = (
{
closed = 1;
nodes = (
"156 0 LINE",
"157 7 LINE",
"142 15 OFFCURVE",
"119 20 OFFCURVE",
"82 24 CURVE",
"415 632 LINE",
"499 24 LINE",
"462 20 OFFCURVE",
"437 16 OFFCURVE",
"416 8 CURVE",
"415 0 LINE",
"614 0 LINE",
"615 8 LINE",
"594 17 OFFCURVE",
"569 22 OFFCURVE",
"544 25 CURVE",
"449 704 LINE",
"420 704 LINE",
"48 26 LINE",
"24 23 OFFCURVE",
"-6 17 OFFCURVE",
"-31 8 CURVE",
"-32 0 LINE"
);
},
{
closed = 1;
nodes = (
"490 184 LINE",
"494 211 LINE",
"162 211 LINE",
"157 184 LINE"
);
},
{
closed = 1;
nodes = (
"522 784 OFFCURVE",
"583 818 OFFCURVE",
"604 891 CURVE",
"570 891 LINE",
"548 823 OFFCURVE",
"495 811 OFFCURVE",
"456 811 CURVE SMOOTH",
"417 811 OFFCURVE",
"368 823 OFFCURVE",
"373 891 CURVE",
"339 891 LINE",
"338 885 OFFCURVE",
"338 880 OFFCURVE",
"338 875 CURVE SMOOTH",
"338 813 OFFCURVE",
"383 784 OFFCURVE",
"450 784 CURVE SMOOTH"
);
},
{
closed = 1;
nodes = (
"363 948 LINE",
"379 985 OFFCURVE",
"403 1008 OFFCURVE",
"432 1008 CURVE SMOOTH",
"470 1008 OFFCURVE",
"503 949 OFFCURVE",
"543 949 CURVE SMOOTH",
"586 949 OFFCURVE",
"617 986 OFFCURVE",
"636 1044 CURVE",
"620 1044 LINE",
"604 1003 OFFCURVE",
"582 980 OFFCURVE",
"552 980 CURVE SMOOTH",
"515 980 OFFCURVE",
"483 1038 OFFCURVE",
"440 1038 CURVE SMOOTH",
"402 1038 OFFCURVE",
"367 1011 OFFCURVE",
"347 948 CURVE"
);
}
);
width = 660;
}
);
leftKerningGroup = A;
note = Abrevetilde;
rightKerningGroup = A;
unicode = 1EB4;
},
{
glyphname = Acaron;
lastChange = "2015-10-26 01:18:16 +0000";
layers = (
{
layerId = "DC57E17D-D7E6-498D-B8B0-08C45E75F177";
name = "Light Italic";
paths = (
{
closed = 1;
nodes = (
"156 0 LINE",
"157 7 LINE",
"142 15 OFFCURVE",
"119 20 OFFCURVE",
"82 24 CURVE",
"415 632 LINE",
"499 24 LINE",
"462 20 OFFCURVE",
"437 16 OFFCURVE",
"416 8 CURVE",
"415 0 LINE",
"614 0 LINE",
"615 8 LINE",
"594 17 OFFCURVE",
"569 22 OFFCURVE",
"544 25 CURVE",
"449 704 LINE",
"420 704 LINE",
"48 26 LINE",
"24 23 OFFCURVE",
"-6 17 OFFCURVE",
"-31 8 CURVE",
"-32 0 LINE"
);
},
{
closed = 1;
nodes = (
"490 184 LINE",
"494 211 LINE",
"162 211 LINE",
"157 184 LINE"
);
},
{
closed = 1;
nodes = (
"462 786 LINE",
"502 831 OFFCURVE",
"553 870 OFFCURVE",
"594 896 CURVE",
"579 919 LINE",
"540 893 OFFCURVE",
"494 858 OFFCURVE",
"460 823 CURVE",
"455 823 LINE",
"436 858 OFFCURVE",
"404 893 OFFCURVE",
"376 919 CURVE",
"351 896 LINE",
"381 870 OFFCURVE",
"417 831 OFFCURVE",
"440 786 CURVE"
);
}
);
width = 660;
}
);
leftKerningGroup = A;
note = Acaron;
rightKerningGroup = A;
unicode = 01CD;
},
{
glyphname = Acircumflex;
lastChange = "2015-10-26 01:18:16 +0000";
layers = (
{
layerId = "DC57E17D-D7E6-498D-B8B0-08C45E75F177";
name = "Light Italic";
paths = (
{
closed = 1;
nodes = (
"156 0 LINE",
"157 7 LINE",
"142 15 OFFCURVE",
"119 20 OFFCURVE",
"82 24 CURVE",
"415 632 LINE",
"499 24 LINE",
"462 20 OFFCURVE",
"437 16 OFFCURVE",
"416 8 CURVE",
"415 0 LINE",
"614 0 LINE",
"615 8 LINE",
"594 17 OFFCURVE",
"569 22 OFFCURVE",
"544 25 CURVE",
"449 704 LINE",
"420 704 LINE",
"48 26 LINE",
"24 23 OFFCURVE",
"-6 17 OFFCURVE",
"-31 8 CURVE",
"-32 0 LINE"
);
},
{
closed = 1;
nodes = (
"490 184 LINE",
"494 211 LINE",
"162 211 LINE",
"157 184 LINE"
);
},
{
closed = 1;
nodes = (
"386 803 OFFCURVE",
"432 838 OFFCURVE",
"466 873 CURVE",
"470 873 LINE",
"491 838 OFFCURVE",
"521 803 OFFCURVE",
"550 778 CURVE",
"575 800 LINE",
"544 827 OFFCURVE",
"510 866 OFFCURVE",
"487 910 CURVE",
"465 910 LINE",
"424 866 OFFCURVE",
"372 827 OFFCURVE",
"332 800 CURVE",
"348 778 LINE"
);
}
);
width = 660;
}
);
leftKerningGroup = A;
note = Acircumflex;
rightKerningGroup = A;
unicode = 00C2;
},
{
glyphname = Acircumflexacute;
lastChange = "2015-10-26 01:49:28 +0000";
layers = (
{
layerId = "DC57E17D-D7E6-498D-B8B0-08C45E75F177";
name = "Light Italic";
paths = (
{
closed = 1;
nodes = (
"156 0 LINE",
"157 7 LINE",
"142 15 OFFCURVE",
"119 20 OFFCURVE",
"82 24 CURVE",
"415 632 LINE",
"499 24 LINE",
"462 20 OFFCURVE",
"437 16 OFFCURVE",
"416 8 CURVE",
"415 0 LINE",
"614 0 LINE",
"615 8 LINE",
"594 17 OFFCURVE",
"569 22 OFFCURVE",
"544 25 CURVE",
"449 704 LINE",
"420 704 LINE",
"48 26 LINE",
"24 23 OFFCURVE",
"-6 17 OFFCURVE",
"-31 8 CURVE",
"-32 0 LINE"
);
},
{
closed = 1;
nodes = (
"490 184 LINE",
"494 211 LINE",
"162 211 LINE",
"157 184 LINE"
);
},
{
closed = 1;
nodes = (
"387 803 OFFCURVE",
"432 838 OFFCURVE",
"466 873 CURVE",
"471 873 LINE",
"492 838 OFFCURVE",
"521 803 OFFCURVE",
"551 778 CURVE",
"576 800 LINE",
"545 827 OFFCURVE",
"510 866 OFFCURVE",
"488 910 CURVE",
"465 910 LINE",
"425 866 OFFCURVE",
"373 827 OFFCURVE",
"332 800 CURVE",
"348 778 LINE"
);
},
{
closed = 1;
nodes = (
"696 953 LINE",
"717 963 OFFCURVE",
"728 978 OFFCURVE",
"728 990 CURVE SMOOTH",
"728 998 OFFCURVE",
"723 1003 OFFCURVE",
"714 1003 CURVE SMOOTH",
"703 1003 OFFCURVE",
"688 996 OFFCURVE",
"675 984 CURVE",
"564 899 LINE",
"571 886 LINE"
);
}
);
width = 660;
}
);
leftKerningGroup = A;
note = Acircumflexacute;
rightKerningGroup = A;
unicode = 1EA4;
},
{
glyphname = Acircumflexdotbelow;
lastChange = "2015-10-26 01:49:28 +0000";
layers = (
{
layerId = "DC57E17D-D7E6-498D-B8B0-08C45E75F177";
name = "Light Italic";
paths = (
{
closed = 1;
nodes = (
"156 0 LINE",
"157 7 LINE",
"142 15 OFFCURVE",
"119 20 OFFCURVE",
"82 24 CURVE",
"415 632 LINE",
"499 24 LINE",
"462 20 OFFCURVE",
"437 16 OFFCURVE",
"416 8 CURVE",
"415 0 LINE",
"614 0 LINE",
"615 8 LINE",
"594 17 OFFCURVE",
"569 22 OFFCURVE",
"544 25 CURVE",
"449 704 LINE",
"420 704 LINE",
"48 26 LINE",
"24 23 OFFCURVE",
"-6 17 OFFCURVE",
"-31 8 CURVE",
"-32 0 LINE"
);
},
{
closed = 1;
nodes = (
"282 -133 OFFCURVE",
"299 -120 OFFCURVE",
"303 -98 CURVE",
"304 -95 OFFCURVE",
"304 -92 OFFCURVE",
"304 -89 CURVE SMOOTH",
"304 -72 OFFCURVE",
"294 -63 OFFCURVE",
"278 -63 CURVE SMOOTH",
"259 -63 OFFCURVE",
"243 -76 OFFCURVE",
"239 -98 CURVE",
"238 -102 OFFCURVE",
"238 -105 OFFCURVE",
"238 -108 CURVE SMOOTH",
"238 -124 OFFCURVE",
"248 -133 OFFCURVE",
"264 -133 CURVE SMOOTH"
);
},
{
closed = 1;
nodes = (
"490 184 LINE",
"494 211 LINE",
"162 211 LINE",
"157 184 LINE"
);
},
{
closed = 1;
nodes = (
"386 802 OFFCURVE",
"432 837 OFFCURVE",
"466 872 CURVE",
"470 872 LINE",
"491 837 OFFCURVE",
"521 802 OFFCURVE",
"550 777 CURVE",
"575 799 LINE",
"544 826 OFFCURVE",
"510 865 OFFCURVE",
"487 909 CURVE",
"465 909 LINE",
"424 865 OFFCURVE",
"372 826 OFFCURVE",
"332 799 CURVE",
"348 777 LINE"
);
}
);
width = 660;
}
);
leftKerningGroup = A;
note = Acircumflexdotbelow;
rightKerningGroup = A;
unicode = 1EAC;
},
{
glyphname = Acircumflexgrave;
lastChange = "2015-10-26 01:49:28 +0000";
layers = (
{
layerId = "DC57E17D-D7E6-498D-B8B0-08C45E75F177";
name = "Light Italic";
paths = (
{
closed = 1;
nodes = (
"156 0 LINE",
"157 7 LINE",
"142 15 OFFCURVE",
"119 20 OFFCURVE",
"82 24 CURVE",
"415 632 LINE",
"499 24 LINE",
"462 20 OFFCURVE",
"437 16 OFFCURVE",
"416 8 CURVE",
"415 0 LINE",
"614 0 LINE",
"615 8 LINE",
"594 17 OFFCURVE",
"569 22 OFFCURVE",
"544 25 CURVE",
"449 704 LINE",
"420 704 LINE",
"48 26 LINE",
"24 23 OFFCURVE",
"-6 17 OFFCURVE",
"-31 8 CURVE",
"-32 0 LINE"
);
},
{
closed = 1;
nodes = (
"490 184 LINE",
"494 211 LINE",
"162 211 LINE",
"157 184 LINE"
);
},
{
closed = 1;
nodes = (
"395 899 LINE",
"324 976 LINE SMOOTH",
"311 989 OFFCURVE",
"301 1003 OFFCURVE",
"287 1003 CURVE SMOOTH",
"275 1003 OFFCURVE",
"265 991 OFFCURVE",
"265 980 CURVE SMOOTH",
"265 969 OFFCURVE",
"276 958 OFFCURVE",
"292 947 CURVE SMOOTH",
"382 886 LINE"
);
},
{
closed = 1;
nodes = (
"387 803 OFFCURVE",
"432 838 OFFCURVE",
"466 873 CURVE",
"471 873 LINE",
"492 838 OFFCURVE",
"521 803 OFFCURVE",
"551 778 CURVE",
"576 800 LINE",
"545 827 OFFCURVE",
"510 866 OFFCURVE",
"488 910 CURVE",
"465 910 LINE",
"425 866 OFFCURVE",
"373 827 OFFCURVE",
"332 800 CURVE",
"348 778 LINE"
);
}
);
width = 660;
}
);
leftKerningGroup = A;
note = Acircumflexgrave;
rightKerningGroup = A;
unicode = 1EA6;
},
{
glyphname = Acircumflexhookabove;
lastChange = "2015-10-26 01:49:30 +0000";
layers = (
{
layerId = "DC57E17D-D7E6-498D-B8B0-08C45E75F177";
name = "Light Italic";
paths = (
{
closed = 1;
nodes = (
"156 0 LINE",
"157 7 LINE",
"142 15 OFFCURVE",
"119 20 OFFCURVE",
"82 24 CURVE",
"415 632 LINE",
"499 24 LINE",
"462 20 OFFCURVE",
"437 16 OFFCURVE",
"416 8 CURVE",
"415 0 LINE",
"614 0 LINE",
"615 8 LINE",
"594 17 OFFCURVE",
"569 22 OFFCURVE",
"544 25 CURVE",
"449 704 LINE",
"420 704 LINE",
"48 26 LINE",
"24 23 OFFCURVE",
"-6 17 OFFCURVE",
"-31 8 CURVE",
"-32 0 LINE"
);
},
{
closed = 1;
nodes = (
"490 184 LINE",
"494 211 LINE",
"162 211 LINE",
"157 184 LINE"
);
},
{
closed = 1;
nodes = (
"387 803 OFFCURVE",
"432 838 OFFCURVE",
"466 873 CURVE",
"471 873 LINE",
"492 838 OFFCURVE",
"521 803 OFFCURVE",
"551 778 CURVE",
"576 800 LINE",
"545 827 OFFCURVE",
"510 866 OFFCURVE",
"488 910 CURVE",
"465 910 LINE",
"425 866 OFFCURVE",
"373 827 OFFCURVE",
"332 800 CURVE",
"348 778 LINE"
);
},
{
closed = 1;
nodes = (
"580 867 LINE",
"597 916 LINE",
"639 921 OFFCURVE",
"664 939 OFFCURVE",
"672 975 CURVE SMOOTH",
"673 980 OFFCURVE",
"674 985 OFFCURVE",
"674 989 CURVE SMOOTH",
"674 1020 OFFCURVE",
"647 1033 OFFCURVE",
"616 1033 CURVE SMOOTH",
"594 1033 OFFCURVE",
"573 1026 OFFCURVE",
"558 1019 CURVE",
"559 999 LINE",
"577 1008 OFFCURVE",
"591 1011 OFFCURVE",
"604 1011 CURVE SMOOTH",
"635 1011 OFFCURVE",
"646 997 OFFCURVE",
"642 976 CURVE SMOOTH",
"637 953 OFFCURVE",
"619 934 OFFCURVE",
"581 934 CURVE SMOOTH",
"568 934 LINE",
"560 867 LINE"
);
}
);
width = 660;
}
);
leftKerningGroup = A;
note = Acircumflexhookabove;
rightKerningGroup = A;
unicode = 1EA8;
},
{
glyphname = Acircumflextilde;
lastChange = "2015-10-26 01:18:17 +0000";
layers = (
{
layerId = "DC57E17D-D7E6-498D-B8B0-08C45E75F177";
name = "Light Italic";
paths = (
{
closed = 1;
nodes = (
"156 0 LINE",
"157 7 LINE",
"142 15 OFFCURVE",
"119 20 OFFCURVE",
"82 24 CURVE",
"415 632 LINE",
"499 24 LINE",
"462 20 OFFCURVE",
"437 16 OFFCURVE",
"416 8 CURVE",
"415 0 LINE",
"614 0 LINE",
"615 8 LINE",
"594 17 OFFCURVE",
"569 22 OFFCURVE",
"544 25 CURVE",
"449 704 LINE",
"420 704 LINE",
"48 26 LINE",
"24 23 OFFCURVE",
"-6 17 OFFCURVE",
"-31 8 CURVE",
"-32 0 LINE"
);
},
{
closed = 1;
nodes = (
"490 184 LINE",
"494 211 LINE",
"162 211 LINE",
"157 184 LINE"
);
},
{
closed = 1;
nodes = (
"387 803 OFFCURVE",
"432 838 OFFCURVE",
"466 873 CURVE",
"471 873 LINE",
"492 838 OFFCURVE",
"521 803 OFFCURVE",
"551 778 CURVE",
"576 800 LINE",
"545 827 OFFCURVE",
"510 866 OFFCURVE",
"488 910 CURVE",
"465 910 LINE",
"425 866 OFFCURVE",
"373 827 OFFCURVE",
"332 800 CURVE",
"348 778 LINE"
);
},
{
closed = 1;
nodes = (
"364 943 LINE",
"380 980 OFFCURVE",
"404 1003 OFFCURVE",
"433 1003 CURVE SMOOTH",
"471 1003 OFFCURVE",
"504 944 OFFCURVE",
"544 944 CURVE SMOOTH",
"586 944 OFFCURVE",
"618 981 OFFCURVE",
"637 1039 CURVE",
"621 1039 LINE",
"605 998 OFFCURVE",
"583 975 OFFCURVE",
"553 975 CURVE SMOOTH",
"516 975 OFFCURVE",
"484 1033 OFFCURVE",
"441 1033 CURVE SMOOTH",
"403 1033 OFFCURVE",
"368 1006 OFFCURVE",
"348 943 CURVE"
);
}
);
width = 660;
}
);
leftKerningGroup = A;
note = Acircumflextilde;
rightKerningGroup = A;
unicode = 1EAA;
},
{
glyphname = Adieresis;
lastChange = "2015-10-26 01:49:28 +0000";
layers = (
{
layerId = "DC57E17D-D7E6-498D-B8B0-08C45E75F177";
name = "Light Italic";
paths = (
{
closed = 1;
nodes = (
"156 0 LINE",
"157 7 LINE",
"142 15 OFFCURVE",
"119 20 OFFCURVE",
"82 24 CURVE",
"415 632 LINE",
"499 24 LINE",
"462 20 OFFCURVE",
"437 16 OFFCURVE",
"416 8 CURVE",
"415 0 LINE",
"614 0 LINE",
"615 8 LINE",
"594 17 OFFCURVE",
"569 22 OFFCURVE",
"544 25 CURVE",
"449 704 LINE",
"420 704 LINE",
"48 26 LINE",
"24 23 OFFCURVE",
"-6 17 OFFCURVE",
"-31 8 CURVE",
"-32 0 LINE"
);
},
{
closed = 1;
nodes = (
"490 184 LINE",
"494 211 LINE",
"162 211 LINE",
"157 184 LINE"
);
},
{
closed = 1;
nodes = (
"367 785 OFFCURVE",
"383 798 OFFCURVE",
"388 820 CURVE SMOOTH",
"389 823 OFFCURVE",
"389 827 OFFCURVE",
"389 830 CURVE SMOOTH",
"389 846 OFFCURVE",
"378 855 OFFCURVE",
"362 855 CURVE SMOOTH",
"344 855 OFFCURVE",
"329 842 OFFCURVE",
"324 820 CURVE SMOOTH",
"323 817 OFFCURVE",
"323 813 OFFCURVE",
"323 810 CURVE SMOOTH",
"323 794 OFFCURVE",
"332 785 OFFCURVE",
"348 785 CURVE SMOOTH"
);
},
{
closed = 1;
nodes = (
"566 785 OFFCURVE",
"587 801 OFFCURVE",
"587 829 CURVE SMOOTH",
"587 845 OFFCURVE",
"577 855 OFFCURVE",
"561 855 CURVE SMOOTH",
"541 855 OFFCURVE",
"526 842 OFFCURVE",
"521 820 CURVE SMOOTH",
"520 816 OFFCURVE",
"520 813 OFFCURVE",
"520 810 CURVE SMOOTH",
"520 794 OFFCURVE",
"530 785 OFFCURVE",
"546 785 CURVE SMOOTH"
);
}
);
width = 660;
}
);
leftKerningGroup = A;
note = Adieresis;
rightKerningGroup = A;
unicode = 00C4;
},
{
glyphname = Adotbelow;
lastChange = "2015-10-26 01:49:28 +0000";
layers = (
{
layerId = "DC57E17D-D7E6-498D-B8B0-08C45E75F177";
name = "Light Italic";
paths = (
{
closed = 1;
nodes = (
"156 0 LINE",
"157 7 LINE",
"142 15 OFFCURVE",
"119 20 OFFCURVE",
"82 24 CURVE",
"415 632 LINE",
"499 24 LINE",
"462 20 OFFCURVE",
"437 16 OFFCURVE",
"416 8 CURVE",
"415 0 LINE",
"614 0 LINE",
"615 8 LINE",
"594 17 OFFCURVE",
"569 22 OFFCURVE",
"544 25 CURVE",
"449 704 LINE",
"420 704 LINE",
"48 26 LINE",
"24 23 OFFCURVE",
"-6 17 OFFCURVE",
"-31 8 CURVE",
"-32 0 LINE"
);
},
{
closed = 1;
nodes = (
"282 -133 OFFCURVE",
"299 -120 OFFCURVE",
"303 -98 CURVE",
"304 -95 OFFCURVE",
"304 -92 OFFCURVE",
"304 -89 CURVE SMOOTH",
"304 -72 OFFCURVE",
"294 -63 OFFCURVE",
"278 -63 CURVE SMOOTH",
"259 -63 OFFCURVE",
"243 -76 OFFCURVE",
"239 -98 CURVE",
"238 -102 OFFCURVE",
"238 -105 OFFCURVE",
"238 -108 CURVE SMOOTH",
"238 -124 OFFCURVE",
"248 -133 OFFCURVE",
"264 -133 CURVE SMOOTH"
);
},
{
closed = 1;
nodes = (
"490 184 LINE",
"494 211 LINE",
"162 211 LINE",
"157 184 LINE"
);
}
);
width = 660;
}
);
leftKerningGroup = A;
note = Adotbelow;
rightKerningGroup = A;
unicode = 1EA0;
},
{
glyphname = Agrave;
lastChange = "2015-10-26 01:49:29 +0000";
layers = (
{
layerId = "DC57E17D-D7E6-498D-B8B0-08C45E75F177";
name = "Light Italic";
paths = (
{
closed = 1;
nodes = (
"156 0 LINE",
"157 7 LINE",
"142 15 OFFCURVE",
"119 20 OFFCURVE",
"82 24 CURVE",
"415 632 LINE",
"499 24 LINE",
"462 20 OFFCURVE",
"437 16 OFFCURVE",
"416 8 CURVE",
"415 0 LINE",
"614 0 LINE",
"615 8 LINE",
"594 17 OFFCURVE",
"569 22 OFFCURVE",
"544 25 CURVE",
"449 704 LINE",
"420 704 LINE",
"48 26 LINE",
"24 23 OFFCURVE",
"-6 17 OFFCURVE",
"-31 8 CURVE",
"-32 0 LINE"
);
},
{
closed = 1;
nodes = (
"490 184 LINE",
"494 211 LINE",
"162 211 LINE",
"157 184 LINE"
);
},
{
closed = 1;
nodes = (
"488 801 LINE",
"401 894 LINE",
"395 903 OFFCURVE",
"386 910 OFFCURVE",
"373 910 CURVE SMOOTH",
"360 910 OFFCURVE",
"350 900 OFFCURVE",
"350 886 CURVE SMOOTH",
"350 878 OFFCURVE",
"354 869 OFFCURVE",
"366 862 CURVE",
"475 786 LINE"
);
}
);
width = 660;
}
);
leftKerningGroup = A;
note = Agrave;
rightKerningGroup = A;
unicode = 00C0;
},
{
glyphname = Ahookabove;
lastChange = "2015-10-26 01:49:28 +0000";
layers = (
{
layerId = "DC57E17D-D7E6-498D-B8B0-08C45E75F177";
name = "Light Italic";
paths = (
{
closed = 1;
nodes = (
"156 0 LINE",
"157 7 LINE",
"142 15 OFFCURVE",
"119 20 OFFCURVE",
"82 24 CURVE",
"415 632 LINE",
"499 24 LINE",
"462 20 OFFCURVE",
"437 16 OFFCURVE",
"416 8 CURVE",
"415 0 LINE",
"614 0 LINE",
"615 8 LINE",
"594 17 OFFCURVE",
"569 22 OFFCURVE",
"544 25 CURVE",
"449 704 LINE",
"420 704 LINE",
"48 26 LINE",
"24 23 OFFCURVE",
"-6 17 OFFCURVE",
"-31 8 CURVE",
"-32 0 LINE"
);
},
{
closed = 1;
nodes = (
"490 184 LINE",
"494 211 LINE",
"162 211 LINE",
"157 184 LINE"
);
},
{
closed = 1;
nodes = (
"463 777 LINE",
"486 838 LINE",
"536 843 OFFCURVE",
"564 869 OFFCURVE",
"573 908 CURVE SMOOTH",
"574 914 OFFCURVE",
"575 919 OFFCURVE",
"575 924 CURVE SMOOTH",
"575 961 OFFCURVE",
"545 978 OFFCURVE",
"508 978 CURVE SMOOTH",
"481 978 OFFCURVE",
"454 970 OFFCURVE",
"436 962 CURVE",
"438 938 LINE",
"459 949 OFFCURVE",
"479 954 OFFCURVE",
"494 954 CURVE SMOOTH",
"526 954 OFFCURVE",
"541 940 OFFCURVE",
"541 919 CURVE SMOOTH",
"541 889 OFFCURVE",
"518 858 OFFCURVE",
"467 858 CURVE SMOOTH",
"452 858 LINE",
"441 777 LINE"
);
}
);
width = 660;
}
);
leftKerningGroup = A;
note = Ahookabove;
rightKerningGroup = A;
unicode = 1EA2;
},
{
glyphname = Amacron;
lastChange = "2015-10-26 01:18:16 +0000";
layers = (
{
layerId = "DC57E17D-D7E6-498D-B8B0-08C45E75F177";
name = "Light Italic";
paths = (
{
closed = 1;
nodes = (
"156 0 LINE",
"157 7 LINE",
"142 15 OFFCURVE",
"119 20 OFFCURVE",
"82 24 CURVE",
"415 632 LINE",
"499 24 LINE",
"462 20 OFFCURVE",
"437 16 OFFCURVE",
"416 8 CURVE",
"415 0 LINE",
"614 0 LINE",
"615 8 LINE",
"594 17 OFFCURVE",
"569 22 OFFCURVE",
"544 25 CURVE",
"449 704 LINE",
"420 704 LINE",
"48 26 LINE",
"24 23 OFFCURVE",
"-6 17 OFFCURVE",
"-31 8 CURVE",
"-32 0 LINE"
);
},
{
closed = 1;
nodes = (
"490 184 LINE",
"494 211 LINE",
"162 211 LINE",
"157 184 LINE"
);
},
{
closed = 1;
nodes = (
"592 784 LINE",
"597 811 LINE",
"315 811 LINE",
"310 784 LINE"
);
}
);
width = 660;
}
);
leftKerningGroup = A;
note = Amacron;
rightKerningGroup = A;
unicode = 0100;
},
{
glyphname = Aogonek;
lastChange = "2015-10-26 01:49:28 +0000";
layers = (
{
layerId = "DC57E17D-D7E6-498D-B8B0-08C45E75F177";
name = "Light Italic";
paths = (
{
closed = 1;
nodes = (
"156 0 LINE",
"157 7 LINE",
"142 15 OFFCURVE",
"119 20 OFFCURVE",
"82 24 CURVE",
"415 632 LINE",
"499 24 LINE",
"462 20 OFFCURVE",
"437 16 OFFCURVE",
"416 8 CURVE",
"415 0 LINE",
"614 0 LINE",
"615 8 LINE",
"594 17 OFFCURVE",
"569 22 OFFCURVE",
"544 25 CURVE",
"449 704 LINE",
"420 704 LINE",
"48 26 LINE",
"24 23 OFFCURVE",
"-6 17 OFFCURVE",
"-31 8 CURVE",
"-32 0 LINE"
);
},
{
closed = 1;
nodes = (
"573 -175 OFFCURVE",
"591 -171 OFFCURVE",
"614 -163 CURVE",
"619 -137 LINE",
"604 -143 OFFCURVE",
"588 -146 OFFCURVE",
"574 -146 CURVE SMOOTH",
"546 -146 OFFCURVE",
"524 -135 OFFCURVE",
"524 -109 CURVE SMOOTH",
"524 -66 OFFCURVE",
"565 -22 OFFCURVE",
"612 0 CURVE",
"580 0 LINE",
"525 -22 OFFCURVE",
"485 -66 OFFCURVE",
"485 -116 CURVE SMOOTH",
"485 -146 OFFCURVE",
"504 -175 OFFCURVE",
"551 -175 CURVE SMOOTH"
);
},
{
closed = 1;
nodes = (
"490 184 LINE",
"494 211 LINE",
"162 211 LINE",
"157 184 LINE"
);
}
);
width = 660;
}
);
leftKerningGroup = A;
note = Aogonek;
rightKerningGroup = A;
unicode = 0104;
},
{
glyphname = Aring;
lastChange = "2015-10-26 01:49:29 +0000";
layers = (
{
layerId = "DC57E17D-D7E6-498D-B8B0-08C45E75F177";
name = "Light Italic";
paths = (
{
closed = 1;
nodes = (
"156 0 LINE",
"157 7 LINE",
"142 15 OFFCURVE",
"119 20 OFFCURVE",
"82 24 CURVE",
"415 632 LINE",
"499 24 LINE",
"462 20 OFFCURVE",
"437 16 OFFCURVE",
"416 8 CURVE",
"415 0 LINE",
"614 0 LINE",
"615 8 LINE",
"594 17 OFFCURVE",
"569 22 OFFCURVE",
"544 25 CURVE",
"449 704 LINE",
"420 704 LINE",
"48 26 LINE",
"24 23 OFFCURVE",
"-6 17 OFFCURVE",
"-31 8 CURVE",
"-32 0 LINE"
);
},
{
closed = 1;
nodes = (
"490 184 LINE",
"494 211 LINE",
"162 211 LINE",
"157 184 LINE"
);
},
{
closed = 1;
nodes = (
"485 735 OFFCURVE",
"525 767 OFFCURVE",
"535 814 CURVE SMOOTH",
"536 820 OFFCURVE",
"537 826 OFFCURVE",
"537 831 CURVE SMOOTH",
"537 869 OFFCURVE",
"511 893 OFFCURVE",
"472 893 CURVE SMOOTH",
"426 893 OFFCURVE",
"386 861 OFFCURVE",
"376 814 CURVE SMOOTH",
"375 808 OFFCURVE",
"374 802 OFFCURVE",
"374 797 CURVE SMOOTH",
"374 759 OFFCURVE",
"400 735 OFFCURVE",
"440 735 CURVE SMOOTH"
);
},
{
closed = 1;
nodes = (
"417 759 OFFCURVE",
"400 775 OFFCURVE",
"400 802 CURVE SMOOTH",
"400 843 OFFCURVE",
"432 869 OFFCURVE",
"468 869 CURVE SMOOTH",
"495 869 OFFCURVE",
"511 853 OFFCURVE",
"511 827 CURVE SMOOTH",
"511 785 OFFCURVE",
"480 759 OFFCURVE",
"444 759 CURVE SMOOTH"
);
}
);
width = 660;
}
);
leftKerningGroup = A;
note = Aring;
rightKerningGroup = A;
unicode = 00C5;
},
{
glyphname = Aringacute;
lastChange = "2015-10-26 01:49:30 +0000";
layers = (
{
layerId = "DC57E17D-D7E6-498D-B8B0-08C45E75F177";
name = "Light Italic";
paths = (
{
closed = 1;
nodes = (
"156 0 LINE",
"157 7 LINE",
"142 15 OFFCURVE",
"119 20 OFFCURVE",
"82 24 CURVE",
"415 632 LINE",
"499 24 LINE",
"462 20 OFFCURVE",
"437 16 OFFCURVE",
"416 8 CURVE",
"415 0 LINE",
"614 0 LINE",
"615 8 LINE",
"594 17 OFFCURVE",
"569 22 OFFCURVE",
"544 25 CURVE",
"449 704 LINE",
"420 704 LINE",
"48 26 LINE",
"24 23 OFFCURVE",
"-6 17 OFFCURVE",
"-31 8 CURVE",
"-32 0 LINE"
);
},
{
closed = 1;
nodes = (
"490 184 LINE",
"494 211 LINE",
"162 211 LINE",
"157 184 LINE"
);
},
{
closed = 1;
nodes = (
"484 731 OFFCURVE",
"524 763 OFFCURVE",
"534 810 CURVE SMOOTH",
"535 816 OFFCURVE",
"536 822 OFFCURVE",
"536 827 CURVE SMOOTH",
"536 865 OFFCURVE",
"510 889 OFFCURVE",
"471 889 CURVE SMOOTH",
"425 889 OFFCURVE",
"385 857 OFFCURVE",
"375 810 CURVE SMOOTH",
"374 804 OFFCURVE",
"373 798 OFFCURVE",
"373 793 CURVE SMOOTH",
"373 755 OFFCURVE",
"399 731 OFFCURVE",
"439 731 CURVE SMOOTH"
);
},
{
closed = 1;
nodes = (
"416 755 OFFCURVE",
"399 771 OFFCURVE",
"399 798 CURVE SMOOTH",
"399 839 OFFCURVE",
"431 865 OFFCURVE",
"467 865 CURVE SMOOTH",
"494 865 OFFCURVE",
"511 850 OFFCURVE",
"511 824 CURVE SMOOTH",
"511 782 OFFCURVE",
"479 755 OFFCURVE",
"444 755 CURVE SMOOTH"
);
},
{
closed = 1;
nodes = (
"600 994 LINE SMOOTH",
"617 1003 OFFCURVE",
"627 1016 OFFCURVE",
"627 1027 CURVE SMOOTH",
"627 1036 OFFCURVE",
"622 1042 OFFCURVE",
"612 1042 CURVE SMOOTH",
"598 1042 OFFCURVE",
"586 1033 OFFCURVE",
"578 1026 CURVE",
"453 933 LINE",
"460 918 LINE"
);
}
);
width = 660;
}
);
leftKerningGroup = A;
note = Aringacute;
rightKerningGroup = A;
unicode = 01FA;
},
{
glyphname = Atilde;
lastChange = "2015-10-26 01:18:17 +0000";
layers = (
{
layerId = "DC57E17D-D7E6-498D-B8B0-08C45E75F177";
name = "Light Italic";
paths = (
{
closed = 1;
nodes = (
"156 0 LINE",
"157 7 LINE",
"142 15 OFFCURVE",
"119 20 OFFCURVE",
"82 24 CURVE",
"415 632 LINE",
"499 24 LINE",
"462 20 OFFCURVE",
"437 16 OFFCURVE",
"416 8 CURVE",
"415 0 LINE",
"614 0 LINE",
"615 8 LINE",
"594 17 OFFCURVE",
"569 22 OFFCURVE",
"544 25 CURVE",
"449 704 LINE",
"420 704 LINE",
"48 26 LINE",
"24 23 OFFCURVE",
"-6 17 OFFCURVE",
"-31 8 CURVE",
"-32 0 LINE"
);
},
{
closed = 1;
nodes = (
"490 184 LINE",
"494 211 LINE",
"162 211 LINE",
"157 184 LINE"
);
},
{
closed = 1;
nodes = (
"324 786 LINE",
"340 823 OFFCURVE",
"366 846 OFFCURVE",
"396 846 CURVE SMOOTH",
"436 846 OFFCURVE",
"471 787 OFFCURVE",
"515 787 CURVE SMOOTH",
"559 787 OFFCURVE",
"593 824 OFFCURVE",
"612 882 CURVE",
"596 882 LINE",
"578 841 OFFCURVE",
"554 818 OFFCURVE",
"522 818 CURVE SMOOTH",
"483 818 OFFCURVE",
"450 876 OFFCURVE",
"404 876 CURVE SMOOTH",
"364 876 OFFCURVE",
"327 849 OFFCURVE",
"307 786 CURVE"
);
}
);
width = 660;
}
);
leftKerningGroup = A;
note = Atilde;
rightKerningGroup = A;
unicode = 00C3;
},
{
glyphname = AE;
lastChange = "2015-10-26 01:49:28 +0000";
layers = (
{
layerId = "DC57E17D-D7E6-498D-B8B0-08C45E75F177";
name = "Light Italic";
paths = (
{
closed = 1;
nodes = (
"158 0 LINE",
"159 7 LINE",
"143 15 OFFCURVE",
"119 20 OFFCURVE",
"82 24 CURVE",
"207 184 LINE",
"498 184 LINE",
"466 24 LINE",
"426 20 OFFCURVE",
"402 14 OFFCURVE",
"384 8 CURVE",
"383 0 LINE",
"834 0 LINE",
"870 124 LINE",
"857 124 LINE",
"845 105 OFFCURVE",
"816 51 OFFCURVE",
"809 26 CURVE",
"514 26 LINE",
"579 346 LINE",
"802 346 LINE",
"801 336 OFFCURVE",
"800 318 OFFCURVE",
"800 300 CURVE SMOOTH",
"800 287 OFFCURVE",
"800 275 OFFCURVE",
"802 265 CURVE",
"812 265 LINE",
"851 454 LINE",
"840 454 LINE",
"827 432 OFFCURVE",
"813 391 OFFCURVE",
"807 373 CURVE",
"585 373 LINE",
"646 673 LINE",
"941 673 LINE",
"938 658 OFFCURVE",
"936 631 OFFCURVE",
"936 608 CURVE SMOOTH",
"936 594 OFFCURVE",
"937 582 OFFCURVE",
"939 575 CURVE",
"951 575 LINE",
"976 700 LINE",
"520 700 LINE",
"519 692 LINE",
"531 685 OFFCURVE",
"545 684 OFFCURVE",
"561 680 CURVE",
"42 26 LINE",
"16 22 OFFCURVE",
"-6 17 OFFCURVE",
"-31 8 CURVE",
"-32 0 LINE"
);
},
{
closed = 1;
nodes = (
"588 673 LINE",
"598 673 LINE",
"503 211 LINE",
"228 211 LINE"
);
}
);
width = 935;
}
);
leftKerningGroup = A;
note = AE;
unicode = 00C6;
},
{
glyphname = AEacute;
lastChange = "2015-10-26 01:49:28 +0000";
layers = (
{
layerId = "DC57E17D-D7E6-498D-B8B0-08C45E75F177";
name = "Light Italic";
paths = (
{
closed = 1;
nodes = (
"158 0 LINE",
"159 7 LINE",
"143 15 OFFCURVE",
"119 20 OFFCURVE",
"82 24 CURVE",
"207 184 LINE",
"498 184 LINE",
"466 24 LINE",
"426 20 OFFCURVE",
"402 14 OFFCURVE",
"384 8 CURVE",
"383 0 LINE",
"834 0 LINE",
"870 124 LINE",
"857 124 LINE",
"845 105 OFFCURVE",
"816 51 OFFCURVE",
"809 26 CURVE",
"514 26 LINE",
"579 346 LINE",
"802 346 LINE",
"801 336 OFFCURVE",
"800 318 OFFCURVE",
"800 300 CURVE SMOOTH",
"800 287 OFFCURVE",
"800 275 OFFCURVE",
"802 265 CURVE",
"812 265 LINE",
"851 454 LINE",
"840 454 LINE",
"827 432 OFFCURVE",
"813 391 OFFCURVE",
"807 373 CURVE",
"585 373 LINE",
"646 673 LINE",
"941 673 LINE",
"938 658 OFFCURVE",
"936 631 OFFCURVE",
"936 608 CURVE SMOOTH",
"936 594 OFFCURVE",
"937 582 OFFCURVE",
"939 575 CURVE",
"951 575 LINE",
"976 700 LINE",
"520 700 LINE",
"519 692 LINE",
"531 685 OFFCURVE",
"545 684 OFFCURVE",
"561 680 CURVE",
"42 26 LINE",
"16 22 OFFCURVE",
"-6 17 OFFCURVE",
"-31 8 CURVE",
"-32 0 LINE"
);
},
{
closed = 1;
nodes = (
"588 673 LINE",
"598 673 LINE",
"503 211 LINE",
"228 211 LINE"
);
},
{
closed = 1;
nodes = (
"880 862 LINE SMOOTH",
"898 871 OFFCURVE",
"907 884 OFFCURVE",
"907 895 CURVE SMOOTH",
"907 904 OFFCURVE",
"902 910 OFFCURVE",
"892 910 CURVE SMOOTH",
"878 910 OFFCURVE",
"866 901 OFFCURVE",
"858 894 CURVE",
"733 801 LINE",
"740 786 LINE"
);
}
);
width = 935;
}
);
leftKerningGroup = A;
note = AEacute;
unicode = 01FC;
},
{
glyphname = B;
lastChange = "2015-10-26 01:49:28 +0000";
layers = (
{
layerId = "DC57E17D-D7E6-498D-B8B0-08C45E75F177";
name = "Light Italic";
paths = (
{
closed = 1;
nodes = (
"284 0 LINE SMOOTH",
"428 0 OFFCURVE",
"498 67 OFFCURVE",
"523 189 CURVE SMOOTH",
"526 205 OFFCURVE",
"528 221 OFFCURVE",
"528 237 CURVE SMOOTH",
"528 297 OFFCURVE",
"499 356 OFFCURVE",
"405 369 CURVE",
"406 373 LINE",
"500 388 OFFCURVE",
"551 468 OFFCURVE",
"564 534 CURVE SMOOTH",
"568 553 OFFCURVE",
"570 570 OFFCURVE",
"570 585 CURVE SMOOTH",
"570 664 OFFCURVE",
"517 700 OFFCURVE",
"396 700 CURVE SMOOTH",
"147 700 LINE",
"145 691 LINE",
"168 684 OFFCURVE",
"195 679 OFFCURVE",
"221 675 CURVE",
"88 24 LINE",
"49 20 OFFCURVE",
"29 16 OFFCURVE",
"6 8 CURVE",
"5 0 LINE"
);
},
{
closed = 1;
nodes = (
"204 355 LINE",
"342 355 LINE SMOOTH",
"433 355 OFFCURVE",
"483 312 OFFCURVE",
"483 234 CURVE SMOOTH",
"483 221 OFFCURVE",
"481 206 OFFCURVE",
"478 190 CURVE SMOOTH",
"456 82 OFFCURVE",
"396 26 OFFCURVE",
"287 26 CURVE SMOOTH",
"136 26 LINE"
);
},
{
closed = 1;
nodes = (
"269 673 LINE",
"390 673 LINE SMOOTH",
"482 673 OFFCURVE",
"523 643 OFFCURVE",
"523 579 CURVE SMOOTH",
"523 565 OFFCURVE",
"521 550 OFFCURVE",
"518 534 CURVE SMOOTH",
"499 442 OFFCURVE",
"435 382 OFFCURVE",
"326 382 CURVE SMOOTH",
"209 382 LINE"
);
}
);
width = 557;
}
);
note = B;
unicode = 0042;
},
{
glyphname = C;
lastChange = "2015-10-26 01:49:28 +0000";
layers = (
{
layerId = "DC57E17D-D7E6-498D-B8B0-08C45E75F177";
name = "Light Italic";
paths = (
{
closed = 1;
nodes = (
"372 -10 OFFCURVE",
"442 11 OFFCURVE",
"491 49 CURVE",
"487 66 LINE",
"429 34 OFFCURVE",
"358 17 OFFCURVE",
"317 17 CURVE SMOOTH",
"171 17 OFFCURVE",
"118 103 OFFCURVE",
"118 227 CURVE SMOOTH",
"118 265 OFFCURVE",
"123 306 OFFCURVE",
"132 350 CURVE SMOOTH",
"169 536 OFFCURVE",
"270 683 OFFCURVE",
"455 683 CURVE SMOOTH",
"513 683 OFFCURVE",
"557 661 OFFCURVE",
"576 640 CURVE",
"574 619 OFFCURVE",
"570 583 OFFCURVE",
"570 558 CURVE SMOOTH",
"570 552 OFFCURVE",
"570 546 OFFCURVE",
"571 541 CURVE",
"585 541 LINE",
"613 647 LINE",
"580 685 OFFCURVE",
"524 710 OFFCURVE",
"447 710 CURVE SMOOTH",
"260 710 OFFCURVE",
"129 572 OFFCURVE",
"84 350 CURVE SMOOTH",
"75 305 OFFCURVE",
"70 264 OFFCURVE",
"70 227 CURVE SMOOTH",
"70 78 OFFCURVE",
"146 -10 OFFCURVE",
"300 -10 CURVE SMOOTH"
);
}
);
width = 565;
}
);
leftKerningGroup = C;
note = C;
unicode = 0043;
},
{
glyphname = Cacute;
lastChange = "2015-10-26 01:49:28 +0000";
layers = (
{
layerId = "DC57E17D-D7E6-498D-B8B0-08C45E75F177";
name = "Light Italic";
paths = (
{
closed = 1;
nodes = (
"372 -10 OFFCURVE",
"442 11 OFFCURVE",
"491 49 CURVE",
"487 66 LINE",
"429 34 OFFCURVE",
"358 17 OFFCURVE",
"317 17 CURVE SMOOTH",
"171 17 OFFCURVE",
"118 103 OFFCURVE",
"118 227 CURVE SMOOTH",
"118 265 OFFCURVE",
"123 306 OFFCURVE",
"132 350 CURVE SMOOTH",
"169 536 OFFCURVE",
"270 683 OFFCURVE",
"455 683 CURVE SMOOTH",
"513 683 OFFCURVE",
"557 661 OFFCURVE",
"576 640 CURVE",
"574 619 OFFCURVE",
"570 583 OFFCURVE",
"570 558 CURVE SMOOTH",
"570 552 OFFCURVE",
"570 546 OFFCURVE",
"571 541 CURVE",
"585 541 LINE",
"613 647 LINE",
"580 685 OFFCURVE",
"524 710 OFFCURVE",
"447 710 CURVE SMOOTH",
"260 710 OFFCURVE",
"129 572 OFFCURVE",
"84 350 CURVE SMOOTH",
"75 305 OFFCURVE",
"70 264 OFFCURVE",
"70 227 CURVE SMOOTH",
"70 78 OFFCURVE",
"146 -10 OFFCURVE",
"300 -10 CURVE SMOOTH"
);
},
{
closed = 1;
nodes = (
"544 862 LINE SMOOTH",
"562 871 OFFCURVE",
"571 884 OFFCURVE",
"571 895 CURVE SMOOTH",
"571 904 OFFCURVE",
"566 910 OFFCURVE",
"556 910 CURVE SMOOTH",
"542 910 OFFCURVE",
"530 901 OFFCURVE",
"522 894 CURVE",
"397 801 LINE",
"404 786 LINE"
);
}
);
width = 565;
}
);
leftKerningGroup = C;
note = Cacute;
unicode = 0106;
},
{
glyphname = Ccaron;
lastChange = "2015-10-26 01:49:29 +0000";
layers = (
{
layerId = "DC57E17D-D7E6-498D-B8B0-08C45E75F177";
name = "Light Italic";
paths = (
{
closed = 1;
nodes = (
"372 -10 OFFCURVE",
"442 11 OFFCURVE",
"491 49 CURVE",
"487 66 LINE",
"429 34 OFFCURVE",
"358 17 OFFCURVE",
"317 17 CURVE SMOOTH",
"171 17 OFFCURVE",
"118 103 OFFCURVE",
"118 227 CURVE SMOOTH",
"118 265 OFFCURVE",
"123 306 OFFCURVE",
"132 350 CURVE SMOOTH",
"169 536 OFFCURVE",
"270 683 OFFCURVE",
"455 683 CURVE SMOOTH",
"513 683 OFFCURVE",
"557 661 OFFCURVE",
"576 640 CURVE",
"574 619 OFFCURVE",
"570 583 OFFCURVE",
"570 558 CURVE SMOOTH",
"570 552 OFFCURVE",
"570 546 OFFCURVE",
"571 541 CURVE",
"585 541 LINE",
"613 647 LINE",
"580 685 OFFCURVE",
"524 710 OFFCURVE",
"447 710 CURVE SMOOTH",
"260 710 OFFCURVE",
"129 572 OFFCURVE",
"84 350 CURVE SMOOTH",
"75 305 OFFCURVE",
"70 264 OFFCURVE",
"70 227 CURVE SMOOTH",
"70 78 OFFCURVE",
"146 -10 OFFCURVE",
"300 -10 CURVE SMOOTH"
);
},
{
closed = 1;
nodes = (
"483 786 LINE",
"523 831 OFFCURVE",
"574 870 OFFCURVE",
"615 896 CURVE",
"600 919 LINE",
"561 893 OFFCURVE",
"516 858 OFFCURVE",
"481 823 CURVE",
"476 823 LINE",
"457 858 OFFCURVE",
"425 893 OFFCURVE",
"397 919 CURVE",
"372 896 LINE",
"402 870 OFFCURVE",
"438 831 OFFCURVE",
"461 786 CURVE"
);
}
);
width = 565;
}
);
leftKerningGroup = C;
note = Ccaron;
unicode = 010C;
},
{
glyphname = Ccedilla;
lastChange = "2015-10-26 01:49:30 +0000";
layers = (
{
layerId = "DC57E17D-D7E6-498D-B8B0-08C45E75F177";
name = "Light Italic";
paths = (
{
closed = 1;
nodes = (
"372 -10 OFFCURVE",
"442 11 OFFCURVE",
"491 49 CURVE",
"487 66 LINE",
"429 34 OFFCURVE",
"358 17 OFFCURVE",
"317 17 CURVE SMOOTH",
"171 17 OFFCURVE",
"118 103 OFFCURVE",
"118 227 CURVE SMOOTH",
"118 265 OFFCURVE",
"123 306 OFFCURVE",
"132 350 CURVE SMOOTH",
"169 536 OFFCURVE",
"270 683 OFFCURVE",
"455 683 CURVE SMOOTH",
"513 683 OFFCURVE",
"557 661 OFFCURVE",
"576 640 CURVE",
"574 619 OFFCURVE",
"570 583 OFFCURVE",
"570 558 CURVE SMOOTH",
"570 552 OFFCURVE",
"570 546 OFFCURVE",
"571 541 CURVE",
"585 541 LINE",
"613 647 LINE",
"580 685 OFFCURVE",
"524 710 OFFCURVE",
"447 710 CURVE SMOOTH",
"260 710 OFFCURVE",
"129 572 OFFCURVE",
"84 350 CURVE SMOOTH",
"75 305 OFFCURVE",
"70 264 OFFCURVE",
"70 227 CURVE SMOOTH",
"70 78 OFFCURVE",
"146 -10 OFFCURVE",
"300 -10 CURVE SMOOTH"
);
},
{
closed = 1;
nodes = (
"289 -198 OFFCURVE",
"337 -174 OFFCURVE",
"347 -124 CURVE SMOOTH",
"348 -120 OFFCURVE",
"348 -116 OFFCURVE",
"348 -112 CURVE SMOOTH",
"348 -82 OFFCURVE",
"319 -68 OFFCURVE",
"281 -68 CURVE SMOOTH",
"276 -68 OFFCURVE",
"270 -68 OFFCURVE",
"265 -69 CURVE",
"309 3 LINE",
"280 3 LINE",
"232 -68 LINE",
"247 -93 LINE",
"253 -92 OFFCURVE",
"262 -91 OFFCURVE",
"271 -91 CURVE SMOOTH",
"294 -91 OFFCURVE",
"320 -99 OFFCURVE",
"315 -123 CURVE SMOOTH",
"307 -158 OFFCURVE",
"278 -173 OFFCURVE",
"238 -173 CURVE SMOOTH",
"223 -173 OFFCURVE",
"204 -171 OFFCURVE",
"188 -167 CURVE",
"174 -188 LINE",
"191 -195 OFFCURVE",
"213 -198 OFFCURVE",
"233 -198 CURVE SMOOTH"
);
}
);
width = 565;
}
);
leftKerningGroup = C;
note = Ccedilla;
unicode = 00C7;
},
{
glyphname = Ccircumflex;
lastChange = "2015-10-26 01:49:29 +0000";
layers = (
{
layerId = "DC57E17D-D7E6-498D-B8B0-08C45E75F177";
name = "Light Italic";
paths = (
{
closed = 1;
nodes = (
"372 -10 OFFCURVE",
"442 11 OFFCURVE",
"491 49 CURVE",
"487 66 LINE",
"429 34 OFFCURVE",
"358 17 OFFCURVE",
"317 17 CURVE SMOOTH",
"171 17 OFFCURVE",
"118 103 OFFCURVE",
"118 227 CURVE SMOOTH",
"118 265 OFFCURVE",
"123 306 OFFCURVE",
"132 350 CURVE SMOOTH",
"169 536 OFFCURVE",
"270 683 OFFCURVE",
"455 683 CURVE SMOOTH",
"513 683 OFFCURVE",
"557 661 OFFCURVE",
"576 640 CURVE",
"574 619 OFFCURVE",
"570 583 OFFCURVE",
"570 558 CURVE SMOOTH",
"570 552 OFFCURVE",
"570 546 OFFCURVE",
"571 541 CURVE",
"585 541 LINE",
"613 647 LINE",
"580 685 OFFCURVE",
"524 710 OFFCURVE",
"447 710 CURVE SMOOTH",
"260 710 OFFCURVE",
"129 572 OFFCURVE",
"84 350 CURVE SMOOTH",
"75 305 OFFCURVE",
"70 264 OFFCURVE",
"70 227 CURVE SMOOTH",
"70 78 OFFCURVE",
"146 -10 OFFCURVE",
"300 -10 CURVE SMOOTH"
);
},
{
closed = 1;
nodes = (
"402 803 OFFCURVE",
"448 838 OFFCURVE",
"482 873 CURVE",
"487 873 LINE",
"507 838 OFFCURVE",
"538 803 OFFCURVE",
"566 778 CURVE",
"591 800 LINE",
"561 827 OFFCURVE",
"526 866 OFFCURVE",
"503 910 CURVE",
"481 910 LINE",
"441 866 OFFCURVE",
"389 827 OFFCURVE",
"348 800 CURVE",
"364 778 LINE"
);
}
);
width = 565;
}
);
leftKerningGroup = C;
note = Ccircumflex;
unicode = 0108;
},
{
glyphname = Cdotaccent;
lastChange = "2015-10-26 01:49:29 +0000";
layers = (
{
layerId = "DC57E17D-D7E6-498D-B8B0-08C45E75F177";
name = "Light Italic";
paths = (
{
closed = 1;
nodes = (
"372 -10 OFFCURVE",
"442 11 OFFCURVE",
"491 49 CURVE",
"487 66 LINE",
"429 34 OFFCURVE",
"358 17 OFFCURVE",
"317 17 CURVE SMOOTH",
"171 17 OFFCURVE",
"118 103 OFFCURVE",
"118 227 CURVE SMOOTH",
"118 265 OFFCURVE",
"123 306 OFFCURVE",
"132 350 CURVE SMOOTH",
"169 536 OFFCURVE",
"270 683 OFFCURVE",
"455 683 CURVE SMOOTH",
"513 683 OFFCURVE",
"557 661 OFFCURVE",
"576 640 CURVE",
"574 619 OFFCURVE",
"570 583 OFFCURVE",
"570 558 CURVE SMOOTH",
"570 552 OFFCURVE",
"570 546 OFFCURVE",
"571 541 CURVE",
"585 541 LINE",
"613 647 LINE",
"580 685 OFFCURVE",
"524 710 OFFCURVE",
"447 710 CURVE SMOOTH",
"260 710 OFFCURVE",
"129 572 OFFCURVE",
"84 350 CURVE SMOOTH",
"75 305 OFFCURVE",
"70 264 OFFCURVE",
"70 227 CURVE SMOOTH",
"70 78 OFFCURVE",
"146 -10 OFFCURVE",
"300 -10 CURVE SMOOTH"
);
},
{
closed = 1;
nodes = (
"498 785 OFFCURVE",
"517 802 OFFCURVE",
"517 830 CURVE SMOOTH",
"517 846 OFFCURVE",
"507 855 OFFCURVE",
"492 855 CURVE SMOOTH",
"472 855 OFFCURVE",
"457 842 OFFCURVE",
"452 820 CURVE SMOOTH",
"451 816 OFFCURVE",
"451 813 OFFCURVE",
"451 810 CURVE SMOOTH",
"451 794 OFFCURVE",
"461 785 OFFCURVE",
"477 785 CURVE SMOOTH"
);
}
);
width = 565;
}
);
leftKerningGroup = C;
note = Cdotaccent;
unicode = 010A;
},
{
glyphname = D;
lastChange = "2015-10-26 01:49:29 +0000";
layers = (
{
layerId = "DC57E17D-D7E6-498D-B8B0-08C45E75F177";
name = "Light Italic";
paths = (
{
closed = 1;
nodes = (
"274 0 LINE SMOOTH",
"461 0 OFFCURVE",
"562 127 OFFCURVE",
"608 350 CURVE SMOOTH",
"618 401 OFFCURVE",
"624 446 OFFCURVE",
"624 487 CURVE SMOOTH",
"624 624 OFFCURVE",
"561 700 OFFCURVE",
"417 700 CURVE SMOOTH",
"148 700 LINE",
"147 692 LINE",
"168 684 OFFCURVE",
"195 679 OFFCURVE",
"221 675 CURVE",
"88 24 LINE",
"50 20 OFFCURVE",
"26 14 OFFCURVE",
"7 8 CURVE",
"6 0 LINE"
);
},
{
closed = 1;
nodes = (
"269 673 LINE",
"411 673 LINE SMOOTH",
"531 673 OFFCURVE",
"576 603 OFFCURVE",
"576 489 CURVE SMOOTH",
"576 448 OFFCURVE",
"570 401 OFFCURVE",
"560 350 CURVE SMOOTH",
"520 156 OFFCURVE",
"443 26 OFFCURVE",
"276 26 CURVE SMOOTH",
"136 26 LINE"
);
}
);
width = 612;
}
);
note = D;
rightKerningGroup = D;
unicode = 0044;
},
{
glyphname = Eth;
lastChange = "2015-10-26 01:49:28 +0000";
layers = (
{
layerId = "DC57E17D-D7E6-498D-B8B0-08C45E75F177";
name = "Light Italic";
paths = (
{
closed = 1;
nodes = (
"274 0 LINE SMOOTH",
"461 0 OFFCURVE",
"562 127 OFFCURVE",
"608 350 CURVE SMOOTH",
"618 401 OFFCURVE",
"624 446 OFFCURVE",
"624 487 CURVE SMOOTH",
"624 624 OFFCURVE",
"561 700 OFFCURVE",
"417 700 CURVE SMOOTH",
"148 700 LINE",
"147 692 LINE",
"168 684 OFFCURVE",
"195 679 OFFCURVE",
"221 675 CURVE",
"88 24 LINE",
"50 20 OFFCURVE",
"26 14 OFFCURVE",
"7 8 CURVE",
"6 0 LINE"
);
},
{
closed = 1;
nodes = (
"372 319 LINE",
"377 346 LINE",
"79 346 LINE",
"73 319 LINE"
);
},
{
closed = 1;
nodes = (
"269 673 LINE",
"411 673 LINE SMOOTH",
"531 673 OFFCURVE",
"576 603 OFFCURVE",
"576 489 CURVE SMOOTH",
"576 448 OFFCURVE",
"570 401 OFFCURVE",
"560 350 CURVE SMOOTH",
"520 156 OFFCURVE",
"443 26 OFFCURVE",
"276 26 CURVE SMOOTH",
"136 26 LINE"
);
}
);
width = 612;
}
);
note = Eth;
rightKerningGroup = D;
unicode = 00D0;
},
{
glyphname = Dcaron;
lastChange = "2015-10-26 01:49:30 +0000";
layers = (
{
layerId = "DC57E17D-D7E6-498D-B8B0-08C45E75F177";
name = "Light Italic";
paths = (
{
closed = 1;
nodes = (
"274 0 LINE SMOOTH",
"461 0 OFFCURVE",
"562 127 OFFCURVE",
"608 350 CURVE SMOOTH",
"618 401 OFFCURVE",
"624 446 OFFCURVE",
"624 487 CURVE SMOOTH",
"624 624 OFFCURVE",
"561 700 OFFCURVE",
"417 700 CURVE SMOOTH",
"148 700 LINE",
"147 692 LINE",
"168 684 OFFCURVE",
"195 679 OFFCURVE",
"221 675 CURVE",
"88 24 LINE",
"50 20 OFFCURVE",
"26 14 OFFCURVE",
"7 8 CURVE",
"6 0 LINE"
);
},
{
closed = 1;
nodes = (
"269 673 LINE",
"411 673 LINE SMOOTH",
"531 673 OFFCURVE",
"576 603 OFFCURVE",
"576 489 CURVE SMOOTH",
"576 448 OFFCURVE",
"570 401 OFFCURVE",
"560 350 CURVE SMOOTH",
"520 156 OFFCURVE",
"443 26 OFFCURVE",
"276 26 CURVE SMOOTH",
"136 26 LINE"
);
},
{
closed = 1;
nodes = (
"444 786 LINE",
"485 831 OFFCURVE",
"536 870 OFFCURVE",
"577 896 CURVE",
"562 919 LINE",
"522 893 OFFCURVE",
"477 858 OFFCURVE",
"443 823 CURVE",
"438 823 LINE",
"419 858 OFFCURVE",
"387 893 OFFCURVE",
"359 919 CURVE",
"334 896 LINE",
"364 870 OFFCURVE",
"399 831 OFFCURVE",
"422 786 CURVE"
);
}
);
width = 612;
}
);
note = Dcaron;
rightKerningGroup = D;
unicode = 010E;
},
{
glyphname = Dcroat;
lastChange = "2015-10-26 01:49:30 +0000";
layers = (
{
layerId = "DC57E17D-D7E6-498D-B8B0-08C45E75F177";
name = "Light Italic";
paths = (
{
closed = 1;
nodes = (
"274 0 LINE SMOOTH",
"461 0 OFFCURVE",
"562 127 OFFCURVE",
"608 350 CURVE SMOOTH",
"618 401 OFFCURVE",
"624 446 OFFCURVE",
"624 487 CURVE SMOOTH",
"624 624 OFFCURVE",
"561 700 OFFCURVE",
"417 700 CURVE SMOOTH",
"148 700 LINE",
"147 692 LINE",
"168 684 OFFCURVE",
"195 679 OFFCURVE",
"221 675 CURVE",
"88 24 LINE",
"50 20 OFFCURVE",
"26 14 OFFCURVE",
"7 8 CURVE",
"6 0 LINE"
);
},
{
closed = 1;
nodes = (
"372 319 LINE",
"377 346 LINE",
"79 346 LINE",
"73 319 LINE"
);
},
{
closed = 1;
nodes = (
"269 673 LINE",
"411 673 LINE SMOOTH",
"531 673 OFFCURVE",
"576 603 OFFCURVE",
"576 489 CURVE SMOOTH",
"576 448 OFFCURVE",
"570 401 OFFCURVE",
"560 350 CURVE SMOOTH",
"520 156 OFFCURVE",
"443 26 OFFCURVE",
"276 26 CURVE SMOOTH",
"136 26 LINE"
);
}
);
width = 612;
}
);
note = Dcroat;
rightKerningGroup = D;
unicode = 0110;
},
{
glyphname = Ddotbelow;
lastChange = "2015-10-26 01:49:29 +0000";
layers = (
{
layerId = "DC57E17D-D7E6-498D-B8B0-08C45E75F177";
name = "Light Italic";
paths = (
{
closed = 1;
nodes = (
"274 0 LINE SMOOTH",
"461 0 OFFCURVE",
"562 127 OFFCURVE",
"608 350 CURVE SMOOTH",
"618 401 OFFCURVE",
"624 446 OFFCURVE",
"624 487 CURVE SMOOTH",
"624 624 OFFCURVE",
"561 700 OFFCURVE",
"417 700 CURVE SMOOTH",
"148 700 LINE",
"147 692 LINE",
"168 684 OFFCURVE",
"195 679 OFFCURVE",
"221 675 CURVE",
"88 24 LINE",
"50 20 OFFCURVE",
"26 14 OFFCURVE",
"7 8 CURVE",
"6 0 LINE"
);
},
{
closed = 1;
nodes = (
"247 -133 OFFCURVE",
"263 -120 OFFCURVE",
"268 -98 CURVE",
"269 -95 OFFCURVE",
"269 -92 OFFCURVE",
"269 -89 CURVE SMOOTH",
"269 -73 OFFCURVE",
"259 -63 OFFCURVE",
"243 -63 CURVE SMOOTH",
"224 -63 OFFCURVE",
"207 -76 OFFCURVE",
"204 -98 CURVE",
"203 -102 OFFCURVE",
"203 -105 OFFCURVE",
"203 -109 CURVE SMOOTH",
"203 -124 OFFCURVE",
"212 -133 OFFCURVE",
"228 -133 CURVE SMOOTH"
);
},
{
closed = 1;
nodes = (
"269 673 LINE",
"411 673 LINE SMOOTH",
"531 673 OFFCURVE",
"576 603 OFFCURVE",
"576 489 CURVE SMOOTH",
"576 448 OFFCURVE",
"570 401 OFFCURVE",
"560 350 CURVE SMOOTH",
"520 156 OFFCURVE",
"443 26 OFFCURVE",
"276 26 CURVE SMOOTH",
"136 26 LINE"
);
}
);
width = 612;
}
);
note = Ddotbelow;
rightKerningGroup = D;
unicode = 1E0C;
},
{
glyphname = Dlinebelow;
lastChange = "2015-10-26 01:49:29 +0000";
layers = (
{
layerId = "DC57E17D-D7E6-498D-B8B0-08C45E75F177";
name = "Light Italic";
paths = (
{
closed = 1;
nodes = (
"274 0 LINE SMOOTH",
"461 0 OFFCURVE",
"562 127 OFFCURVE",
"608 350 CURVE SMOOTH",
"618 401 OFFCURVE",
"624 446 OFFCURVE",
"624 487 CURVE SMOOTH",
"624 624 OFFCURVE",
"561 700 OFFCURVE",
"417 700 CURVE SMOOTH",
"148 700 LINE",
"147 692 LINE",
"168 684 OFFCURVE",
"195 679 OFFCURVE",
"221 675 CURVE",
"88 24 LINE",
"50 20 OFFCURVE",
"26 14 OFFCURVE",
"7 8 CURVE",
"6 0 LINE"
);
},
{
closed = 1;
nodes = (
"355 -100 LINE",
"361 -74 LINE",
"79 -74 LINE",
"73 -100 LINE"
);
},
{
closed = 1;
nodes = (
"269 673 LINE",
"411 673 LINE SMOOTH",
"531 673 OFFCURVE",
"576 603 OFFCURVE",
"576 489 CURVE SMOOTH",
"576 448 OFFCURVE",
"570 401 OFFCURVE",
"560 350 CURVE SMOOTH",
"520 156 OFFCURVE",
"443 26 OFFCURVE",
"276 26 CURVE SMOOTH",
"136 26 LINE"
);
}
);
width = 612;
}
);
note = Dlinebelow;
rightKerningGroup = D;
unicode = 1E0E;
},
{
glyphname = E;
lastChange = "2015-10-26 01:49:28 +0000";
layers = (
{
layerId = "DC57E17D-D7E6-498D-B8B0-08C45E75F177";
name = "Light Italic";
paths = (
{
closed = 1;
nodes = (
"458 0 LINE",
"493 124 LINE",
"481 124 LINE",
"468 105 OFFCURVE",
"440 51 OFFCURVE",
"433 26 CURVE",
"137 26 LINE",
"202 341 LINE",
"424 341 LINE",
"423 331 OFFCURVE",
"422 313 OFFCURVE",
"422 295 CURVE SMOOTH",
"422 282 OFFCURVE",
"422 270 OFFCURVE",
"424 260 CURVE",
"434 260 LINE",
"472 449 LINE",
"463 449 LINE",
"449 427 OFFCURVE",
"436 386 OFFCURVE",
"430 368 CURVE",
"207 368 LINE",
"270 673 LINE",
"564 673 LINE",
"562 658 OFFCURVE",
"560 632 OFFCURVE",
"560 609 CURVE SMOOTH",
"560 595 OFFCURVE",
"561 582 OFFCURVE",
"563 575 CURVE",
"575 575 LINE",
"600 700 LINE",
"148 700 LINE",
"147 692 LINE",
"168 684 OFFCURVE",
"197 678 OFFCURVE",
"222 675 CURVE",
"89 24 LINE",
"51 20 OFFCURVE",
"26 14 OFFCURVE",
"7 8 CURVE",
"6 0 LINE"
);
}
);
width = 558;
}
);
note = E;
unicode = 0045;
},
{
glyphname = Eacute;
lastChange = "2015-10-26 01:49:28 +0000";
layers = (
{
layerId = "DC57E17D-D7E6-498D-B8B0-08C45E75F177";
name = "Light Italic";
paths = (
{
closed = 1;
nodes = (
"458 0 LINE",
"493 124 LINE",
"481 124 LINE",
"468 105 OFFCURVE",
"440 51 OFFCURVE",
"433 26 CURVE",
"137 26 LINE",
"202 341 LINE",
"424 341 LINE",
"423 331 OFFCURVE",
"422 313 OFFCURVE",
"422 295 CURVE SMOOTH",
"422 282 OFFCURVE",
"422 270 OFFCURVE",
"424 260 CURVE",
"434 260 LINE",
"472 449 LINE",
"463 449 LINE",
"449 427 OFFCURVE",
"436 386 OFFCURVE",
"430 368 CURVE",
"207 368 LINE",
"270 673 LINE",
"564 673 LINE",
"562 658 OFFCURVE",
"560 632 OFFCURVE",
"560 609 CURVE SMOOTH",
"560 595 OFFCURVE",
"561 582 OFFCURVE",
"563 575 CURVE",
"575 575 LINE",
"600 700 LINE",
"148 700 LINE",
"147 692 LINE",
"168 684 OFFCURVE",
"197 678 OFFCURVE",
"222 675 CURVE",
"89 24 LINE",
"51 20 OFFCURVE",
"26 14 OFFCURVE",
"7 8 CURVE",
"6 0 LINE"
);
},
{
closed = 1;
nodes = (
"479 862 LINE SMOOTH",
"496 871 OFFCURVE",
"506 884 OFFCURVE",
"506 895 CURVE SMOOTH",
"506 904 OFFCURVE",
"501 910 OFFCURVE",
"491 910 CURVE SMOOTH",
"477 910 OFFCURVE",
"465 901 OFFCURVE",
"457 894 CURVE",
"332 801 LINE",
"339 786 LINE"
);
}
);
width = 558;
}
);
note = Eacute;
unicode = 00C9;
},
{
glyphname = Ebreve;
lastChange = "2015-10-26 01:49:28 +0000";
layers = (
{
layerId = "DC57E17D-D7E6-498D-B8B0-08C45E75F177";
name = "Light Italic";
paths = (
{
closed = 1;
nodes = (
"458 0 LINE",
"493 124 LINE",
"481 124 LINE",
"468 105 OFFCURVE",
"440 51 OFFCURVE",
"433 26 CURVE",
"137 26 LINE",
"202 341 LINE",
"424 341 LINE",
"423 331 OFFCURVE",
"422 313 OFFCURVE",
"422 295 CURVE SMOOTH",
"422 282 OFFCURVE",
"422 270 OFFCURVE",
"424 260 CURVE",
"434 260 LINE",
"472 449 LINE",
"463 449 LINE",
"449 427 OFFCURVE",
"436 386 OFFCURVE",
"430 368 CURVE",
"207 368 LINE",
"270 673 LINE",
"564 673 LINE",
"562 658 OFFCURVE",
"560 632 OFFCURVE",
"560 609 CURVE SMOOTH",
"560 595 OFFCURVE",
"561 582 OFFCURVE",
"563 575 CURVE",
"575 575 LINE",
"600 700 LINE",
"148 700 LINE",
"147 692 LINE",
"168 684 OFFCURVE",
"197 678 OFFCURVE",
"222 675 CURVE",
"89 24 LINE",
"51 20 OFFCURVE",
"26 14 OFFCURVE",
"7 8 CURVE",
"6 0 LINE"
);
},
{
closed = 1;
nodes = (
"497 774 OFFCURVE",
"559 810 OFFCURVE",
"582 891 CURVE",
"547 891 LINE",
"522 813 OFFCURVE",
"470 801 OFFCURVE",
"431 801 CURVE SMOOTH",
"395 801 OFFCURVE",
"349 811 OFFCURVE",
"349 877 CURVE SMOOTH",
"349 881 OFFCURVE",
"350 886 OFFCURVE",
"350 891 CURVE",
"316 891 LINE",
"315 885 OFFCURVE",
"315 879 OFFCURVE",
"315 873 CURVE SMOOTH",
"315 805 OFFCURVE",
"358 774 OFFCURVE",
"425 774 CURVE SMOOTH"
);
}
);
width = 558;
}
);
note = Ebreve;
unicode = 0114;
},
{
glyphname = Ecaron;
lastChange = "2015-10-26 01:49:29 +0000";
layers = (
{
layerId = "DC57E17D-D7E6-498D-B8B0-08C45E75F177";
name = "Light Italic";
paths = (
{
closed = 1;
nodes = (
"458 0 LINE",
"493 124 LINE",
"481 124 LINE",
"468 105 OFFCURVE",
"440 51 OFFCURVE",
"433 26 CURVE",
"137 26 LINE",
"202 341 LINE",
"424 341 LINE",
"423 331 OFFCURVE",
"422 313 OFFCURVE",
"422 295 CURVE SMOOTH",
"422 282 OFFCURVE",
"422 270 OFFCURVE",
"424 260 CURVE",
"434 260 LINE",
"472 449 LINE",
"463 449 LINE",
"449 427 OFFCURVE",
"436 386 OFFCURVE",
"430 368 CURVE",
"207 368 LINE",
"270 673 LINE",
"564 673 LINE",
"562 658 OFFCURVE",
"560 632 OFFCURVE",
"560 609 CURVE SMOOTH",
"560 595 OFFCURVE",
"561 582 OFFCURVE",
"563 575 CURVE",
"575 575 LINE",
"600 700 LINE",
"148 700 LINE",
"147 692 LINE",
"168 684 OFFCURVE",
"197 678 OFFCURVE",
"222 675 CURVE",
"89 24 LINE",
"51 20 OFFCURVE",
"26 14 OFFCURVE",
"7 8 CURVE",
"6 0 LINE"
);
},
{
closed = 1;
nodes = (
"437 786 LINE",
"477 831 OFFCURVE",
"528 870 OFFCURVE",
"569 896 CURVE",
"554 919 LINE",
"515 893 OFFCURVE",
"469 858 OFFCURVE",
"435 823 CURVE",
"430 823 LINE",
"411 858 OFFCURVE",
"379 893 OFFCURVE",
"351 919 CURVE",
"326 896 LINE",
"356 870 OFFCURVE",
"392 831 OFFCURVE",
"415 786 CURVE"
);
}
);
width = 558;
}
);
note = Ecaron;
unicode = 011A;
},
{
glyphname = Ecircumflex;
lastChange = "2015-10-26 01:49:28 +0000";
layers = (
{
layerId = "DC57E17D-D7E6-498D-B8B0-08C45E75F177";
name = "Light Italic";
paths = (
{
closed = 1;
nodes = (
"458 0 LINE",
"493 124 LINE",
"481 124 LINE",
"468 105 OFFCURVE",
"440 51 OFFCURVE",
"433 26 CURVE",
"137 26 LINE",
"202 341 LINE",
"424 341 LINE",
"423 331 OFFCURVE",
"422 313 OFFCURVE",
"422 295 CURVE SMOOTH",
"422 282 OFFCURVE",
"422 270 OFFCURVE",
"424 260 CURVE",
"434 260 LINE",
"472 449 LINE",
"463 449 LINE",
"449 427 OFFCURVE",
"436 386 OFFCURVE",
"430 368 CURVE",
"207 368 LINE",
"270 673 LINE",
"564 673 LINE",
"562 658 OFFCURVE",
"560 632 OFFCURVE",
"560 609 CURVE SMOOTH",
"560 595 OFFCURVE",
"561 582 OFFCURVE",
"563 575 CURVE",
"575 575 LINE",
"600 700 LINE",
"148 700 LINE",
"147 692 LINE",
"168 684 OFFCURVE",
"197 678 OFFCURVE",
"222 675 CURVE",
"89 24 LINE",
"51 20 OFFCURVE",
"26 14 OFFCURVE",
"7 8 CURVE",
"6 0 LINE"
);
},
{
closed = 1;
nodes = (
"366 803 OFFCURVE",
"412 838 OFFCURVE",
"445 873 CURVE",
"450 873 LINE",
"470 838 OFFCURVE",
"501 803 OFFCURVE",
"530 778 CURVE",
"555 800 LINE",
"524 827 OFFCURVE",
"490 866 OFFCURVE",
"467 910 CURVE",
"444 910 LINE",
"404 866 OFFCURVE",
"352 827 OFFCURVE",
"312 800 CURVE",
"327 778 LINE"
);
}
);
width = 558;
}
);
note = Ecircumflex;
unicode = 00CA;
},
{
glyphname = Ecircumflexacute;
lastChange = "2015-10-26 01:49:29 +0000";
layers = (
{
layerId = "DC57E17D-D7E6-498D-B8B0-08C45E75F177";
name = "Light Italic";
paths = (
{
closed = 1;
nodes = (
"458 0 LINE",
"493 124 LINE",
"481 124 LINE",
"468 105 OFFCURVE",
"440 51 OFFCURVE",
"433 26 CURVE",
"137 26 LINE",
"202 341 LINE",
"424 341 LINE",
"423 331 OFFCURVE",
"422 313 OFFCURVE",
"422 295 CURVE SMOOTH",
"422 282 OFFCURVE",
"422 270 OFFCURVE",
"424 260 CURVE",
"434 260 LINE",
"472 449 LINE",
"463 449 LINE",
"449 427 OFFCURVE",
"436 386 OFFCURVE",
"430 368 CURVE",
"207 368 LINE",
"270 673 LINE",
"564 673 LINE",
"562 658 OFFCURVE",
"560 632 OFFCURVE",
"560 609 CURVE SMOOTH",
"560 595 OFFCURVE",
"561 582 OFFCURVE",
"563 575 CURVE",
"575 575 LINE",
"600 700 LINE",
"148 700 LINE",
"147 692 LINE",
"168 684 OFFCURVE",
"197 678 OFFCURVE",
"222 675 CURVE",
"89 24 LINE",
"51 20 OFFCURVE",
"26 14 OFFCURVE",
"7 8 CURVE",
"6 0 LINE"
);
},
{
closed = 1;
nodes = (
"369 803 OFFCURVE",
"414 838 OFFCURVE",
"447 873 CURVE",
"453 873 LINE",
"473 838 OFFCURVE",
"503 803 OFFCURVE",
"533 778 CURVE",
"558 800 LINE",
"527 827 OFFCURVE",
"492 866 OFFCURVE",
"469 910 CURVE",
"446 910 LINE",
"407 866 OFFCURVE",
"355 827 OFFCURVE",
"314 800 CURVE",
"330 778 LINE"
);
},
{
closed = 1;
nodes = (
"678 953 LINE",
"700 963 OFFCURVE",
"709 979 OFFCURVE",
"709 990 CURVE SMOOTH",
"709 998 OFFCURVE",
"705 1003 OFFCURVE",
"696 1003 CURVE SMOOTH",
"684 1003 OFFCURVE",
"670 996 OFFCURVE",
"657 984 CURVE",
"546 899 LINE",
"553 886 LINE"
);
}
);
width = 558;
}
);
note = Ecircumflexacute;
unicode = 1EBE;
},
{
glyphname = Ecircumflexdotbelow;
lastChange = "2015-10-26 01:49:30 +0000";
layers = (
{
layerId = "DC57E17D-D7E6-498D-B8B0-08C45E75F177";
name = "Light Italic";
paths = (
{
closed = 1;
nodes = (
"458 0 LINE",
"493 124 LINE",
"481 124 LINE",
"468 105 OFFCURVE",
"440 51 OFFCURVE",
"433 26 CURVE",
"137 26 LINE",
"202 341 LINE",
"424 341 LINE",
"423 331 OFFCURVE",
"422 313 OFFCURVE",
"422 295 CURVE SMOOTH",
"422 282 OFFCURVE",
"422 270 OFFCURVE",
"424 260 CURVE",
"434 260 LINE",
"472 449 LINE",
"463 449 LINE",
"449 427 OFFCURVE",
"436 386 OFFCURVE",
"430 368 CURVE",
"207 368 LINE",
"270 673 LINE",
"564 673 LINE",
"562 658 OFFCURVE",
"560 632 OFFCURVE",
"560 609 CURVE SMOOTH",
"560 595 OFFCURVE",
"561 582 OFFCURVE",
"563 575 CURVE",
"575 575 LINE",
"600 700 LINE",
"148 700 LINE",
"147 692 LINE",
"168 684 OFFCURVE",
"197 678 OFFCURVE",
"222 675 CURVE",
"89 24 LINE",
"51 20 OFFCURVE",
"26 14 OFFCURVE",
"7 8 CURVE",
"6 0 LINE"
);
},
{
closed = 1;
nodes = (
"265 -133 OFFCURVE",
"281 -120 OFFCURVE",
"286 -98 CURVE",
"287 -95 OFFCURVE",
"287 -92 OFFCURVE",
"287 -89 CURVE SMOOTH",
"287 -73 OFFCURVE",
"277 -63 OFFCURVE",
"261 -63 CURVE SMOOTH",
"242 -63 OFFCURVE",
"226 -76 OFFCURVE",
"222 -98 CURVE",
"221 -102 OFFCURVE",
"221 -105 OFFCURVE",
"221 -108 CURVE SMOOTH",
"221 -124 OFFCURVE",
"231 -133 OFFCURVE",
"247 -133 CURVE SMOOTH"
);
},
{
closed = 1;
nodes = (
"367 803 OFFCURVE",
"413 838 OFFCURVE",
"446 873 CURVE",
"451 873 LINE",
"471 838 OFFCURVE",
"502 803 OFFCURVE",
"531 778 CURVE",
"556 800 LINE",
"525 827 OFFCURVE",
"491 866 OFFCURVE",
"468 910 CURVE",
"445 910 LINE",
"405 866 OFFCURVE",
"353 827 OFFCURVE",
"313 800 CURVE",
"328 778 LINE"
);
}
);
width = 558;
}
);
note = Ecircumflexdotbelow;
unicode = 1EC6;
},
{
glyphname = Ecircumflexgrave;
lastChange = "2015-10-26 01:49:28 +0000";
layers = (
{
layerId = "DC57E17D-D7E6-498D-B8B0-08C45E75F177";
name = "Light Italic";
paths = (
{
closed = 1;
nodes = (
"458 0 LINE",
"493 124 LINE",
"481 124 LINE",
"468 105 OFFCURVE",
"440 51 OFFCURVE",
"433 26 CURVE",
"137 26 LINE",
"202 341 LINE",
"424 341 LINE",
"423 331 OFFCURVE",
"422 313 OFFCURVE",
"422 295 CURVE SMOOTH",
"422 282 OFFCURVE",
"422 270 OFFCURVE",
"424 260 CURVE",
"434 260 LINE",
"472 449 LINE",
"463 449 LINE",
"449 427 OFFCURVE",
"436 386 OFFCURVE",
"430 368 CURVE",
"207 368 LINE",
"270 673 LINE",
"564 673 LINE",
"562 658 OFFCURVE",
"560 632 OFFCURVE",
"560 609 CURVE SMOOTH",
"560 595 OFFCURVE",
"561 582 OFFCURVE",
"563 575 CURVE",
"575 575 LINE",
"600 700 LINE",
"148 700 LINE",
"147 692 LINE",
"168 684 OFFCURVE",
"197 678 OFFCURVE",
"222 675 CURVE",
"89 24 LINE",
"51 20 OFFCURVE",
"26 14 OFFCURVE",
"7 8 CURVE",
"6 0 LINE"
);
},
{
closed = 1;
nodes = (
"376 899 LINE",
"305 976 LINE SMOOTH",
"293 989 OFFCURVE",
"283 1003 OFFCURVE",
"269 1003 CURVE SMOOTH",
"255 1003 OFFCURVE",
"247 991 OFFCURVE",
"247 980 CURVE SMOOTH",
"247 968 OFFCURVE",
"257 958 OFFCURVE",
"274 947 CURVE SMOOTH",
"364 886 LINE"
);
},
{
closed = 1;
nodes = (
"369 803 OFFCURVE",
"414 838 OFFCURVE",
"447 873 CURVE",
"453 873 LINE",
"473 838 OFFCURVE",
"503 803 OFFCURVE",
"533 778 CURVE",
"558 800 LINE",
"527 827 OFFCURVE",
"492 866 OFFCURVE",
"469 910 CURVE",
"446 910 LINE",
"407 866 OFFCURVE",
"355 827 OFFCURVE",
"314 800 CURVE",
"330 778 LINE"
);
}
);
width = 558;
}
);
note = Ecircumflexgrave;
unicode = 1EC0;
},
{
glyphname = Ecircumflexhookabove;
lastChange = "2015-10-26 01:49:28 +0000";
layers = (
{
layerId = "DC57E17D-D7E6-498D-B8B0-08C45E75F177";
name = "Light Italic";
paths = (
{
closed = 1;
nodes = (
"458 0 LINE",
"493 124 LINE",
"481 124 LINE",
"468 105 OFFCURVE",
"440 51 OFFCURVE",
"433 26 CURVE",
"137 26 LINE",
"202 341 LINE",
"424 341 LINE",
"423 331 OFFCURVE",
"422 313 OFFCURVE",
"422 295 CURVE SMOOTH",
"422 282 OFFCURVE",
"422 270 OFFCURVE",
"424 260 CURVE",
"434 260 LINE",
"472 449 LINE",
"463 449 LINE",
"449 427 OFFCURVE",
"436 386 OFFCURVE",
"430 368 CURVE",
"207 368 LINE",
"270 673 LINE",
"564 673 LINE",
"562 658 OFFCURVE",
"560 632 OFFCURVE",
"560 609 CURVE SMOOTH",
"560 595 OFFCURVE",
"561 582 OFFCURVE",
"563 575 CURVE",
"575 575 LINE",
"600 700 LINE",
"148 700 LINE",
"147 692 LINE",
"168 684 OFFCURVE",
"197 678 OFFCURVE",
"222 675 CURVE",
"89 24 LINE",
"51 20 OFFCURVE",
"26 14 OFFCURVE",
"7 8 CURVE",
"6 0 LINE"
);
},
{
closed = 1;
nodes = (
"369 803 OFFCURVE",
"414 838 OFFCURVE",
"447 873 CURVE",
"453 873 LINE",
"473 838 OFFCURVE",
"503 803 OFFCURVE",
"533 778 CURVE",
"558 800 LINE",
"527 827 OFFCURVE",
"492 866 OFFCURVE",
"469 910 CURVE",
"446 910 LINE",
"407 866 OFFCURVE",
"355 827 OFFCURVE",
"314 800 CURVE",
"330 778 LINE"
);
},
{
closed = 1;
nodes = (
"562 867 LINE",
"579 916 LINE",
"621 921 OFFCURVE",
"646 939 OFFCURVE",
"654 975 CURVE SMOOTH",
"655 980 OFFCURVE",
"655 984 OFFCURVE",
"655 988 CURVE SMOOTH",
"655 1020 OFFCURVE",
"629 1033 OFFCURVE",
"598 1033 CURVE SMOOTH",
"576 1033 OFFCURVE",
"555 1026 OFFCURVE",
"540 1019 CURVE",
"540 999 LINE",
"559 1008 OFFCURVE",
"573 1011 OFFCURVE",
"586 1011 CURVE SMOOTH",
"616 1011 OFFCURVE",
"628 997 OFFCURVE",
"624 976 CURVE SMOOTH",
"619 953 OFFCURVE",
"601 934 OFFCURVE",
"563 934 CURVE SMOOTH",
"550 934 LINE",
"541 867 LINE"
);
}
);
width = 558;
}
);
note = Ecircumflexhookabove;
unicode = 1EC2;
},
{
glyphname = Ecircumflextilde;
lastChange = "2015-10-26 01:49:29 +0000";
layers = (
{
layerId = "DC57E17D-D7E6-498D-B8B0-08C45E75F177";
name = "Light Italic";
paths = (
{
closed = 1;
nodes = (
"458 0 LINE",
"493 124 LINE",
"481 124 LINE",
"468 105 OFFCURVE",
"440 51 OFFCURVE",
"433 26 CURVE",
"137 26 LINE",
"202 341 LINE",
"424 341 LINE",
"423 331 OFFCURVE",
"422 313 OFFCURVE",
"422 295 CURVE SMOOTH",
"422 282 OFFCURVE",
"422 270 OFFCURVE",
"424 260 CURVE",
"434 260 LINE",
"472 449 LINE",
"463 449 LINE",
"449 427 OFFCURVE",
"436 386 OFFCURVE",
"430 368 CURVE",
"207 368 LINE",
"270 673 LINE",
"564 673 LINE",
"562 658 OFFCURVE",
"560 632 OFFCURVE",
"560 609 CURVE SMOOTH",
"560 595 OFFCURVE",
"561 582 OFFCURVE",
"563 575 CURVE",
"575 575 LINE",
"600 700 LINE",
"148 700 LINE",
"147 692 LINE",
"168 684 OFFCURVE",
"197 678 OFFCURVE",
"222 675 CURVE",
"89 24 LINE",
"51 20 OFFCURVE",
"26 14 OFFCURVE",
"7 8 CURVE",
"6 0 LINE"
);
},
{
closed = 1;
nodes = (
"369 803 OFFCURVE",
"414 838 OFFCURVE",
"447 873 CURVE",
"453 873 LINE",
"473 838 OFFCURVE",
"503 803 OFFCURVE",
"533 778 CURVE",
"558 800 LINE",
"527 827 OFFCURVE",
"492 866 OFFCURVE",
"469 910 CURVE",
"446 910 LINE",
"407 866 OFFCURVE",
"355 827 OFFCURVE",
"314 800 CURVE",
"330 778 LINE"
);
},
{
closed = 1;
nodes = (
"346 943 LINE",
"362 980 OFFCURVE",
"386 1003 OFFCURVE",
"415 1003 CURVE SMOOTH",
"453 1003 OFFCURVE",
"486 944 OFFCURVE",
"526 944 CURVE SMOOTH",
"567 944 OFFCURVE",
"600 981 OFFCURVE",
"619 1039 CURVE",
"603 1039 LINE",
"587 998 OFFCURVE",
"564 975 OFFCURVE",
"535 975 CURVE SMOOTH",
"497 975 OFFCURVE",
"466 1033 OFFCURVE",
"422 1033 CURVE SMOOTH",
"385 1033 OFFCURVE",
"349 1006 OFFCURVE",
"329 943 CURVE"
);
}
);
width = 558;
}
);
note = Ecircumflextilde;
unicode = 1EC4;
},
{
glyphname = Edieresis;
lastChange = "2015-10-26 01:49:28 +0000";
layers = (
{
layerId = "DC57E17D-D7E6-498D-B8B0-08C45E75F177";
name = "Light Italic";
paths = (
{
closed = 1;
nodes = (
"458 0 LINE",
"493 124 LINE",
"481 124 LINE",
"468 105 OFFCURVE",
"440 51 OFFCURVE",
"433 26 CURVE",
"137 26 LINE",
"202 341 LINE",
"424 341 LINE",
"423 331 OFFCURVE",
"422 313 OFFCURVE",
"422 295 CURVE SMOOTH",
"422 282 OFFCURVE",
"422 270 OFFCURVE",
"424 260 CURVE",
"434 260 LINE",
"472 449 LINE",
"463 449 LINE",
"449 427 OFFCURVE",
"436 386 OFFCURVE",
"430 368 CURVE",
"207 368 LINE",
"270 673 LINE",
"564 673 LINE",
"562 658 OFFCURVE",
"560 632 OFFCURVE",
"560 609 CURVE SMOOTH",
"560 595 OFFCURVE",
"561 582 OFFCURVE",
"563 575 CURVE",
"575 575 LINE",
"600 700 LINE",
"148 700 LINE",
"147 692 LINE",
"168 684 OFFCURVE",
"197 678 OFFCURVE",
"222 675 CURVE",
"89 24 LINE",
"51 20 OFFCURVE",
"26 14 OFFCURVE",
"7 8 CURVE",
"6 0 LINE"
);
},
{
closed = 1;
nodes = (
"346 785 OFFCURVE",
"362 798 OFFCURVE",
"367 820 CURVE SMOOTH",
"368 823 OFFCURVE",
"368 827 OFFCURVE",
"368 830 CURVE SMOOTH",
"368 846 OFFCURVE",
"357 855 OFFCURVE",
"341 855 CURVE SMOOTH",
"323 855 OFFCURVE",
"308 842 OFFCURVE",
"303 820 CURVE SMOOTH",
"302 817 OFFCURVE",
"302 813 OFFCURVE",
"302 810 CURVE SMOOTH",
"302 794 OFFCURVE",
"311 785 OFFCURVE",
"326 785 CURVE SMOOTH"
);
},
{
closed = 1;
nodes = (
"546 785 OFFCURVE",
"565 802 OFFCURVE",
"565 830 CURVE SMOOTH",
"565 846 OFFCURVE",
"555 855 OFFCURVE",
"540 855 CURVE SMOOTH",
"520 855 OFFCURVE",
"505 842 OFFCURVE",
"500 820 CURVE SMOOTH",
"499 816 OFFCURVE",
"499 813 OFFCURVE",
"499 810 CURVE SMOOTH",
"499 794 OFFCURVE",
"509 785 OFFCURVE",
"525 785 CURVE SMOOTH"
);
}
);
width = 558;
}
);
note = Edieresis;
unicode = 00CB;
},
{
glyphname = Edotaccent;
lastChange = "2015-10-26 01:49:30 +0000";
layers = (
{
layerId = "DC57E17D-D7E6-498D-B8B0-08C45E75F177";
name = "Light Italic";
paths = (
{
closed = 1;
nodes = (
"458 0 LINE",
"493 124 LINE",
"481 124 LINE",
"468 105 OFFCURVE",
"440 51 OFFCURVE",
"433 26 CURVE",
"137 26 LINE",
"202 341 LINE",
"424 341 LINE",
"423 331 OFFCURVE",
"422 313 OFFCURVE",
"422 295 CURVE SMOOTH",
"422 282 OFFCURVE",
"422 270 OFFCURVE",
"424 260 CURVE",
"434 260 LINE",
"472 449 LINE",
"463 449 LINE",
"449 427 OFFCURVE",
"436 386 OFFCURVE",
"430 368 CURVE",
"207 368 LINE",
"270 673 LINE",
"564 673 LINE",
"562 658 OFFCURVE",
"560 632 OFFCURVE",
"560 609 CURVE SMOOTH",
"560 595 OFFCURVE",
"561 582 OFFCURVE",
"563 575 CURVE",
"575 575 LINE",
"600 700 LINE",
"148 700 LINE",
"147 692 LINE",
"168 684 OFFCURVE",
"197 678 OFFCURVE",
"222 675 CURVE",
"89 24 LINE",
"51 20 OFFCURVE",
"26 14 OFFCURVE",
"7 8 CURVE",
"6 0 LINE"
);
},
{
closed = 1;
nodes = (
"453 785 OFFCURVE",
"472 802 OFFCURVE",
"472 830 CURVE SMOOTH",
"472 846 OFFCURVE",
"462 855 OFFCURVE",
"446 855 CURVE SMOOTH",
"427 855 OFFCURVE",
"412 842 OFFCURVE",
"407 820 CURVE SMOOTH",
"406 816 OFFCURVE",
"406 813 OFFCURVE",
"406 810 CURVE SMOOTH",
"406 794 OFFCURVE",
"416 785 OFFCURVE",
"432 785 CURVE SMOOTH"
);
}
);
width = 558;
}
);
note = Edotaccent;
unicode = 0116;
},
{
glyphname = Edotbelow;
lastChange = "2015-10-26 01:49:29 +0000";
layers = (
{
layerId = "DC57E17D-D7E6-498D-B8B0-08C45E75F177";
name = "Light Italic";
paths = (
{
closed = 1;
nodes = (
"458 0 LINE",
"493 124 LINE",
"481 124 LINE",
"468 105 OFFCURVE",
"440 51 OFFCURVE",
"433 26 CURVE",
"137 26 LINE",
"202 341 LINE",
"424 341 LINE",
"423 331 OFFCURVE",
"422 313 OFFCURVE",
"422 295 CURVE SMOOTH",
"422 282 OFFCURVE",
"422 270 OFFCURVE",
"424 260 CURVE",
"434 260 LINE",
"472 449 LINE",
"463 449 LINE",
"449 427 OFFCURVE",
"436 386 OFFCURVE",
"430 368 CURVE",
"207 368 LINE",
"270 673 LINE",
"564 673 LINE",
"562 658 OFFCURVE",
"560 632 OFFCURVE",
"560 609 CURVE SMOOTH",
"560 595 OFFCURVE",
"561 582 OFFCURVE",
"563 575 CURVE",
"575 575 LINE",
"600 700 LINE",
"148 700 LINE",
"147 692 LINE",
"168 684 OFFCURVE",
"197 678 OFFCURVE",
"222 675 CURVE",
"89 24 LINE",
"51 20 OFFCURVE",
"26 14 OFFCURVE",
"7 8 CURVE",
"6 0 LINE"
);
},
{
closed = 1;
nodes = (
"243 -133 OFFCURVE",
"259 -120 OFFCURVE",
"264 -98 CURVE",
"265 -95 OFFCURVE",
"265 -92 OFFCURVE",
"265 -89 CURVE SMOOTH",
"265 -73 OFFCURVE",
"255 -63 OFFCURVE",
"239 -63 CURVE SMOOTH",
"220 -63 OFFCURVE",
"204 -76 OFFCURVE",
"200 -98 CURVE",
"199 -102 OFFCURVE",
"199 -105 OFFCURVE",
"199 -109 CURVE SMOOTH",
"199 -124 OFFCURVE",
"208 -133 OFFCURVE",
"225 -133 CURVE SMOOTH"
);
}
);
width = 558;
}
);
note = Edotbelow;
unicode = 1EB8;
},
{
glyphname = Egrave;
lastChange = "2015-10-26 01:49:28 +0000";
layers = (
{
layerId = "DC57E17D-D7E6-498D-B8B0-08C45E75F177";
name = "Light Italic";
paths = (
{
closed = 1;
nodes = (
"458 0 LINE",
"493 124 LINE",
"481 124 LINE",
"468 105 OFFCURVE",
"440 51 OFFCURVE",
"433 26 CURVE",
"137 26 LINE",
"202 341 LINE",
"424 341 LINE",
"423 331 OFFCURVE",
"422 313 OFFCURVE",
"422 295 CURVE SMOOTH",
"422 282 OFFCURVE",
"422 270 OFFCURVE",
"424 260 CURVE",
"434 260 LINE",
"472 449 LINE",
"463 449 LINE",
"449 427 OFFCURVE",
"436 386 OFFCURVE",
"430 368 CURVE",
"207 368 LINE",
"270 673 LINE",
"564 673 LINE",
"562 658 OFFCURVE",
"560 632 OFFCURVE",
"560 609 CURVE SMOOTH",
"560 595 OFFCURVE",
"561 582 OFFCURVE",
"563 575 CURVE",
"575 575 LINE",
"600 700 LINE",
"148 700 LINE",
"147 692 LINE",
"168 684 OFFCURVE",
"197 678 OFFCURVE",
"222 675 CURVE",
"89 24 LINE",
"51 20 OFFCURVE",
"26 14 OFFCURVE",
"7 8 CURVE",
"6 0 LINE"
);
},
{
closed = 1;
nodes = (
"510 801 LINE",
"423 894 LINE",
"417 903 OFFCURVE",
"408 910 OFFCURVE",
"396 910 CURVE SMOOTH",
"383 910 OFFCURVE",
"372 900 OFFCURVE",
"372 888 CURVE SMOOTH",
"372 879 OFFCURVE",
"376 869 OFFCURVE",
"388 862 CURVE",
"497 786 LINE"
);
}
);
width = 558;
}
);
note = Egrave;
unicode = 00C8;
},
{
glyphname = Ehookabove;
lastChange = "2015-10-26 01:49:29 +0000";
layers = (
{
layerId = "DC57E17D-D7E6-498D-B8B0-08C45E75F177";
name = "Light Italic";
paths = (
{
closed = 1;
nodes = (
"458 0 LINE",
"493 124 LINE",
"481 124 LINE",
"468 105 OFFCURVE",
"440 51 OFFCURVE",
"433 26 CURVE",
"137 26 LINE",
"202 341 LINE",
"424 341 LINE",
"423 331 OFFCURVE",
"422 313 OFFCURVE",
"422 295 CURVE SMOOTH",
"422 282 OFFCURVE",
"422 270 OFFCURVE",
"424 260 CURVE",
"434 260 LINE",
"472 449 LINE",
"463 449 LINE",
"449 427 OFFCURVE",
"436 386 OFFCURVE",
"430 368 CURVE",
"207 368 LINE",
"270 673 LINE",
"564 673 LINE",
"562 658 OFFCURVE",
"560 632 OFFCURVE",
"560 609 CURVE SMOOTH",
"560 595 OFFCURVE",
"561 582 OFFCURVE",
"563 575 CURVE",
"575 575 LINE",
"600 700 LINE",
"148 700 LINE",
"147 692 LINE",
"168 684 OFFCURVE",
"197 678 OFFCURVE",
"222 675 CURVE",
"89 24 LINE",
"51 20 OFFCURVE",
"26 14 OFFCURVE",
"7 8 CURVE",
"6 0 LINE"
);
},
{
closed = 1;
nodes = (
"436 777 LINE",
"459 838 LINE",
"509 843 OFFCURVE",
"538 869 OFFCURVE",
"546 908 CURVE SMOOTH",
"547 914 OFFCURVE",
"548 919 OFFCURVE",
"548 924 CURVE SMOOTH",
"548 961 OFFCURVE",
"518 978 OFFCURVE",
"481 978 CURVE SMOOTH",
"454 978 OFFCURVE",
"427 970 OFFCURVE",
"409 962 CURVE",
"411 938 LINE",
"432 949 OFFCURVE",
"452 954 OFFCURVE",
"468 954 CURVE SMOOTH",
"500 954 OFFCURVE",
"515 939 OFFCURVE",
"515 918 CURVE SMOOTH",
"515 915 OFFCURVE",
"514 913 OFFCURVE",
"514 910 CURVE SMOOTH",
"508 883 OFFCURVE",
"486 858 OFFCURVE",
"440 858 CURVE SMOOTH",
"425 858 LINE",
"414 777 LINE"
);
}
);
width = 558;
}
);
note = Ehookabove;
unicode = 1EBA;
},
{
glyphname = Emacron;
lastChange = "2015-10-26 01:49:30 +0000";
layers = (
{
layerId = "DC57E17D-D7E6-498D-B8B0-08C45E75F177";
name = "Light Italic";
paths = (
{
closed = 1;
nodes = (
"458 0 LINE",
"493 124 LINE",
"481 124 LINE",
"468 105 OFFCURVE",
"440 51 OFFCURVE",
"433 26 CURVE",
"137 26 LINE",
"202 341 LINE",
"424 341 LINE",
"423 331 OFFCURVE",
"422 313 OFFCURVE",
"422 295 CURVE SMOOTH",
"422 282 OFFCURVE",
"422 270 OFFCURVE",
"424 260 CURVE",
"434 260 LINE",
"472 449 LINE",
"463 449 LINE",
"449 427 OFFCURVE",
"436 386 OFFCURVE",
"430 368 CURVE",
"207 368 LINE",
"270 673 LINE",
"564 673 LINE",
"562 658 OFFCURVE",
"560 632 OFFCURVE",
"560 609 CURVE SMOOTH",
"560 595 OFFCURVE",
"561 582 OFFCURVE",
"563 575 CURVE",
"575 575 LINE",
"600 700 LINE",
"148 700 LINE",
"147 692 LINE",
"168 684 OFFCURVE",
"197 678 OFFCURVE",
"222 675 CURVE",
"89 24 LINE",
"51 20 OFFCURVE",
"26 14 OFFCURVE",
"7 8 CURVE",
"6 0 LINE"
);
},
{
closed = 1;
nodes = (
"565 784 LINE",
"570 811 LINE",
"288 811 LINE",
"283 784 LINE"
);
}
);
width = 558;
}
);
note = Emacron;
unicode = 0112;
},
{
glyphname = Eogonek;
lastChange = "2015-10-26 01:49:28 +0000";
layers = (
{
layerId = "DC57E17D-D7E6-498D-B8B0-08C45E75F177";
name = "Light Italic";
paths = (
{
closed = 1;
nodes = (
"458 0 LINE",
"493 124 LINE",
"481 124 LINE",
"468 105 OFFCURVE",
"440 51 OFFCURVE",
"433 26 CURVE",
"137 26 LINE",
"202 341 LINE",
"424 341 LINE",
"423 331 OFFCURVE",
"422 313 OFFCURVE",
"422 295 CURVE SMOOTH",
"422 282 OFFCURVE",
"422 270 OFFCURVE",
"424 260 CURVE",
"434 260 LINE",
"472 449 LINE",
"463 449 LINE",
"449 427 OFFCURVE",
"436 386 OFFCURVE",
"430 368 CURVE",
"207 368 LINE",
"270 673 LINE",
"564 673 LINE",
"562 658 OFFCURVE",
"560 632 OFFCURVE",
"560 609 CURVE SMOOTH",
"560 595 OFFCURVE",
"561 582 OFFCURVE",
"563 575 CURVE",
"575 575 LINE",
"600 700 LINE",
"148 700 LINE",
"147 692 LINE",
"168 684 OFFCURVE",
"197 678 OFFCURVE",
"222 675 CURVE",
"89 24 LINE",
"51 20 OFFCURVE",
"26 14 OFFCURVE",
"7 8 CURVE",
"6 0 LINE"
);
},
{
closed = 1;
nodes = (
"396 -175 OFFCURVE",
"415 -171 OFFCURVE",
"438 -163 CURVE",
"443 -137 LINE",
"427 -143 OFFCURVE",
"411 -146 OFFCURVE",
"397 -146 CURVE SMOOTH",
"370 -146 OFFCURVE",
"348 -135 OFFCURVE",
"348 -108 CURVE SMOOTH",
"348 -65 OFFCURVE",
"390 -22 OFFCURVE",
"436 0 CURVE",
"403 0 LINE",
"354 -20 OFFCURVE",
"319 -57 OFFCURVE",
"310 -101 CURVE SMOOTH",
"309 -106 OFFCURVE",
"309 -111 OFFCURVE",
"309 -116 CURVE SMOOTH",
"309 -145 OFFCURVE",
"328 -175 OFFCURVE",
"374 -175 CURVE SMOOTH"
);
}
);
width = 558;
}
);
note = Eogonek;
unicode = 0118;
},
{
glyphname = Etilde;
lastChange = "2015-10-26 01:49:28 +0000";
layers = (
{
layerId = "DC57E17D-D7E6-498D-B8B0-08C45E75F177";
name = "Light Italic";
paths = (
{
closed = 1;
nodes = (
"458 0 LINE",
"493 124 LINE",
"481 124 LINE",
"468 105 OFFCURVE",
"440 51 OFFCURVE",
"433 26 CURVE",
"137 26 LINE",
"202 341 LINE",
"424 341 LINE",
"423 331 OFFCURVE",
"422 313 OFFCURVE",
"422 295 CURVE SMOOTH",
"422 282 OFFCURVE",
"422 270 OFFCURVE",
"424 260 CURVE",
"434 260 LINE",
"472 449 LINE",
"463 449 LINE",
"449 427 OFFCURVE",
"436 386 OFFCURVE",
"430 368 CURVE",
"207 368 LINE",
"270 673 LINE",
"564 673 LINE",
"562 658 OFFCURVE",
"560 632 OFFCURVE",
"560 609 CURVE SMOOTH",
"560 595 OFFCURVE",
"561 582 OFFCURVE",
"563 575 CURVE",
"575 575 LINE",
"600 700 LINE",
"148 700 LINE",
"147 692 LINE",
"168 684 OFFCURVE",
"197 678 OFFCURVE",
"222 675 CURVE",
"89 24 LINE",
"51 20 OFFCURVE",
"26 14 OFFCURVE",
"7 8 CURVE",
"6 0 LINE"
);
},
{
closed = 1;
nodes = (
"296 785 LINE",
"311 822 OFFCURVE",
"337 845 OFFCURVE",
"367 845 CURVE SMOOTH",
"407 845 OFFCURVE",
"443 786 OFFCURVE",
"486 786 CURVE SMOOTH",
"530 786 OFFCURVE",
"564 823 OFFCURVE",
"584 881 CURVE",
"567 881 LINE",
"549 840 OFFCURVE",
"525 817 OFFCURVE",
"493 817 CURVE SMOOTH",
"454 817 OFFCURVE",
"421 875 OFFCURVE",
"375 875 CURVE SMOOTH",
"335 875 OFFCURVE",
"299 848 OFFCURVE",
"278 785 CURVE"
);
}
);
width = 558;
}
);
note = Etilde;
unicode = 1EBC;
},
{
glyphname = F;
lastChange = "2015-10-26 01:49:28 +0000";
layers = (
{
layerId = "DC57E17D-D7E6-498D-B8B0-08C45E75F177";
name = "Light Italic";
paths = (
{
closed = 1;
nodes = (
"211 0 LINE",
"212 7 LINE",
"191 15 OFFCURVE",
"163 20 OFFCURVE",
"137 24 CURVE",
"270 673 LINE",
"562 673 LINE",
"559 658 OFFCURVE",
"557 631 OFFCURVE",
"557 608 CURVE SMOOTH",
"557 594 OFFCURVE",
"558 582 OFFCURVE",
"560 575 CURVE",
"572 575 LINE",
"597 700 LINE",
"148 700 LINE",
"147 692 LINE",
"168 684 OFFCURVE",
"197 679 OFFCURVE",
"222 675 CURVE",
"89 24 LINE",
"50 20 OFFCURVE",
"26 14 OFFCURVE",
"7 8 CURVE",
"6 0 LINE"
);
},
{
closed = 1;
nodes = (
"434 260 LINE",
"472 449 LINE",
"463 449 LINE",
"449 427 OFFCURVE",
"436 386 OFFCURVE",
"430 368 CURVE",
"181 368 LINE",
"176 341 LINE",
"424 341 LINE",
"423 331 OFFCURVE",
"422 313 OFFCURVE",
"422 295 CURVE SMOOTH",
"422 282 OFFCURVE",
"422 270 OFFCURVE",
"424 260 CURVE"
);
}
);
width = 520;
}
);
note = F;
unicode = 0046;
},
{
glyphname = G;
lastChange = "2015-10-26 01:49:28 +0000";
layers = (
{
layerId = "DC57E17D-D7E6-498D-B8B0-08C45E75F177";
name = "Light Italic";
paths = (
{
closed = 1;
nodes = (
"360 -10 OFFCURVE",
"448 10 OFFCURVE",
"504 50 CURVE",
"558 313 LINE",
"594 317 OFFCURVE",
"613 324 OFFCURVE",
"630 331 CURVE",
"631 338 LINE",
"440 338 LINE",
"439 331 LINE",
"460 324 OFFCURVE",
"486 318 OFFCURVE",
"513 313 CURVE",
"460 55 LINE",
"409 28 OFFCURVE",
"340 17 OFFCURVE",
"304 17 CURVE SMOOTH",
"157 17 OFFCURVE",
"105 104 OFFCURVE",
"105 228 CURVE SMOOTH",
"105 266 OFFCURVE",
"109 307 OFFCURVE",
"118 350 CURVE SMOOTH",
"156 536 OFFCURVE",
"263 683 OFFCURVE",
"449 683 CURVE SMOOTH",
"507 683 OFFCURVE",
"582 661 OFFCURVE",
"601 640 CURVE",
"599 620 OFFCURVE",
"594 587 OFFCURVE",
"594 562 CURVE SMOOTH",
"594 554 OFFCURVE",
"595 547 OFFCURVE",
"596 541 CURVE",
"610 541 LINE",
"638 647 LINE",
"605 685 OFFCURVE",
"517 710 OFFCURVE",
"442 710 CURVE SMOOTH",
"254 710 OFFCURVE",
"115 572 OFFCURVE",
"70 350 CURVE SMOOTH",
"61 306 OFFCURVE",
"56 265 OFFCURVE",
"56 229 CURVE SMOOTH",
"56 78 OFFCURVE",
"132 -10 OFFCURVE",
"287 -10 CURVE SMOOTH"
);
}
);
width = 612;
}
);
leftKerningGroup = G;
note = G;
unicode = 0047;
},
{
glyphname = Gbreve;
lastChange = "2015-10-26 01:49:29 +0000";
layers = (
{
layerId = "DC57E17D-D7E6-498D-B8B0-08C45E75F177";
name = "Light Italic";
paths = (
{
closed = 1;
nodes = (
"360 -10 OFFCURVE",
"448 10 OFFCURVE",
"504 50 CURVE",
"558 313 LINE",
"594 317 OFFCURVE",
"613 324 OFFCURVE",
"630 331 CURVE",
"631 338 LINE",
"440 338 LINE",
"439 331 LINE",
"460 324 OFFCURVE",
"486 318 OFFCURVE",
"513 313 CURVE",
"460 55 LINE",
"409 28 OFFCURVE",
"340 17 OFFCURVE",
"304 17 CURVE SMOOTH",
"157 17 OFFCURVE",
"105 104 OFFCURVE",
"105 228 CURVE SMOOTH",
"105 266 OFFCURVE",
"109 307 OFFCURVE",
"118 350 CURVE SMOOTH",
"156 536 OFFCURVE",
"263 683 OFFCURVE",
"449 683 CURVE SMOOTH",
"507 683 OFFCURVE",
"582 661 OFFCURVE",
"601 640 CURVE",
"599 620 OFFCURVE",
"594 587 OFFCURVE",
"594 562 CURVE SMOOTH",
"594 554 OFFCURVE",
"595 547 OFFCURVE",
"596 541 CURVE",
"610 541 LINE",
"638 647 LINE",
"605 685 OFFCURVE",
"517 710 OFFCURVE",
"442 710 CURVE SMOOTH",
"254 710 OFFCURVE",
"115 572 OFFCURVE",
"70 350 CURVE SMOOTH",
"61 306 OFFCURVE",
"56 265 OFFCURVE",
"56 229 CURVE SMOOTH",
"56 78 OFFCURVE",
"132 -10 OFFCURVE",
"287 -10 CURVE SMOOTH"
);
},
{
closed = 1;
nodes = (
"525 774 OFFCURVE",
"587 810 OFFCURVE",
"610 891 CURVE",
"575 891 LINE",
"550 813 OFFCURVE",
"498 801 OFFCURVE",
"459 801 CURVE SMOOTH",
"423 801 OFFCURVE",
"377 811 OFFCURVE",
"377 877 CURVE SMOOTH",
"377 881 OFFCURVE",
"378 886 OFFCURVE",
"378 891 CURVE",
"344 891 LINE",
"343 885 OFFCURVE",
"343 879 OFFCURVE",
"343 873 CURVE SMOOTH",
"343 805 OFFCURVE",
"386 774 OFFCURVE",
"453 774 CURVE SMOOTH"
);
}
);
width = 612;
}
);
leftKerningGroup = G;
note = Gbreve;
unicode = 011E;
},
{
glyphname = Gcaron;
lastChange = "2015-10-26 01:49:28 +0000";
layers = (
{
layerId = "DC57E17D-D7E6-498D-B8B0-08C45E75F177";
name = "Light Italic";
paths = (
{
closed = 1;
nodes = (
"360 -10 OFFCURVE",
"448 10 OFFCURVE",
"504 50 CURVE",
"558 313 LINE",
"594 317 OFFCURVE",
"613 324 OFFCURVE",
"630 331 CURVE",
"631 338 LINE",
"440 338 LINE",
"439 331 LINE",
"460 324 OFFCURVE",
"486 318 OFFCURVE",
"513 313 CURVE",
"460 55 LINE",
"409 28 OFFCURVE",
"340 17 OFFCURVE",
"304 17 CURVE SMOOTH",
"157 17 OFFCURVE",
"105 104 OFFCURVE",
"105 228 CURVE SMOOTH",
"105 266 OFFCURVE",
"109 307 OFFCURVE",
"118 350 CURVE SMOOTH",
"156 536 OFFCURVE",
"263 683 OFFCURVE",
"449 683 CURVE SMOOTH",
"507 683 OFFCURVE",
"582 661 OFFCURVE",
"601 640 CURVE",
"599 620 OFFCURVE",
"594 587 OFFCURVE",
"594 562 CURVE SMOOTH",
"594 554 OFFCURVE",
"595 547 OFFCURVE",
"596 541 CURVE",
"610 541 LINE",
"638 647 LINE",
"605 685 OFFCURVE",
"517 710 OFFCURVE",
"442 710 CURVE SMOOTH",
"254 710 OFFCURVE",
"115 572 OFFCURVE",
"70 350 CURVE SMOOTH",
"61 306 OFFCURVE",
"56 265 OFFCURVE",
"56 229 CURVE SMOOTH",
"56 78 OFFCURVE",
"132 -10 OFFCURVE",
"287 -10 CURVE SMOOTH"
);
},
{
closed = 1;
nodes = (
"468 802 LINE",
"509 847 OFFCURVE",
"560 886 OFFCURVE",
"601 912 CURVE",
"586 935 LINE",
"546 909 OFFCURVE",
"501 874 OFFCURVE",
"467 839 CURVE",
"462 839 LINE",
"443 874 OFFCURVE",
"411 909 OFFCURVE",
"383 935 CURVE",
"358 912 LINE",
"388 886 OFFCURVE",
"423 847 OFFCURVE",
"446 802 CURVE"
);
}
);
width = 612;
}
);
leftKerningGroup = G;
note = Gcaron;
unicode = 01E6;
},
{
glyphname = Gcircumflex;
lastChange = "2015-10-26 01:49:29 +0000";
layers = (
{
layerId = "DC57E17D-D7E6-498D-B8B0-08C45E75F177";
name = "Light Italic";
paths = (
{
closed = 1;
nodes = (
"360 -10 OFFCURVE",
"448 10 OFFCURVE",
"504 50 CURVE",
"558 313 LINE",
"594 317 OFFCURVE",
"613 324 OFFCURVE",
"630 331 CURVE",
"631 338 LINE",
"440 338 LINE",
"439 331 LINE",
"460 324 OFFCURVE",
"486 318 OFFCURVE",
"513 313 CURVE",
"460 55 LINE",
"409 28 OFFCURVE",
"340 17 OFFCURVE",
"304 17 CURVE SMOOTH",
"157 17 OFFCURVE",
"105 104 OFFCURVE",
"105 228 CURVE SMOOTH",
"105 266 OFFCURVE",
"109 307 OFFCURVE",
"118 350 CURVE SMOOTH",
"156 536 OFFCURVE",
"263 683 OFFCURVE",
"449 683 CURVE SMOOTH",
"507 683 OFFCURVE",
"582 661 OFFCURVE",
"601 640 CURVE",
"599 620 OFFCURVE",
"594 587 OFFCURVE",
"594 562 CURVE SMOOTH",
"594 554 OFFCURVE",
"595 547 OFFCURVE",
"596 541 CURVE",
"610 541 LINE",
"638 647 LINE",
"605 685 OFFCURVE",
"517 710 OFFCURVE",
"442 710 CURVE SMOOTH",
"254 710 OFFCURVE",
"115 572 OFFCURVE",
"70 350 CURVE SMOOTH",
"61 306 OFFCURVE",
"56 265 OFFCURVE",
"56 229 CURVE SMOOTH",
"56 78 OFFCURVE",
"132 -10 OFFCURVE",
"287 -10 CURVE SMOOTH"
);
},
{
closed = 1;
nodes = (
"405 803 OFFCURVE",
"451 838 OFFCURVE",
"485 873 CURVE",
"490 873 LINE",
"510 838 OFFCURVE",
"540 803 OFFCURVE",
"569 778 CURVE",
"594 800 LINE",
"564 827 OFFCURVE",
"529 866 OFFCURVE",
"506 910 CURVE",
"484 910 LINE",
"444 866 OFFCURVE",
"392 827 OFFCURVE",
"351 800 CURVE",
"367 778 LINE"
);
}
);
width = 612;
}
);
leftKerningGroup = G;
note = Gcircumflex;
unicode = 011C;
},
{
glyphname = Gcommaaccent;
lastChange = "2015-10-26 01:49:29 +0000";
layers = (
{
layerId = "DC57E17D-D7E6-498D-B8B0-08C45E75F177";
name = "Light Italic";
paths = (
{
closed = 1;
nodes = (
"360 -10 OFFCURVE",
"448 10 OFFCURVE",
"504 50 CURVE",
"558 313 LINE",
"594 317 OFFCURVE",
"613 324 OFFCURVE",
"630 331 CURVE",
"631 338 LINE",
"440 338 LINE",
"439 331 LINE",
"460 324 OFFCURVE",
"486 318 OFFCURVE",
"513 313 CURVE",
"460 55 LINE",
"409 28 OFFCURVE",
"340 17 OFFCURVE",
"304 17 CURVE SMOOTH",
"157 17 OFFCURVE",
"105 104 OFFCURVE",
"105 228 CURVE SMOOTH",
"105 266 OFFCURVE",
"109 307 OFFCURVE",
"118 350 CURVE SMOOTH",
"156 536 OFFCURVE",
"263 683 OFFCURVE",
"449 683 CURVE SMOOTH",
"507 683 OFFCURVE",
"582 661 OFFCURVE",
"601 640 CURVE",
"599 620 OFFCURVE",
"594 587 OFFCURVE",
"594 562 CURVE SMOOTH",
"594 554 OFFCURVE",
"595 547 OFFCURVE",
"596 541 CURVE",
"610 541 LINE",
"638 647 LINE",
"605 685 OFFCURVE",
"517 710 OFFCURVE",
"442 710 CURVE SMOOTH",
"254 710 OFFCURVE",
"115 572 OFFCURVE",
"70 350 CURVE SMOOTH",
"61 306 OFFCURVE",
"56 265 OFFCURVE",
"56 229 CURVE SMOOTH",
"56 78 OFFCURVE",
"132 -10 OFFCURVE",
"287 -10 CURVE SMOOTH"
);
},
{
closed = 1;
nodes = (
"278 -219 OFFCURVE",
"313 -134 OFFCURVE",
"313 -98 CURVE SMOOTH",
"313 -76 OFFCURVE",
"303 -61 OFFCURVE",
"276 -61 CURVE SMOOTH",
"257 -61 OFFCURVE",
"236 -72 OFFCURVE",
"231 -98 CURVE",
"230 -101 OFFCURVE",
"230 -104 OFFCURVE",
"230 -106 CURVE SMOOTH",
"230 -123 OFFCURVE",
"240 -135 OFFCURVE",
"256 -135 CURVE SMOOTH",
"261 -135 OFFCURVE",
"268 -134 OFFCURVE",
"273 -132 CURVE",
"268 -147 LINE SMOOTH",
"258 -180 OFFCURVE",
"239 -216 OFFCURVE",
"214 -241 CURVE",
"231 -258 LINE"
);
}
);
width = 612;
}
);
leftKerningGroup = G;
note = Gcommaaccent;
unicode = 0122;
},
{
glyphname = Gdotaccent;
lastChange = "2015-10-26 01:49:28 +0000";
layers = (
{
layerId = "DC57E17D-D7E6-498D-B8B0-08C45E75F177";
name = "Light Italic";
paths = (
{
closed = 1;
nodes = (
"360 -10 OFFCURVE",
"448 10 OFFCURVE",
"504 50 CURVE",
"558 313 LINE",
"594 317 OFFCURVE",
"613 324 OFFCURVE",
"630 331 CURVE",
"631 338 LINE",
"440 338 LINE",
"439 331 LINE",
"460 324 OFFCURVE",
"486 318 OFFCURVE",
"513 313 CURVE",
"460 55 LINE",
"409 28 OFFCURVE",
"340 17 OFFCURVE",
"304 17 CURVE SMOOTH",
"157 17 OFFCURVE",
"105 104 OFFCURVE",
"105 228 CURVE SMOOTH",
"105 266 OFFCURVE",
"109 307 OFFCURVE",
"118 350 CURVE SMOOTH",
"156 536 OFFCURVE",
"263 683 OFFCURVE",
"449 683 CURVE SMOOTH",
"507 683 OFFCURVE",
"582 661 OFFCURVE",
"601 640 CURVE",
"599 620 OFFCURVE",
"594 587 OFFCURVE",
"594 562 CURVE SMOOTH",
"594 554 OFFCURVE",
"595 547 OFFCURVE",
"596 541 CURVE",
"610 541 LINE",
"638 647 LINE",
"605 685 OFFCURVE",
"517 710 OFFCURVE",
"442 710 CURVE SMOOTH",
"254 710 OFFCURVE",
"115 572 OFFCURVE",
"70 350 CURVE SMOOTH",
"61 306 OFFCURVE",
"56 265 OFFCURVE",
"56 229 CURVE SMOOTH",
"56 78 OFFCURVE",
"132 -10 OFFCURVE",
"287 -10 CURVE SMOOTH"
);
},
{
closed = 1;
nodes = (
"482 785 OFFCURVE",
"502 802 OFFCURVE",
"502 830 CURVE SMOOTH",
"502 846 OFFCURVE",
"491 855 OFFCURVE",
"476 855 CURVE SMOOTH",
"457 855 OFFCURVE",
"442 842 OFFCURVE",
"437 820 CURVE SMOOTH",
"436 816 OFFCURVE",
"436 813 OFFCURVE",
"436 810 CURVE SMOOTH",
"436 794 OFFCURVE",
"446 785 OFFCURVE",
"462 785 CURVE SMOOTH"
);
}
);
width = 612;
}
);
leftKerningGroup = G;
note = Gdotaccent;
unicode = 0120;
},
{
glyphname = Gmacron;
lastChange = "2015-10-26 01:49:29 +0000";
layers = (
{
layerId = "DC57E17D-D7E6-498D-B8B0-08C45E75F177";
name = "Light Italic";
paths = (
{
closed = 1;
nodes = (
"360 -10 OFFCURVE",
"448 10 OFFCURVE",
"504 50 CURVE",
"558 313 LINE",
"594 317 OFFCURVE",
"613 324 OFFCURVE",
"630 331 CURVE",
"631 338 LINE",
"440 338 LINE",
"439 331 LINE",
"460 324 OFFCURVE",
"486 318 OFFCURVE",
"513 313 CURVE",
"460 55 LINE",
"409 28 OFFCURVE",
"340 17 OFFCURVE",
"304 17 CURVE SMOOTH",
"157 17 OFFCURVE",
"105 104 OFFCURVE",
"105 228 CURVE SMOOTH",
"105 266 OFFCURVE",
"109 307 OFFCURVE",
"118 350 CURVE SMOOTH",
"156 536 OFFCURVE",
"263 683 OFFCURVE",
"449 683 CURVE SMOOTH",
"507 683 OFFCURVE",
"582 661 OFFCURVE",
"601 640 CURVE",
"599 620 OFFCURVE",
"594 587 OFFCURVE",
"594 562 CURVE SMOOTH",
"594 554 OFFCURVE",
"595 547 OFFCURVE",
"596 541 CURVE",
"610 541 LINE",
"638 647 LINE",
"605 685 OFFCURVE",
"517 710 OFFCURVE",
"442 710 CURVE SMOOTH",
"254 710 OFFCURVE",
"115 572 OFFCURVE",
"70 350 CURVE SMOOTH",
"61 306 OFFCURVE",
"56 265 OFFCURVE",
"56 229 CURVE SMOOTH",
"56 78 OFFCURVE",
"132 -10 OFFCURVE",
"287 -10 CURVE SMOOTH"
);
},
{
closed = 1;
nodes = (
"603 784 LINE",
"608 811 LINE",
"325 811 LINE",
"321 784 LINE"
);
}
);
width = 612;
}
);
leftKerningGroup = G;
note = Gmacron;
unicode = 1E20;
},
{
glyphname = H;
lastChange = "2015-10-26 01:18:16 +0000";
layers = (
{
layerId = "DC57E17D-D7E6-498D-B8B0-08C45E75F177";
name = "Light Italic";
paths = (
{
closed = 1;
nodes = (
"207 0 LINE",
"208 7 LINE",
"187 15 OFFCURVE",
"162 20 OFFCURVE",
"136 24 CURVE",
"269 675 LINE",
"307 679 OFFCURVE",
"324 683 OFFCURVE",
"348 692 CURVE",
"349 700 LINE",
"148 700 LINE",
"147 692 LINE",
"168 684 OFFCURVE",
"195 679 OFFCURVE",
"221 675 CURVE",
"88 24 LINE",
"50 20 OFFCURVE",
"26 14 OFFCURVE",
"7 8 CURVE",
"6 0 LINE"
);
},
{
closed = 1;
nodes = (
"621 342 LINE",
"627 369 LINE",
"183 369 LINE",
"178 342 LINE"
);
},
{
closed = 1;
nodes = (
"654 0 LINE",
"655 7 LINE",
"634 15 OFFCURVE",
"606 20 OFFCURVE",
"581 24 CURVE",
"713 675 LINE",
"752 679 OFFCURVE",
"775 685 OFFCURVE",
"794 691 CURVE",
"796 700 LINE",
"595 700 LINE",
"594 692 LINE",
"615 684 OFFCURVE",
"640 679 OFFCURVE",
"665 675 CURVE",
"533 24 LINE",
"495 20 OFFCURVE",
"478 16 OFFCURVE",
"454 7 CURVE",
"453 0 LINE"
);
}
);
width = 736;
}
);
note = H;
unicode = 0048;
},
{
glyphname = Hbar;
lastChange = "2015-10-26 01:18:17 +0000";
layers = (
{
layerId = "DC57E17D-D7E6-498D-B8B0-08C45E75F177";
name = "Light Italic";
paths = (
{
closed = 1;
nodes = (
"207 0 LINE",
"208 7 LINE",
"187 15 OFFCURVE",
"162 20 OFFCURVE",
"136 24 CURVE",
"269 675 LINE",
"307 679 OFFCURVE",
"324 683 OFFCURVE",
"348 692 CURVE",
"349 700 LINE",
"148 700 LINE",
"147 692 LINE",
"168 684 OFFCURVE",
"195 679 OFFCURVE",
"221 675 CURVE",
"88 24 LINE",
"50 20 OFFCURVE",
"26 14 OFFCURVE",
"7 8 CURVE",
"6 0 LINE"
);
},
{
closed = 1;
nodes = (
"621 342 LINE",
"627 369 LINE",
"184 369 LINE",
"179 342 LINE"
);
},
{
closed = 1;
nodes = (
"738 511 LINE",
"744 538 LINE",
"134 538 LINE",
"129 511 LINE"
);
},
{
closed = 1;
nodes = (
"654 0 LINE",
"655 7 LINE",
"634 15 OFFCURVE",
"606 20 OFFCURVE",
"581 24 CURVE",
"713 675 LINE",
"752 679 OFFCURVE",
"775 685 OFFCURVE",
"794 691 CURVE",
"796 700 LINE",
"595 700 LINE",
"594 692 LINE",
"615 684 OFFCURVE",
"640 679 OFFCURVE",
"665 675 CURVE",
"533 24 LINE",
"495 20 OFFCURVE",
"478 16 OFFCURVE",
"454 7 CURVE",
"453 0 LINE"
);
}
);
width = 736;
}
);
note = Hbar;
unicode = 0126;
},
{
glyphname = Hbrevebelow;
lastChange = "2015-10-26 01:49:29 +0000";
layers = (
{
layerId = "DC57E17D-D7E6-498D-B8B0-08C45E75F177";
name = "Light Italic";
paths = (
{
closed = 1;
nodes = (
"207 0 LINE",
"208 7 LINE",
"187 15 OFFCURVE",
"162 20 OFFCURVE",
"136 24 CURVE",
"269 675 LINE",
"307 679 OFFCURVE",
"324 683 OFFCURVE",
"348 692 CURVE",
"349 700 LINE",
"148 700 LINE",
"147 692 LINE",
"168 684 OFFCURVE",
"195 679 OFFCURVE",
"221 675 CURVE",
"88 24 LINE",
"50 20 OFFCURVE",
"26 14 OFFCURVE",
"7 8 CURVE",
"6 0 LINE"
);
},
{
closed = 1;
nodes = (
"367 -167 OFFCURVE",
"428 -131 OFFCURVE",
"451 -50 CURVE",
"417 -50 LINE",
"392 -128 OFFCURVE",
"340 -140 OFFCURVE",
"301 -140 CURVE SMOOTH",
"265 -140 OFFCURVE",
"220 -130 OFFCURVE",
"220 -66 CURVE SMOOTH",
"220 -61 OFFCURVE",
"220 -56 OFFCURVE",
"221 -50 CURVE",
"186 -50 LINE",
"185 -56 OFFCURVE",
"185 -62 OFFCURVE",
"185 -68 CURVE SMOOTH",
"185 -136 OFFCURVE",
"229 -167 OFFCURVE",
"296 -167 CURVE SMOOTH"
);
},
{
closed = 1;
nodes = (
"621 342 LINE",
"627 369 LINE",
"183 369 LINE",
"178 342 LINE"
);
},
{
closed = 1;
nodes = (
"654 0 LINE",
"655 7 LINE",
"634 15 OFFCURVE",
"606 20 OFFCURVE",
"581 24 CURVE",
"713 675 LINE",
"752 679 OFFCURVE",
"775 685 OFFCURVE",
"794 691 CURVE",
"796 700 LINE",
"595 700 LINE",
"594 692 LINE",
"615 684 OFFCURVE",
"640 679 OFFCURVE",
"665 675 CURVE",
"533 24 LINE",
"495 20 OFFCURVE",
"478 16 OFFCURVE",
"454 7 CURVE",
"453 0 LINE"
);
}
);
width = 736;
}
);
note = Hbrevebelow;
unicode = 1E2A;
},
{
glyphname = Hcircumflex;
lastChange = "2015-10-26 01:18:16 +0000";
layers = (
{
layerId = "DC57E17D-D7E6-498D-B8B0-08C45E75F177";
name = "Light Italic";
paths = (
{
closed = 1;
nodes = (
"207 0 LINE",
"208 7 LINE",
"187 15 OFFCURVE",
"162 20 OFFCURVE",
"136 24 CURVE",
"269 675 LINE",
"307 679 OFFCURVE",
"324 683 OFFCURVE",
"348 692 CURVE",
"349 700 LINE",
"148 700 LINE",
"147 692 LINE",
"168 684 OFFCURVE",
"195 679 OFFCURVE",
"221 675 CURVE",
"88 24 LINE",
"50 20 OFFCURVE",
"26 14 OFFCURVE",
"7 8 CURVE",
"6 0 LINE"
);
},
{
closed = 1;
nodes = (
"621 342 LINE",
"627 369 LINE",
"183 369 LINE",
"178 342 LINE"
);
},
{
closed = 1;
nodes = (
"654 0 LINE",
"655 7 LINE",
"634 15 OFFCURVE",
"606 20 OFFCURVE",
"581 24 CURVE",
"713 675 LINE",
"752 679 OFFCURVE",
"775 685 OFFCURVE",
"794 691 CURVE",
"796 700 LINE",
"595 700 LINE",
"594 692 LINE",
"615 684 OFFCURVE",
"640 679 OFFCURVE",
"665 675 CURVE",
"533 24 LINE",
"495 20 OFFCURVE",
"478 16 OFFCURVE",
"454 7 CURVE",
"453 0 LINE"
);
},
{
closed = 1;
nodes = (
"424 803 OFFCURVE",
"470 838 OFFCURVE",
"504 873 CURVE",
"509 873 LINE",
"529 838 OFFCURVE",
"560 803 OFFCURVE",
"588 778 CURVE",
"613 800 LINE",
"583 827 OFFCURVE",
"548 866 OFFCURVE",
"525 910 CURVE",
"503 910 LINE",
"463 866 OFFCURVE",
"411 827 OFFCURVE",
"371 800 CURVE",
"386 778 LINE"
);
}
);
width = 736;
}
);
note = Hcircumflex;
unicode = 0124;
},
{
glyphname = Hdotbelow;
lastChange = "2015-10-26 01:49:30 +0000";
layers = (
{
layerId = "DC57E17D-D7E6-498D-B8B0-08C45E75F177";
name = "Light Italic";
paths = (
{
closed = 1;
nodes = (
"207 0 LINE",
"208 7 LINE",
"187 15 OFFCURVE",
"162 20 OFFCURVE",
"136 24 CURVE",
"269 675 LINE",
"307 679 OFFCURVE",
"324 683 OFFCURVE",
"348 692 CURVE",
"349 700 LINE",
"148 700 LINE",
"147 692 LINE",
"168 684 OFFCURVE",
"195 679 OFFCURVE",
"221 675 CURVE",
"88 24 LINE",
"50 20 OFFCURVE",
"26 14 OFFCURVE",
"7 8 CURVE",
"6 0 LINE"
);
},
{
closed = 1;
nodes = (
"316 -133 OFFCURVE",
"332 -120 OFFCURVE",
"337 -98 CURVE",
"338 -95 OFFCURVE",
"338 -92 OFFCURVE",
"338 -89 CURVE SMOOTH",
"338 -73 OFFCURVE",
"328 -63 OFFCURVE",
"312 -63 CURVE SMOOTH",
"293 -63 OFFCURVE",
"276 -76 OFFCURVE",
"273 -98 CURVE",
"272 -102 OFFCURVE",
"272 -105 OFFCURVE",
"272 -109 CURVE SMOOTH",
"272 -124 OFFCURVE",
"281 -133 OFFCURVE",
"298 -133 CURVE SMOOTH"
);
},
{
closed = 1;
nodes = (
"621 342 LINE",
"627 369 LINE",
"183 369 LINE",
"178 342 LINE"
);
},
{
closed = 1;
nodes = (
"654 0 LINE",
"655 7 LINE",
"634 15 OFFCURVE",
"606 20 OFFCURVE",
"581 24 CURVE",
"713 675 LINE",
"752 679 OFFCURVE",
"775 685 OFFCURVE",
"794 691 CURVE",
"796 700 LINE",
"595 700 LINE",
"594 692 LINE",
"615 684 OFFCURVE",
"640 679 OFFCURVE",
"665 675 CURVE",
"533 24 LINE",
"495 20 OFFCURVE",
"478 16 OFFCURVE",
"454 7 CURVE",
"453 0 LINE"
);
}
);
width = 736;
}
);
note = Hdotbelow;
unicode = 1E24;
},
{
glyphname = I;
lastChange = "2015-10-26 01:18:16 +0000";
layers = (
{
layerId = "DC57E17D-D7E6-498D-B8B0-08C45E75F177";
name = "Light Italic";
paths = (
{
closed = 1;
nodes = (
"215 0 LINE",
"216 7 LINE",
"194 15 OFFCURVE",
"167 20 OFFCURVE",
"141 24 CURVE",
"274 675 LINE",
"302 679 OFFCURVE",
"331 684 OFFCURVE",
"356 692 CURVE",
"357 700 LINE",
"153 700 LINE",
"152 692 LINE",
"173 684 OFFCURVE",
"200 679 OFFCURVE",
"226 675 CURVE",
"93 24 LINE",
"65 20 OFFCURVE",
"36 15 OFFCURVE",
"12 7 CURVE",
"11 0 LINE"
);
}
);
width = 302;
}
);
note = I;
unicode = 0049;
},
{
glyphname = IJ;
lastChange = "2015-10-26 01:18:15 +0000";
layers = (
{
layerId = "DC57E17D-D7E6-498D-B8B0-08C45E75F177";
name = "Light Italic";
paths = (
{
closed = 1;
nodes = (
"507 -10 OFFCURVE",
"571 43 OFFCURVE",
"588 131 CURVE SMOOTH",
"700 675 LINE",
"738 679 OFFCURVE",
"761 685 OFFCURVE",
"780 691 CURVE",
"782 700 LINE",
"580 700 LINE",
"578 690 LINE",
"595 684 OFFCURVE",
"613 679 OFFCURVE",
"652 674 CURVE",
"541 135 LINE SMOOTH",
"524 51 OFFCURVE",
"471 21 OFFCURVE",
"404 21 CURVE SMOOTH",
"362 21 OFFCURVE",
"328 32 OFFCURVE",
"302 48 CURVE",
"291 33 LINE",
"318 6 OFFCURVE",
"354 -10 OFFCURVE",
"412 -10 CURVE SMOOTH"
);
},
{
closed = 1;
nodes = (
"215 0 LINE",
"216 7 LINE",
"194 15 OFFCURVE",
"167 20 OFFCURVE",
"141 24 CURVE",
"274 675 LINE",
"302 679 OFFCURVE",
"331 684 OFFCURVE",
"356 692 CURVE",
"357 700 LINE",
"153 700 LINE",
"152 692 LINE",
"173 684 OFFCURVE",
"200 679 OFFCURVE",
"226 675 CURVE",
"93 24 LINE",
"65 20 OFFCURVE",
"36 15 OFFCURVE",
"12 7 CURVE",
"11 0 LINE"
);
}
);
width = 724;
}
);
note = IJ;
rightKerningGroup = J;
unicode = 0132;
},
{
glyphname = Iacute;
lastChange = "2015-10-26 01:49:29 +0000";
layers = (
{
layerId = "DC57E17D-D7E6-498D-B8B0-08C45E75F177";
name = "Light Italic";
paths = (
{
closed = 1;
nodes = (
"215 0 LINE",
"216 7 LINE",
"194 15 OFFCURVE",
"167 20 OFFCURVE",
"141 24 CURVE",
"274 675 LINE",
"302 679 OFFCURVE",
"331 684 OFFCURVE",
"356 692 CURVE",
"357 700 LINE",
"153 700 LINE",
"152 692 LINE",
"173 684 OFFCURVE",
"200 679 OFFCURVE",
"226 675 CURVE",
"93 24 LINE",
"65 20 OFFCURVE",
"36 15 OFFCURVE",
"12 7 CURVE",
"11 0 LINE"
);
},
{
closed = 1;
nodes = (
"344 862 LINE SMOOTH",
"360 871 OFFCURVE",
"371 883 OFFCURVE",
"371 894 CURVE SMOOTH",
"371 903 OFFCURVE",
"366 910 OFFCURVE",
"355 910 CURVE SMOOTH",
"342 910 OFFCURVE",
"329 901 OFFCURVE",
"322 894 CURVE",
"197 801 LINE",
"204 786 LINE"
);
}
);
width = 302;
}
);
note = Iacute;
unicode = 00CD;
},
{
glyphname = Ibreve;
lastChange = "2015-10-26 01:49:30 +0000";
layers = (
{
layerId = "DC57E17D-D7E6-498D-B8B0-08C45E75F177";
name = "Light Italic";
paths = (
{
closed = 1;
nodes = (
"215 0 LINE",
"216 7 LINE",
"194 15 OFFCURVE",
"167 20 OFFCURVE",
"141 24 CURVE",
"274 675 LINE",
"302 679 OFFCURVE",
"331 684 OFFCURVE",
"356 692 CURVE",
"357 700 LINE",
"153 700 LINE",
"152 692 LINE",
"173 684 OFFCURVE",
"200 679 OFFCURVE",
"226 675 CURVE",
"93 24 LINE",
"65 20 OFFCURVE",
"36 15 OFFCURVE",
"12 7 CURVE",
"11 0 LINE"
);
},
{
closed = 1;
nodes = (
"341 774 OFFCURVE",
"402 810 OFFCURVE",
"425 891 CURVE",
"391 891 LINE",
"366 813 OFFCURVE",
"314 801 OFFCURVE",
"275 801 CURVE SMOOTH",
"238 801 OFFCURVE",
"193 811 OFFCURVE",
"193 875 CURVE SMOOTH",
"193 880 OFFCURVE",
"193 885 OFFCURVE",
"194 891 CURVE",
"159 891 LINE",
"159 885 OFFCURVE",
"158 880 OFFCURVE",
"158 875 CURVE SMOOTH",
"158 805 OFFCURVE",
"201 774 OFFCURVE",
"269 774 CURVE SMOOTH"
);
}
);
width = 302;
}
);
note = Ibreve;
unicode = 012C;
},
{
glyphname = Icaron;
lastChange = "2015-10-26 01:18:17 +0000";
layers = (
{
layerId = "DC57E17D-D7E6-498D-B8B0-08C45E75F177";
name = "Light Italic";
paths = (
{
closed = 1;
nodes = (
"215 0 LINE",
"216 7 LINE",
"194 15 OFFCURVE",
"167 20 OFFCURVE",
"141 24 CURVE",
"274 675 LINE",
"302 679 OFFCURVE",
"331 684 OFFCURVE",
"356 692 CURVE",
"357 700 LINE",
"153 700 LINE",
"152 692 LINE",
"173 684 OFFCURVE",
"200 679 OFFCURVE",
"226 675 CURVE",
"93 24 LINE",
"65 20 OFFCURVE",
"36 15 OFFCURVE",
"12 7 CURVE",
"11 0 LINE"
);
},
{
closed = 1;
nodes = (
"282 786 LINE",
"323 831 OFFCURVE",
"373 870 OFFCURVE",
"415 896 CURVE",
"399 919 LINE",
"360 893 OFFCURVE",
"315 858 OFFCURVE",
"280 823 CURVE",
"276 823 LINE",
"256 858 OFFCURVE",
"225 893 OFFCURVE",
"197 919 CURVE",
"172 896 LINE",
"202 870 OFFCURVE",
"237 831 OFFCURVE",
"260 786 CURVE"
);
}
);
width = 302;
}
);
note = Icaron;
unicode = 01CF;
},
{
glyphname = Icircumflex;
lastChange = "2015-10-26 01:18:17 +0000";
layers = (
{
layerId = "DC57E17D-D7E6-498D-B8B0-08C45E75F177";
name = "Light Italic";
paths = (
{
closed = 1;
nodes = (
"215 0 LINE",
"216 7 LINE",
"194 15 OFFCURVE",
"167 20 OFFCURVE",
"141 24 CURVE",
"274 675 LINE",
"302 679 OFFCURVE",
"331 684 OFFCURVE",
"356 692 CURVE",
"357 700 LINE",
"153 700 LINE",
"152 692 LINE",
"173 684 OFFCURVE",
"200 679 OFFCURVE",
"226 675 CURVE",
"93 24 LINE",
"65 20 OFFCURVE",
"36 15 OFFCURVE",
"12 7 CURVE",
"11 0 LINE"
);
},
{
closed = 1;
nodes = (
"206 803 OFFCURVE",
"252 838 OFFCURVE",
"286 873 CURVE",
"291 873 LINE",
"311 838 OFFCURVE",
"342 803 OFFCURVE",
"371 778 CURVE",
"396 800 LINE",
"365 827 OFFCURVE",
"330 866 OFFCURVE",
"307 910 CURVE",
"285 910 LINE",
"245 866 OFFCURVE",
"193 827 OFFCURVE",
"153 800 CURVE",
"168 778 LINE"
);
}
);
width = 302;
}
);
note = Icircumflex;
unicode = 00CE;
},
{
glyphname = Idieresis;
lastChange = "2015-10-26 01:49:28 +0000";
layers = (
{
layerId = "DC57E17D-D7E6-498D-B8B0-08C45E75F177";
name = "Light Italic";
paths = (
{
closed = 1;
nodes = (
"215 0 LINE",
"216 7 LINE",
"194 15 OFFCURVE",
"167 20 OFFCURVE",
"141 24 CURVE",
"274 675 LINE",
"302 679 OFFCURVE",
"331 684 OFFCURVE",
"356 692 CURVE",
"357 700 LINE",
"153 700 LINE",
"152 692 LINE",
"173 684 OFFCURVE",
"200 679 OFFCURVE",
"226 675 CURVE",
"93 24 LINE",
"65 20 OFFCURVE",
"36 15 OFFCURVE",
"12 7 CURVE",
"11 0 LINE"
);
},
{
closed = 1;
nodes = (
"190 785 OFFCURVE",
"206 798 OFFCURVE",
"211 820 CURVE SMOOTH",
"212 823 OFFCURVE",
"212 827 OFFCURVE",
"212 830 CURVE SMOOTH",
"212 846 OFFCURVE",
"201 855 OFFCURVE",
"185 855 CURVE SMOOTH",
"167 855 OFFCURVE",
"153 842 OFFCURVE",
"148 820 CURVE SMOOTH",
"147 816 OFFCURVE",
"147 813 OFFCURVE",
"147 809 CURVE SMOOTH",
"147 794 OFFCURVE",
"156 785 OFFCURVE",
"171 785 CURVE SMOOTH"
);
},
{
closed = 1;
nodes = (
"390 785 OFFCURVE",
"410 802 OFFCURVE",
"410 830 CURVE SMOOTH",
"410 846 OFFCURVE",
"399 855 OFFCURVE",
"384 855 CURVE SMOOTH",
"362 855 OFFCURVE",
"344 838 OFFCURVE",
"344 809 CURVE SMOOTH",
"344 794 OFFCURVE",
"353 785 OFFCURVE",
"370 785 CURVE SMOOTH"
);
}
);
width = 302;
}
);
note = Idieresis;
unicode = 00CF;
},
{
glyphname = Idotaccent;
lastChange = "2015-10-26 01:49:29 +0000";
layers = (
{
layerId = "DC57E17D-D7E6-498D-B8B0-08C45E75F177";
name = "Light Italic";
paths = (
{
closed = 1;
nodes = (
"215 0 LINE",
"216 7 LINE",
"194 15 OFFCURVE",
"167 20 OFFCURVE",
"141 24 CURVE",
"274 675 LINE",
"302 679 OFFCURVE",
"331 684 OFFCURVE",
"356 692 CURVE",
"357 700 LINE",
"153 700 LINE",
"152 692 LINE",
"173 684 OFFCURVE",
"200 679 OFFCURVE",
"226 675 CURVE",
"93 24 LINE",
"65 20 OFFCURVE",
"36 15 OFFCURVE",
"12 7 CURVE",
"11 0 LINE"
);
},
{
closed = 1;
nodes = (
"291 785 OFFCURVE",
"311 802 OFFCURVE",
"311 830 CURVE SMOOTH",
"311 846 OFFCURVE",
"300 855 OFFCURVE",
"285 855 CURVE SMOOTH",
"266 855 OFFCURVE",
"251 842 OFFCURVE",
"246 820 CURVE SMOOTH",
"245 816 OFFCURVE",
"245 813 OFFCURVE",
"245 810 CURVE SMOOTH",
"245 794 OFFCURVE",
"255 785 OFFCURVE",
"271 785 CURVE SMOOTH"
);
}
);
width = 302;
}
);
note = Idotaccent;
unicode = 0130;
},
{
glyphname = Idotbelow;
lastChange = "2015-10-26 01:49:28 +0000";
layers = (
{
layerId = "DC57E17D-D7E6-498D-B8B0-08C45E75F177";
name = "Light Italic";
paths = (
{
closed = 1;
nodes = (
"215 0 LINE",
"216 7 LINE",
"194 15 OFFCURVE",
"167 20 OFFCURVE",
"141 24 CURVE",
"274 675 LINE",
"302 679 OFFCURVE",
"331 684 OFFCURVE",
"356 692 CURVE",
"357 700 LINE",
"153 700 LINE",
"152 692 LINE",
"173 684 OFFCURVE",
"200 679 OFFCURVE",
"226 675 CURVE",
"93 24 LINE",
"65 20 OFFCURVE",
"36 15 OFFCURVE",
"12 7 CURVE",
"11 0 LINE"
);
},
{
closed = 1;
nodes = (
"104 -133 OFFCURVE",
"120 -120 OFFCURVE",
"125 -98 CURVE",
"126 -95 OFFCURVE",
"126 -92 OFFCURVE",
"126 -89 CURVE SMOOTH",
"126 -73 OFFCURVE",
"116 -63 OFFCURVE",
"100 -63 CURVE SMOOTH",
"81 -63 OFFCURVE",
"64 -76 OFFCURVE",
"60 -98 CURVE",
"59 -101 OFFCURVE",
"59 -104 OFFCURVE",
"59 -107 CURVE SMOOTH",
"59 -124 OFFCURVE",
"69 -133 OFFCURVE",
"85 -133 CURVE SMOOTH"
);
}
);
width = 302;
}
);
note = Idotbelow;
unicode = 1ECA;
},
{
glyphname = Igrave;
lastChange = "2015-10-26 01:49:30 +0000";
layers = (
{
layerId = "DC57E17D-D7E6-498D-B8B0-08C45E75F177";
name = "Light Italic";
paths = (
{
closed = 1;
nodes = (
"215 0 LINE",
"216 7 LINE",
"194 15 OFFCURVE",
"167 20 OFFCURVE",
"141 24 CURVE",
"274 675 LINE",
"302 679 OFFCURVE",
"331 684 OFFCURVE",
"356 692 CURVE",
"357 700 LINE",
"153 700 LINE",
"152 692 LINE",
"173 684 OFFCURVE",
"200 679 OFFCURVE",
"226 675 CURVE",
"93 24 LINE",
"65 20 OFFCURVE",
"36 15 OFFCURVE",
"12 7 CURVE",
"11 0 LINE"
);
},
{
closed = 1;
nodes = (
"352 801 LINE",
"266 894 LINE",
"259 903 OFFCURVE",
"251 910 OFFCURVE",
"238 910 CURVE SMOOTH",
"225 910 OFFCURVE",
"215 900 OFFCURVE",
"215 886 CURVE SMOOTH",
"215 878 OFFCURVE",
"219 869 OFFCURVE",
"230 862 CURVE",
"340 786 LINE"
);
}
);
width = 302;
}
);
note = Igrave;
unicode = 00CC;
},
{
glyphname = Ihookabove;
lastChange = "2015-10-26 01:49:29 +0000";
layers = (
{
layerId = "DC57E17D-D7E6-498D-B8B0-08C45E75F177";
name = "Light Italic";
paths = (
{
closed = 1;
nodes = (
"215 0 LINE",
"216 7 LINE",
"194 15 OFFCURVE",
"167 20 OFFCURVE",
"141 24 CURVE",
"274 675 LINE",
"302 679 OFFCURVE",
"331 684 OFFCURVE",
"356 692 CURVE",
"357 700 LINE",
"153 700 LINE",
"152 692 LINE",
"173 684 OFFCURVE",
"200 679 OFFCURVE",
"226 675 CURVE",
"93 24 LINE",
"65 20 OFFCURVE",
"36 15 OFFCURVE",
"12 7 CURVE",
"11 0 LINE"
);
},
{
closed = 1;
nodes = (
"284 777 LINE",
"307 838 LINE",
"357 843 OFFCURVE",
"386 869 OFFCURVE",
"395 908 CURVE SMOOTH",
"396 913 OFFCURVE",
"397 919 OFFCURVE",
"397 923 CURVE SMOOTH",
"397 961 OFFCURVE",
"367 978 OFFCURVE",
"329 978 CURVE SMOOTH",
"302 978 OFFCURVE",
"276 970 OFFCURVE",
"257 962 CURVE",
"259 938 LINE",
"280 949 OFFCURVE",
"300 954 OFFCURVE",
"316 954 CURVE SMOOTH",
"348 954 OFFCURVE",
"363 939 OFFCURVE",
"363 919 CURVE SMOOTH",
"363 916 OFFCURVE",
"363 913 OFFCURVE",
"362 910 CURVE SMOOTH",
"356 883 OFFCURVE",
"334 858 OFFCURVE",
"288 858 CURVE SMOOTH",
"274 858 LINE",
"262 777 LINE"
);
}
);
width = 302;
}
);
note = Ihookabove;
unicode = 1EC8;
},
{
glyphname = Imacron;
lastChange = "2015-10-26 01:18:15 +0000";
layers = (
{
layerId = "DC57E17D-D7E6-498D-B8B0-08C45E75F177";
name = "Light Italic";
paths = (
{
closed = 1;
nodes = (
"215 0 LINE",
"216 7 LINE",
"194 15 OFFCURVE",
"167 20 OFFCURVE",
"141 24 CURVE",
"274 675 LINE",
"302 679 OFFCURVE",
"331 684 OFFCURVE",
"356 692 CURVE",
"357 700 LINE",
"153 700 LINE",
"152 692 LINE",
"173 684 OFFCURVE",
"200 679 OFFCURVE",
"226 675 CURVE",
"93 24 LINE",
"65 20 OFFCURVE",
"36 15 OFFCURVE",
"12 7 CURVE",
"11 0 LINE"
);
},
{
closed = 1;
nodes = (
"418 785 LINE",
"423 811 LINE",
"134 811 LINE",
"129 785 LINE"
);
}
);
width = 302;
}
);
note = Imacron;
unicode = 012A;
},
{
glyphname = Iogonek;
lastChange = "2015-10-26 01:49:28 +0000";
layers = (
{
layerId = "DC57E17D-D7E6-498D-B8B0-08C45E75F177";
name = "Light Italic";
paths = (
{
closed = 1;
nodes = (
"215 0 LINE",
"216 7 LINE",
"194 15 OFFCURVE",
"167 20 OFFCURVE",
"141 24 CURVE",
"274 675 LINE",
"302 679 OFFCURVE",
"331 684 OFFCURVE",
"356 692 CURVE",
"357 700 LINE",
"153 700 LINE",
"152 692 LINE",
"173 684 OFFCURVE",
"200 679 OFFCURVE",
"226 675 CURVE",
"93 24 LINE",
"65 20 OFFCURVE",
"36 15 OFFCURVE",
"12 7 CURVE",
"11 0 LINE"
);
},
{
closed = 1;
nodes = (
"149 -175 OFFCURVE",
"167 -171 OFFCURVE",
"190 -163 CURVE",
"195 -137 LINE",
"180 -143 OFFCURVE",
"163 -146 OFFCURVE",
"150 -146 CURVE SMOOTH",
"122 -146 OFFCURVE",
"100 -135 OFFCURVE",
"100 -109 CURVE SMOOTH",
"100 -66 OFFCURVE",
"141 -22 OFFCURVE",
"188 0 CURVE",
"156 0 LINE",
"107 -20 OFFCURVE",
"71 -57 OFFCURVE",
"62 -101 CURVE SMOOTH",
"61 -105 OFFCURVE",
"61 -110 OFFCURVE",
"61 -114 CURVE SMOOTH",
"61 -145 OFFCURVE",
"79 -175 OFFCURVE",
"127 -175 CURVE SMOOTH"
);
}
);
width = 302;
}
);
note = Iogonek;
unicode = 012E;
},
{
glyphname = Itilde;
lastChange = "2015-10-26 01:18:16 +0000";
layers = (
{
layerId = "DC57E17D-D7E6-498D-B8B0-08C45E75F177";
name = "Light Italic";
paths = (
{
closed = 1;
nodes = (
"215 0 LINE",
"216 7 LINE",
"194 15 OFFCURVE",
"167 20 OFFCURVE",
"141 24 CURVE",
"274 675 LINE",
"302 679 OFFCURVE",
"331 684 OFFCURVE",
"356 692 CURVE",
"357 700 LINE",
"153 700 LINE",
"152 692 LINE",
"173 684 OFFCURVE",
"200 679 OFFCURVE",
"226 675 CURVE",
"93 24 LINE",
"65 20 OFFCURVE",
"36 15 OFFCURVE",
"12 7 CURVE",
"11 0 LINE"
);
},
{
closed = 1;
nodes = (
"146 786 LINE",
"161 823 OFFCURVE",
"187 846 OFFCURVE",
"217 846 CURVE SMOOTH",
"257 846 OFFCURVE",
"293 787 OFFCURVE",
"336 787 CURVE SMOOTH",
"380 787 OFFCURVE",
"415 824 OFFCURVE",
"434 882 CURVE",
"418 882 LINE",
"399 841 OFFCURVE",
"375 818 OFFCURVE",
"344 818 CURVE SMOOTH",
"304 818 OFFCURVE",
"272 876 OFFCURVE",
"226 876 CURVE SMOOTH",
"185 876 OFFCURVE",
"149 849 OFFCURVE",
"129 786 CURVE"
);
}
);
width = 302;
}
);
note = Itilde;
unicode = 0128;
},
{
glyphname = J;
lastChange = "2015-10-26 01:40:44 +0000";
layers = (
{
layerId = "DC57E17D-D7E6-498D-B8B0-08C45E75F177";
name = "Light Italic";
paths = (
{
closed = 1;
nodes = (
"206 -10 OFFCURVE",
"271 43 OFFCURVE",
"288 131 CURVE SMOOTH",
"399 675 LINE",
"438 679 OFFCURVE",
"461 685 OFFCURVE",
"480 691 CURVE",
"482 700 LINE",
"279 700 LINE",
"277 690 LINE",
"295 684 OFFCURVE",
"313 679 OFFCURVE",
"351 674 CURVE",
"241 135 LINE SMOOTH",
"224 51 OFFCURVE",
"171 21 OFFCURVE",
"104 21 CURVE SMOOTH",
"61 21 OFFCURVE",
"28 32 OFFCURVE",
"2 48 CURVE",
"-10 33 LINE",
"17 6 OFFCURVE",
"54 -10 OFFCURVE",
"111 -10 CURVE SMOOTH"
);
}
);
width = 423;
}
);
leftKerningGroup = J;
note = J;
rightKerningGroup = J;
unicode = 004A;
},
{
glyphname = Jcircumflex;
lastChange = "2015-10-26 01:18:17 +0000";
layers = (
{
layerId = "DC57E17D-D7E6-498D-B8B0-08C45E75F177";
name = "Light Italic";
paths = (
{
closed = 1;
nodes = (
"206 -10 OFFCURVE",
"271 43 OFFCURVE",
"288 131 CURVE SMOOTH",
"399 675 LINE",
"438 679 OFFCURVE",
"461 685 OFFCURVE",
"480 691 CURVE",
"482 700 LINE",
"279 700 LINE",
"277 690 LINE",
"295 684 OFFCURVE",
"313 679 OFFCURVE",
"351 674 CURVE",
"241 135 LINE SMOOTH",
"224 51 OFFCURVE",
"171 21 OFFCURVE",
"104 21 CURVE SMOOTH",
"61 21 OFFCURVE",
"28 32 OFFCURVE",
"2 48 CURVE",
"-10 33 LINE",
"17 6 OFFCURVE",
"54 -10 OFFCURVE",
"111 -10 CURVE SMOOTH"
);
},
{
closed = 1;
nodes = (
"333 803 OFFCURVE",
"379 838 OFFCURVE",
"413 873 CURVE",
"418 873 LINE",
"438 838 OFFCURVE",
"468 803 OFFCURVE",
"497 778 CURVE",
"522 800 LINE",
"492 827 OFFCURVE",
"457 866 OFFCURVE",
"434 910 CURVE",
"412 910 LINE",
"372 866 OFFCURVE",
"320 827 OFFCURVE",
"279 800 CURVE",
"295 778 LINE"
);
}
);
width = 423;
}
);
leftKerningGroup = J;
note = Jcircumflex;
rightKerningGroup = J;
unicode = 0134;
},
{
glyphname = K;
lastChange = "2015-10-26 01:18:15 +0000";
layers = (
{
layerId = "DC57E17D-D7E6-498D-B8B0-08C45E75F177";
name = "Light Italic";
paths = (
{
closed = 1;
nodes = (
"211 0 LINE",
"212 7 LINE",
"191 15 OFFCURVE",
"164 20 OFFCURVE",
"137 24 CURVE",
"188 275 LINE",
"288 369 LINE",
"498 0 LINE",
"612 0 LINE",
"613 7 LINE",
"588 15 OFFCURVE",
"560 20 OFFCURVE",
"540 24 CURVE",
"324 401 LINE",
"607 666 LINE",
"631 686 OFFCURVE",
"657 685 OFFCURVE",
"677 690 CURVE",
"679 700 LINE",
"505 700 LINE",
"503 690 LINE",
"521 684 OFFCURVE",
"568 685 OFFCURVE",
"568 667 CURVE",
"197 318 LINE",
"270 675 LINE",
"299 679 OFFCURVE",
"327 684 OFFCURVE",
"352 692 CURVE",
"353 700 LINE",
"148 700 LINE",
"147 692 LINE",
"169 684 OFFCURVE",
"196 679 OFFCURVE",
"222 675 CURVE",
"89 24 LINE",
"64 21 OFFCURVE",
"33 15 OFFCURVE",
"7 7 CURVE",
"6 0 LINE"
);
}
);
width = 662;
}
);
note = K;
rightKerningGroup = K;
unicode = 004B;
},
{
glyphname = Kcommaaccent;
lastChange = "2015-10-26 01:49:29 +0000";
layers = (
{
layerId = "DC57E17D-D7E6-498D-B8B0-08C45E75F177";
name = "Light Italic";
paths = (
{
closed = 1;
nodes = (
"211 0 LINE",
"212 7 LINE",
"191 15 OFFCURVE",
"164 20 OFFCURVE",
"137 24 CURVE",
"188 275 LINE",
"288 369 LINE",
"498 0 LINE",
"612 0 LINE",
"613 7 LINE",
"588 15 OFFCURVE",
"560 20 OFFCURVE",
"540 24 CURVE",
"324 401 LINE",
"607 666 LINE",
"631 686 OFFCURVE",
"657 685 OFFCURVE",
"677 690 CURVE",
"679 700 LINE",
"505 700 LINE",
"503 690 LINE",
"521 684 OFFCURVE",
"568 685 OFFCURVE",
"568 667 CURVE",
"197 318 LINE",
"270 675 LINE",
"299 679 OFFCURVE",
"327 684 OFFCURVE",
"352 692 CURVE",
"353 700 LINE",
"148 700 LINE",
"147 692 LINE",
"169 684 OFFCURVE",
"196 679 OFFCURVE",
"222 675 CURVE",
"89 24 LINE",
"64 21 OFFCURVE",
"33 15 OFFCURVE",
"7 7 CURVE",
"6 0 LINE"
);
},
{
closed = 1;
nodes = (
"305 -219 OFFCURVE",
"340 -134 OFFCURVE",
"340 -98 CURVE SMOOTH",
"340 -76 OFFCURVE",
"330 -61 OFFCURVE",
"303 -61 CURVE SMOOTH",
"284 -61 OFFCURVE",
"263 -72 OFFCURVE",
"258 -98 CURVE",
"257 -101 OFFCURVE",
"257 -104 OFFCURVE",
"257 -107 CURVE SMOOTH",
"257 -124 OFFCURVE",
"268 -135 OFFCURVE",
"283 -135 CURVE SMOOTH",
"288 -135 OFFCURVE",
"295 -134 OFFCURVE",
"300 -132 CURVE",
"295 -147 LINE SMOOTH",
"285 -180 OFFCURVE",
"266 -216 OFFCURVE",
"241 -241 CURVE",
"258 -258 LINE"
);
}
);
width = 662;
}
);
note = Kcommaaccent;
rightKerningGroup = K;
unicode = 0136;
},
{
glyphname = L;
lastChange = "2015-10-26 01:18:17 +0000";
layers = (
{
layerId = "DC57E17D-D7E6-498D-B8B0-08C45E75F177";
name = "Light Italic";
paths = (
{
closed = 1;
nodes = (
"446 0 LINE",
"483 124 LINE",
"470 124 LINE",
"457 105 OFFCURVE",
"428 51 OFFCURVE",
"421 26 CURVE",
"138 26 LINE",
"271 675 LINE",
"299 679 OFFCURVE",
"327 684 OFFCURVE",
"352 692 CURVE",
"353 700 LINE",
"149 700 LINE",
"148 692 LINE",
"170 684 OFFCURVE",
"197 679 OFFCURVE",
"223 675 CURVE",
"90 24 LINE",
"51 20 OFFCURVE",
"27 14 OFFCURVE",
"8 8 CURVE",
"7 0 LINE"
);
}
);
width = 540;
}
);
note = L;
rightKerningGroup = L;
unicode = 004C;
},
{
glyphname = Lacute;
lastChange = "2015-10-26 01:49:28 +0000";
layers = (
{
layerId = "DC57E17D-D7E6-498D-B8B0-08C45E75F177";
name = "Light Italic";
paths = (
{
closed = 1;
nodes = (
"446 0 LINE",
"483 124 LINE",
"470 124 LINE",
"457 105 OFFCURVE",
"428 51 OFFCURVE",
"421 26 CURVE",
"138 26 LINE",
"271 675 LINE",
"299 679 OFFCURVE",
"327 684 OFFCURVE",
"352 692 CURVE",
"353 700 LINE",
"149 700 LINE",
"148 692 LINE",
"170 684 OFFCURVE",
"197 679 OFFCURVE",
"223 675 CURVE",
"90 24 LINE",
"51 20 OFFCURVE",
"27 14 OFFCURVE",
"8 8 CURVE",
"7 0 LINE"
);
},
{
closed = 1;
nodes = (
"398 862 LINE SMOOTH",
"416 871 OFFCURVE",
"425 884 OFFCURVE",
"425 895 CURVE SMOOTH",
"425 904 OFFCURVE",
"420 910 OFFCURVE",
"410 910 CURVE SMOOTH",
"396 910 OFFCURVE",
"384 901 OFFCURVE",
"376 894 CURVE",
"252 801 LINE",
"258 786 LINE"
);
}
);
width = 540;
}
);
note = Lacute;
rightKerningGroup = L;
unicode = 0139;
},
{
glyphname = Lcaron;
lastChange = "2015-10-26 01:49:29 +0000";
layers = (
{
layerId = "DC57E17D-D7E6-498D-B8B0-08C45E75F177";
name = "Light Italic";
paths = (
{
closed = 1;
nodes = (
"446 0 LINE",
"483 124 LINE",
"470 124 LINE",
"457 105 OFFCURVE",
"428 51 OFFCURVE",
"421 26 CURVE",
"138 26 LINE",
"271 675 LINE",
"299 679 OFFCURVE",
"327 684 OFFCURVE",
"352 692 CURVE",
"353 700 LINE",
"149 700 LINE",
"148 692 LINE",
"170 684 OFFCURVE",
"197 679 OFFCURVE",
"223 675 CURVE",
"90 24 LINE",
"51 20 OFFCURVE",
"27 14 OFFCURVE",
"8 8 CURVE",
"7 0 LINE"
);
},
{
closed = 1;
nodes = (
"492 543 OFFCURVE",
"526 608 OFFCURVE",
"534 649 CURVE SMOOTH",
"536 657 OFFCURVE",
"537 665 OFFCURVE",
"537 672 CURVE SMOOTH",
"537 695 OFFCURVE",
"527 710 OFFCURVE",
"499 710 CURVE SMOOTH",
"477 710 OFFCURVE",
"458 696 OFFCURVE",
"453 670 CURVE SMOOTH",
"452 667 OFFCURVE",
"452 664 OFFCURVE",
"452 661 CURVE SMOOTH",
"452 644 OFFCURVE",
"464 634 OFFCURVE",
"479 634 CURVE SMOOTH",
"484 634 OFFCURVE",
"491 634 OFFCURVE",
"496 637 CURVE",
"492 622 LINE SMOOTH",
"481 588 OFFCURVE",
"462 553 OFFCURVE",
"438 528 CURVE",
"453 511 LINE"
);
}
);
width = 540;
}
);
note = Lcaron;
rightKerningGroup = L;
unicode = 013D;
},
{
glyphname = Lcommaaccent;
lastChange = "2015-10-26 01:49:28 +0000";
layers = (
{
layerId = "DC57E17D-D7E6-498D-B8B0-08C45E75F177";
name = "Light Italic";
paths = (
{
closed = 1;
nodes = (
"446 0 LINE",
"483 124 LINE",
"470 124 LINE",
"457 105 OFFCURVE",
"428 51 OFFCURVE",
"421 26 CURVE",
"138 26 LINE",
"271 675 LINE",
"299 679 OFFCURVE",
"327 684 OFFCURVE",
"352 692 CURVE",
"353 700 LINE",
"149 700 LINE",
"148 692 LINE",
"170 684 OFFCURVE",
"197 679 OFFCURVE",
"223 675 CURVE",
"90 24 LINE",
"51 20 OFFCURVE",
"27 14 OFFCURVE",
"8 8 CURVE",
"7 0 LINE"
);
},
{
closed = 1;
nodes = (
"237 -219 OFFCURVE",
"274 -135 OFFCURVE",
"274 -99 CURVE SMOOTH",
"274 -76 OFFCURVE",
"264 -61 OFFCURVE",
"237 -61 CURVE SMOOTH",
"218 -61 OFFCURVE",
"197 -72 OFFCURVE",
"192 -98 CURVE",
"191 -101 OFFCURVE",
"191 -104 OFFCURVE",
"191 -107 CURVE SMOOTH",
"191 -124 OFFCURVE",
"202 -135 OFFCURVE",
"217 -135 CURVE SMOOTH",
"222 -135 OFFCURVE",
"228 -134 OFFCURVE",
"233 -132 CURVE",
"228 -147 LINE SMOOTH",
"219 -180 OFFCURVE",
"200 -216 OFFCURVE",
"175 -241 CURVE",
"192 -258 LINE"
);
}
);
width = 540;
}
);
note = Lcommaaccent;
rightKerningGroup = L;
unicode = 013B;
},
{
glyphname = Ldot;
lastChange = "2015-10-26 01:49:28 +0000";
layers = (
{
layerId = "DC57E17D-D7E6-498D-B8B0-08C45E75F177";
name = "Light Italic";
paths = (
{
closed = 1;
nodes = (
"446 0 LINE",
"483 124 LINE",
"470 124 LINE",
"457 105 OFFCURVE",
"428 51 OFFCURVE",
"421 26 CURVE",
"138 26 LINE",
"271 675 LINE",
"299 679 OFFCURVE",
"327 684 OFFCURVE",
"352 692 CURVE",
"353 700 LINE",
"149 700 LINE",
"148 692 LINE",
"170 684 OFFCURVE",
"197 679 OFFCURVE",
"223 675 CURVE",
"90 24 LINE",
"51 20 OFFCURVE",
"27 14 OFFCURVE",
"8 8 CURVE",
"7 0 LINE"
);
},
{
closed = 1;
nodes = (
"387 333 OFFCURVE",
"403 347 OFFCURVE",
"408 369 CURVE",
"409 372 OFFCURVE",
"409 375 OFFCURVE",
"409 377 CURVE SMOOTH",
"409 394 OFFCURVE",
"398 404 OFFCURVE",
"382 404 CURVE SMOOTH",
"364 404 OFFCURVE",
"348 390 OFFCURVE",
"344 369 CURVE",
"343 365 OFFCURVE",
"343 362 OFFCURVE",
"343 358 CURVE SMOOTH",
"343 343 OFFCURVE",
"352 333 OFFCURVE",
"368 333 CURVE SMOOTH"
);
}
);
width = 540;
}
);
note = Ldot;
rightKerningGroup = L;
unicode = 013F;
},
{
glyphname = Ldotbelow;
lastChange = "2015-10-26 01:49:28 +0000";
layers = (
{
layerId = "DC57E17D-D7E6-498D-B8B0-08C45E75F177";
name = "Light Italic";
paths = (
{
closed = 1;
nodes = (
"446 0 LINE",
"483 124 LINE",
"470 124 LINE",
"457 105 OFFCURVE",
"428 51 OFFCURVE",
"421 26 CURVE",
"138 26 LINE",
"271 675 LINE",
"299 679 OFFCURVE",
"327 684 OFFCURVE",
"352 692 CURVE",
"353 700 LINE",
"149 700 LINE",
"148 692 LINE",
"170 684 OFFCURVE",
"197 679 OFFCURVE",
"223 675 CURVE",
"90 24 LINE",
"51 20 OFFCURVE",
"27 14 OFFCURVE",
"8 8 CURVE",
"7 0 LINE"
);
},
{
closed = 1;
nodes = (
"258 -124 OFFCURVE",
"275 -110 OFFCURVE",
"279 -88 CURVE",
"280 -85 OFFCURVE",
"280 -82 OFFCURVE",
"280 -79 CURVE SMOOTH",
"280 -63 OFFCURVE",
"270 -53 OFFCURVE",
"254 -53 CURVE SMOOTH",
"235 -53 OFFCURVE",
"219 -67 OFFCURVE",
"215 -88 CURVE",
"214 -92 OFFCURVE",
"214 -95 OFFCURVE",
"214 -98 CURVE SMOOTH",
"214 -114 OFFCURVE",
"224 -124 OFFCURVE",
"240 -124 CURVE SMOOTH"
);
}
);
width = 540;
}
);
note = Ldotbelow;
rightKerningGroup = L;
unicode = 1E36;
},
{
glyphname = Ldotbelowmacron;
lastChange = "2015-10-26 01:49:29 +0000";
layers = (
{
layerId = "DC57E17D-D7E6-498D-B8B0-08C45E75F177";
name = "Light Italic";
paths = (
{
closed = 1;
nodes = (
"446 0 LINE",
"483 124 LINE",
"470 124 LINE",
"457 105 OFFCURVE",
"428 51 OFFCURVE",
"421 26 CURVE",
"138 26 LINE",
"271 675 LINE",
"299 679 OFFCURVE",
"327 684 OFFCURVE",
"352 692 CURVE",
"353 700 LINE",
"149 700 LINE",
"148 692 LINE",
"170 684 OFFCURVE",
"197 679 OFFCURVE",
"223 675 CURVE",
"90 24 LINE",
"51 20 OFFCURVE",
"27 14 OFFCURVE",
"8 8 CURVE",
"7 0 LINE"
);
},
{
closed = 1;
nodes = (
"258 -124 OFFCURVE",
"275 -110 OFFCURVE",
"279 -88 CURVE",
"280 -85 OFFCURVE",
"280 -82 OFFCURVE",
"280 -79 CURVE SMOOTH",
"280 -63 OFFCURVE",
"270 -53 OFFCURVE",
"253 -53 CURVE SMOOTH",
"235 -53 OFFCURVE",
"219 -67 OFFCURVE",
"215 -88 CURVE",
"214 -92 OFFCURVE",
"214 -95 OFFCURVE",
"214 -98 CURVE SMOOTH",
"214 -114 OFFCURVE",
"224 -124 OFFCURVE",
"239 -124 CURVE SMOOTH"
);
},
{
closed = 1;
nodes = (
"411 785 LINE",
"417 811 LINE",
"133 811 LINE",
"128 785 LINE"
);
}
);
width = 540;
}
);
note = Ldotbelowmacron;
rightKerningGroup = L;
unicode = 1E38;
},
{
glyphname = Llinebelow;
lastChange = "2015-10-26 01:18:16 +0000";
layers = (
{
layerId = "DC57E17D-D7E6-498D-B8B0-08C45E75F177";
name = "Light Italic";
paths = (
{
closed = 1;
nodes = (
"446 0 LINE",
"483 124 LINE",
"470 124 LINE",
"457 105 OFFCURVE",
"428 51 OFFCURVE",
"421 26 CURVE",
"138 26 LINE",
"271 675 LINE",
"299 679 OFFCURVE",
"327 684 OFFCURVE",
"352 692 CURVE",
"353 700 LINE",
"149 700 LINE",
"148 692 LINE",
"170 684 OFFCURVE",
"197 679 OFFCURVE",
"223 675 CURVE",
"90 24 LINE",
"51 20 OFFCURVE",
"27 14 OFFCURVE",
"8 8 CURVE",
"7 0 LINE"
);
},
{
closed = 1;
nodes = (
"366 -100 LINE",
"372 -74 LINE",
"89 -74 LINE",
"84 -100 LINE"
);
}
);
width = 540;
}
);
note = Llinebelow;
rightKerningGroup = L;
unicode = 1E3A;
},
{
glyphname = Lslash;
lastChange = "2015-10-26 01:18:18 +0000";
layers = (
{
layerId = "DC57E17D-D7E6-498D-B8B0-08C45E75F177";
name = "Light Italic";
paths = (
{
closed = 1;
nodes = (
"446 0 LINE",
"483 124 LINE",
"470 124 LINE",
"457 105 OFFCURVE",
"428 51 OFFCURVE",
"421 26 CURVE",
"138 26 LINE",
"271 675 LINE",
"299 679 OFFCURVE",
"327 684 OFFCURVE",
"352 692 CURVE",
"353 700 LINE",
"149 700 LINE",
"148 692 LINE",
"170 684 OFFCURVE",
"197 679 OFFCURVE",
"223 675 CURVE",
"90 24 LINE",
"51 20 OFFCURVE",
"27 14 OFFCURVE",
"8 8 CURVE",
"7 0 LINE"
);
},
{
closed = 1;
nodes = (
"420 386 LINE",
"427 420 LINE",
"55 290 LINE",
"48 256 LINE"
);
}
);
width = 540;
}
);
note = Lslash;
rightKerningGroup = L;
unicode = 0141;
},
{
glyphname = M;
lastChange = "2015-10-26 01:18:15 +0000";
layers = (
{
layerId = "DC57E17D-D7E6-498D-B8B0-08C45E75F177";
name = "Light Italic";
paths = (
{
closed = 1;
nodes = (
"195 0 LINE",
"196 7 LINE",
"174 15 OFFCURVE",
"148 20 OFFCURVE",
"122 24 CURVE",
"252 664 LINE",
"375 78 LINE",
"403 78 LINE",
"769 662 LINE",
"639 24 LINE",
"612 20 OFFCURVE",
"583 15 OFFCURVE",
"558 7 CURVE",
"557 0 LINE",
"760 0 LINE",
"761 7 LINE",
"739 15 OFFCURVE",
"713 20 OFFCURVE",
"686 23 CURVE",
"820 674 LINE",
"848 678 OFFCURVE",
"876 683 OFFCURVE",
"901 692 CURVE",
"902 700 LINE",
"762 700 LINE",
"407 131 LINE",
"292 700 LINE",
"148 700 LINE",
"147 692 LINE",
"169 684 OFFCURVE",
"196 679 OFFCURVE",
"222 675 CURVE",
"88 23 LINE",
"61 20 OFFCURVE",
"33 15 OFFCURVE",
"7 7 CURVE",
"6 0 LINE"
);
}
);
width = 844;
}
);
note = M;
unicode = 004D;
},
{
glyphname = Mdotbelow;
lastChange = "2015-10-26 01:49:28 +0000";
layers = (
{
layerId = "DC57E17D-D7E6-498D-B8B0-08C45E75F177";
name = "Light Italic";
paths = (
{
closed = 1;
nodes = (
"195 0 LINE",
"196 7 LINE",
"174 15 OFFCURVE",
"148 20 OFFCURVE",
"122 24 CURVE",
"252 664 LINE",
"375 78 LINE",
"403 78 LINE",
"769 662 LINE",
"639 24 LINE",
"612 20 OFFCURVE",
"583 15 OFFCURVE",
"558 7 CURVE",
"557 0 LINE",
"760 0 LINE",
"761 7 LINE",
"739 15 OFFCURVE",
"713 20 OFFCURVE",
"686 23 CURVE",
"820 674 LINE",
"848 678 OFFCURVE",
"876 683 OFFCURVE",
"901 692 CURVE",
"902 700 LINE",
"762 700 LINE",
"407 131 LINE",
"292 700 LINE",
"148 700 LINE",
"147 692 LINE",
"169 684 OFFCURVE",
"196 679 OFFCURVE",
"222 675 CURVE",
"88 23 LINE",
"61 20 OFFCURVE",
"33 15 OFFCURVE",
"7 7 CURVE",
"6 0 LINE"
);
},
{
closed = 1;
nodes = (
"373 -133 OFFCURVE",
"390 -120 OFFCURVE",
"395 -98 CURVE",
"398 -76 OFFCURVE",
"388 -63 OFFCURVE",
"370 -63 CURVE SMOOTH",
"350 -63 OFFCURVE",
"334 -76 OFFCURVE",
"330 -98 CURVE",
"329 -102 OFFCURVE",
"329 -105 OFFCURVE",
"329 -108 CURVE SMOOTH",
"329 -124 OFFCURVE",
"339 -133 OFFCURVE",
"355 -133 CURVE SMOOTH"
);
}
);
width = 844;
}
);
note = Mdotbelow;
unicode = 1E42;
},
{
glyphname = N;
lastChange = "2015-10-26 01:18:17 +0000";
layers = (
{
layerId = "DC57E17D-D7E6-498D-B8B0-08C45E75F177";
name = "Light Italic";
paths = (
{
closed = 1;
nodes = (
"195 0 LINE",
"196 7 LINE",
"174 15 OFFCURVE",
"148 20 OFFCURVE",
"122 24 CURVE",
"253 669 LINE",
"546 0 LINE",
"581 0 LINE",
"718 675 LINE",
"746 679 OFFCURVE",
"775 684 OFFCURVE",
"800 692 CURVE",
"801 700 LINE",
"612 700 LINE",
"612 692 LINE",
"633 684 OFFCURVE",
"660 679 OFFCURVE",
"685 676 CURVE",
"562 69 LINE",
"288 700 LINE",
"148 700 LINE",
"147 692 LINE",
"169 684 OFFCURVE",
"196 679 OFFCURVE",
"222 675 CURVE",
"88 23 LINE",
"61 20 OFFCURVE",
"33 15 OFFCURVE",
"7 7 CURVE",
"6 0 LINE"
);
}
);
width = 742;
}
);
note = N;
unicode = 004E;
},
{
glyphname = Nacute;
lastChange = "2015-10-26 01:49:29 +0000";
layers = (
{
layerId = "DC57E17D-D7E6-498D-B8B0-08C45E75F177";
name = "Light Italic";
paths = (
{
closed = 1;
nodes = (
"195 0 LINE",
"196 7 LINE",
"174 15 OFFCURVE",
"148 20 OFFCURVE",
"122 24 CURVE",
"253 669 LINE",
"546 0 LINE",
"581 0 LINE",
"718 675 LINE",
"746 679 OFFCURVE",
"775 684 OFFCURVE",
"800 692 CURVE",
"801 700 LINE",
"612 700 LINE",
"612 692 LINE",
"633 684 OFFCURVE",
"660 679 OFFCURVE",
"685 676 CURVE",
"562 69 LINE",
"288 700 LINE",
"148 700 LINE",
"147 692 LINE",
"169 684 OFFCURVE",
"196 679 OFFCURVE",
"222 675 CURVE",
"88 23 LINE",
"61 20 OFFCURVE",
"33 15 OFFCURVE",
"7 7 CURVE",
"6 0 LINE"
);
},
{
closed = 1;
nodes = (
"593 862 LINE SMOOTH",
"611 871 OFFCURVE",
"620 884 OFFCURVE",
"620 895 CURVE SMOOTH",
"620 904 OFFCURVE",
"615 910 OFFCURVE",
"605 910 CURVE SMOOTH",
"591 910 OFFCURVE",
"579 901 OFFCURVE",
"571 894 CURVE",
"446 801 LINE",
"453 786 LINE"
);
}
);
width = 742;
}
);
note = Nacute;
unicode = 0143;
},
{
glyphname = Ncaron;
lastChange = "2015-10-26 01:18:16 +0000";
layers = (
{
layerId = "DC57E17D-D7E6-498D-B8B0-08C45E75F177";
name = "Light Italic";
paths = (
{
closed = 1;
nodes = (
"195 0 LINE",
"196 7 LINE",
"174 15 OFFCURVE",
"148 20 OFFCURVE",
"122 24 CURVE",
"253 669 LINE",
"546 0 LINE",
"581 0 LINE",
"718 675 LINE",
"746 679 OFFCURVE",
"775 684 OFFCURVE",
"800 692 CURVE",
"801 700 LINE",
"612 700 LINE",
"612 692 LINE",
"633 684 OFFCURVE",
"660 679 OFFCURVE",
"685 676 CURVE",
"562 69 LINE",
"288 700 LINE",
"148 700 LINE",
"147 692 LINE",
"169 684 OFFCURVE",
"196 679 OFFCURVE",
"222 675 CURVE",
"88 23 LINE",
"61 20 OFFCURVE",
"33 15 OFFCURVE",
"7 7 CURVE",
"6 0 LINE"
);
},
{
closed = 1;
nodes = (
"502 786 LINE",
"542 831 OFFCURVE",
"593 870 OFFCURVE",
"635 896 CURVE",
"619 919 LINE",
"580 893 OFFCURVE",
"535 858 OFFCURVE",
"500 823 CURVE",
"495 823 LINE",
"476 858 OFFCURVE",
"444 893 OFFCURVE",
"417 919 CURVE",
"392 896 LINE",
"421 870 OFFCURVE",
"457 831 OFFCURVE",
"480 786 CURVE"
);
}
);
width = 742;
}
);
note = Ncaron;
unicode = 0147;
},
{
glyphname = Ncommaaccent;
lastChange = "2015-10-26 01:49:29 +0000";
layers = (
{
layerId = "DC57E17D-D7E6-498D-B8B0-08C45E75F177";
name = "Light Italic";
paths = (
{
closed = 1;
nodes = (
"195 0 LINE",
"196 7 LINE",
"174 15 OFFCURVE",
"148 20 OFFCURVE",
"122 24 CURVE",
"253 669 LINE",
"546 0 LINE",
"581 0 LINE",
"718 675 LINE",
"746 679 OFFCURVE",
"775 684 OFFCURVE",
"800 692 CURVE",
"801 700 LINE",
"612 700 LINE",
"612 692 LINE",
"633 684 OFFCURVE",
"660 679 OFFCURVE",
"685 676 CURVE",
"562 69 LINE",
"288 700 LINE",
"148 700 LINE",
"147 692 LINE",
"169 684 OFFCURVE",
"196 679 OFFCURVE",
"222 675 CURVE",
"88 23 LINE",
"61 20 OFFCURVE",
"33 15 OFFCURVE",
"7 7 CURVE",
"6 0 LINE"
);
},
{
closed = 1;
nodes = (
"313 -219 OFFCURVE",
"350 -135 OFFCURVE",
"350 -99 CURVE SMOOTH",
"350 -76 OFFCURVE",
"340 -61 OFFCURVE",
"313 -61 CURVE SMOOTH",
"294 -61 OFFCURVE",
"273 -72 OFFCURVE",
"268 -98 CURVE",
"267 -101 OFFCURVE",
"267 -104 OFFCURVE",
"267 -107 CURVE SMOOTH",
"267 -124 OFFCURVE",
"278 -135 OFFCURVE",
"293 -135 CURVE SMOOTH",
"298 -135 OFFCURVE",
"304 -134 OFFCURVE",
"309 -132 CURVE",
"304 -147 LINE SMOOTH",
"295 -180 OFFCURVE",
"276 -216 OFFCURVE",
"251 -241 CURVE",
"268 -258 LINE"
);
}
);
width = 742;
}
);
note = Ncommaaccent;
unicode = 0145;
},
{
glyphname = Ndotaccent;
lastChange = "2015-10-26 01:49:28 +0000";
layers = (
{
layerId = "DC57E17D-D7E6-498D-B8B0-08C45E75F177";
name = "Light Italic";
paths = (
{
closed = 1;
nodes = (
"195 0 LINE",
"196 7 LINE",
"174 15 OFFCURVE",
"148 20 OFFCURVE",
"122 24 CURVE",
"253 669 LINE",
"546 0 LINE",
"581 0 LINE",
"718 675 LINE",
"746 679 OFFCURVE",
"775 684 OFFCURVE",
"800 692 CURVE",
"801 700 LINE",
"612 700 LINE",
"612 692 LINE",
"633 684 OFFCURVE",
"660 679 OFFCURVE",
"685 676 CURVE",
"562 69 LINE",
"288 700 LINE",
"148 700 LINE",
"147 692 LINE",
"169 684 OFFCURVE",
"196 679 OFFCURVE",
"222 675 CURVE",
"88 23 LINE",
"61 20 OFFCURVE",
"33 15 OFFCURVE",
"7 7 CURVE",
"6 0 LINE"
);
},
{
closed = 1;
nodes = (
"514 785 OFFCURVE",
"530 798 OFFCURVE",
"535 820 CURVE SMOOTH",
"536 823 OFFCURVE",
"536 827 OFFCURVE",
"536 830 CURVE SMOOTH",
"536 846 OFFCURVE",
"525 855 OFFCURVE",
"510 855 CURVE SMOOTH",
"491 855 OFFCURVE",
"475 842 OFFCURVE",
"470 820 CURVE SMOOTH",
"469 817 OFFCURVE",
"469 814 OFFCURVE",
"469 811 CURVE SMOOTH",
"469 794 OFFCURVE",
"479 785 OFFCURVE",
"495 785 CURVE SMOOTH"
);
}
);
width = 742;
}
);
note = Ndotaccent;
unicode = 1E44;
},
{
glyphname = Ndotbelow;
lastChange = "2015-10-26 01:49:29 +0000";
layers = (
{
layerId = "DC57E17D-D7E6-498D-B8B0-08C45E75F177";
name = "Light Italic";
paths = (
{
closed = 1;
nodes = (
"195 0 LINE",
"196 7 LINE",
"174 15 OFFCURVE",
"148 20 OFFCURVE",
"122 24 CURVE",
"253 669 LINE",
"546 0 LINE",
"581 0 LINE",
"718 675 LINE",
"746 679 OFFCURVE",
"775 684 OFFCURVE",
"800 692 CURVE",
"801 700 LINE",
"612 700 LINE",
"612 692 LINE",
"633 684 OFFCURVE",
"660 679 OFFCURVE",
"685 676 CURVE",
"562 69 LINE",
"288 700 LINE",
"148 700 LINE",
"147 692 LINE",
"169 684 OFFCURVE",
"196 679 OFFCURVE",
"222 675 CURVE",
"88 23 LINE",
"61 20 OFFCURVE",
"33 15 OFFCURVE",
"7 7 CURVE",
"6 0 LINE"
);
},
{
closed = 1;
nodes = (
"311 -133 OFFCURVE",
"327 -120 OFFCURVE",
"332 -98 CURVE",
"333 -95 OFFCURVE",
"333 -92 OFFCURVE",
"333 -89 CURVE SMOOTH",
"333 -73 OFFCURVE",
"323 -63 OFFCURVE",
"307 -63 CURVE SMOOTH",
"288 -63 OFFCURVE",
"272 -76 OFFCURVE",
"268 -98 CURVE",
"267 -102 OFFCURVE",
"267 -105 OFFCURVE",
"267 -108 CURVE SMOOTH",
"267 -124 OFFCURVE",
"277 -133 OFFCURVE",
"293 -133 CURVE SMOOTH"
);
}
);
width = 742;
}
);
note = uni1E46;
unicode = 1E46;
},
{
glyphname = Eng;
lastChange = "2015-10-26 01:18:17 +0000";
layers = (
{
layerId = "DC57E17D-D7E6-498D-B8B0-08C45E75F177";
name = "Light Italic";
paths = (
{
closed = 1;
nodes = (
"483 -248 OFFCURVE",
"540 -196 OFFCURVE",
"558 -111 CURVE SMOOTH",
"718 675 LINE",
"746 679 OFFCURVE",
"775 684 OFFCURVE",
"800 692 CURVE",
"801 700 LINE",
"612 700 LINE",
"612 692 LINE",
"633 684 OFFCURVE",
"660 679 OFFCURVE",
"685 676 CURVE",
"562 69 LINE",
"288 700 LINE",
"148 700 LINE",
"147 692 LINE",
"169 684 OFFCURVE",
"196 679 OFFCURVE",
"222 675 CURVE",
"88 23 LINE",
"61 20 OFFCURVE",
"33 15 OFFCURVE",
"7 7 CURVE",
"6 0 LINE",
"195 0 LINE",
"196 7 LINE",
"174 15 OFFCURVE",
"148 20 OFFCURVE",
"122 24 CURVE",
"253 669 LINE",
"548 0 LINE",
"526 -106 LINE SMOOTH",
"510 -188 OFFCURVE",
"453 -217 OFFCURVE",
"385 -217 CURVE SMOOTH",
"345 -217 OFFCURVE",
"313 -209 OFFCURVE",
"287 -194 CURVE",
"276 -209 LINE",
"303 -233 OFFCURVE",
"337 -248 OFFCURVE",
"391 -248 CURVE SMOOTH"
);
}
);
width = 742;
}
);
note = Eng;
unicode = 014A;
},
{
glyphname = Nlinebelow;
lastChange = "2015-10-26 01:18:17 +0000";
layers = (
{
layerId = "DC57E17D-D7E6-498D-B8B0-08C45E75F177";
name = "Light Italic";
paths = (
{
closed = 1;
nodes = (
"195 0 LINE",
"196 7 LINE",
"174 15 OFFCURVE",
"148 20 OFFCURVE",
"122 24 CURVE",
"253 669 LINE",
"546 0 LINE",
"581 0 LINE",
"718 675 LINE",
"746 679 OFFCURVE",
"775 684 OFFCURVE",
"800 692 CURVE",
"801 700 LINE",
"612 700 LINE",
"612 692 LINE",
"633 684 OFFCURVE",
"660 679 OFFCURVE",
"685 676 CURVE",
"562 69 LINE",
"288 700 LINE",
"148 700 LINE",
"147 692 LINE",
"169 684 OFFCURVE",
"196 679 OFFCURVE",
"222 675 CURVE",
"88 23 LINE",
"61 20 OFFCURVE",
"33 15 OFFCURVE",
"7 7 CURVE",
"6 0 LINE"
);
},
{
closed = 1;
nodes = (
"456 -100 LINE",
"462 -74 LINE",
"180 -74 LINE",
"174 -100 LINE"
);
}
);
width = 742;
}
);
note = Nlinebelow;
unicode = 1E48;
},
{
glyphname = Ntilde;
lastChange = "2015-10-26 01:18:15 +0000";
layers = (
{
layerId = "DC57E17D-D7E6-498D-B8B0-08C45E75F177";
name = "Light Italic";
paths = (
{
closed = 1;
nodes = (
"195 0 LINE",
"196 7 LINE",
"174 15 OFFCURVE",
"148 20 OFFCURVE",
"122 24 CURVE",
"253 669 LINE",
"546 0 LINE",
"581 0 LINE",
"718 675 LINE",
"746 679 OFFCURVE",
"775 684 OFFCURVE",
"800 692 CURVE",
"801 700 LINE",
"612 700 LINE",
"612 692 LINE",
"633 684 OFFCURVE",
"660 679 OFFCURVE",
"685 676 CURVE",
"562 69 LINE",
"288 700 LINE",
"148 700 LINE",
"147 692 LINE",
"169 684 OFFCURVE",
"196 679 OFFCURVE",
"222 675 CURVE",
"88 23 LINE",
"61 20 OFFCURVE",
"33 15 OFFCURVE",
"7 7 CURVE",
"6 0 LINE"
);
},
{
closed = 1;
nodes = (
"368 786 LINE",
"383 823 OFFCURVE",
"409 846 OFFCURVE",
"439 846 CURVE SMOOTH",
"479 846 OFFCURVE",
"515 787 OFFCURVE",
"558 787 CURVE SMOOTH",
"602 787 OFFCURVE",
"636 824 OFFCURVE",
"656 882 CURVE",
"639 882 LINE",
"621 841 OFFCURVE",
"597 818 OFFCURVE",
"565 818 CURVE SMOOTH",
"526 818 OFFCURVE",
"493 876 OFFCURVE",
"447 876 CURVE SMOOTH",
"407 876 OFFCURVE",
"371 849 OFFCURVE",
"350 786 CURVE"
);
}
);
width = 742;
}
);
note = Ntilde;
unicode = 00D1;
},
{
glyphname = O;
lastChange = "2015-10-26 01:49:28 +0000";
layers = (
{
layerId = "DC57E17D-D7E6-498D-B8B0-08C45E75F177";
name = "Light Italic";
paths = (
{
closed = 1;
nodes = (
"473 -10 OFFCURVE",
"603 127 OFFCURVE",
"649 350 CURVE SMOOTH",
"658 392 OFFCURVE",
"662 431 OFFCURVE",
"662 467 CURVE SMOOTH",
"662 619 OFFCURVE",
"584 710 OFFCURVE",
"432 710 CURVE SMOOTH",
"244 710 OFFCURVE",
"115 572 OFFCURVE",
"70 350 CURVE SMOOTH",
"61 307 OFFCURVE",
"57 267 OFFCURVE",
"57 230 CURVE SMOOTH",
"57 79 OFFCURVE",
"133 -10 OFFCURVE",
"285 -10 CURVE SMOOTH"
);
},
{
closed = 1;
nodes = (
"162 17 OFFCURVE",
"106 102 OFFCURVE",
"106 231 CURVE SMOOTH",
"106 268 OFFCURVE",
"110 308 OFFCURVE",
"119 350 CURVE SMOOTH",
"158 542 OFFCURVE",
"262 683 OFFCURVE",
"427 683 CURVE SMOOTH",
"556 683 OFFCURVE",
"613 597 OFFCURVE",
"613 467 CURVE SMOOTH",
"613 431 OFFCURVE",
"608 392 OFFCURVE",
"600 350 CURVE SMOOTH",
"561 157 OFFCURVE",
"456 17 OFFCURVE",
"291 17 CURVE SMOOTH"
);
}
);
width = 654;
}
);
leftKerningGroup = O;
note = O;
rightKerningGroup = O;
unicode = 004F;
},
{
glyphname = Oacute;
lastChange = "2015-10-26 01:49:29 +0000";
layers = (
{
layerId = "DC57E17D-D7E6-498D-B8B0-08C45E75F177";
name = "Light Italic";
paths = (
{
closed = 1;
nodes = (
"473 -10 OFFCURVE",
"603 127 OFFCURVE",
"649 350 CURVE SMOOTH",
"658 392 OFFCURVE",
"662 431 OFFCURVE",
"662 467 CURVE SMOOTH",
"662 619 OFFCURVE",
"584 710 OFFCURVE",
"432 710 CURVE SMOOTH",
"244 710 OFFCURVE",
"115 572 OFFCURVE",
"70 350 CURVE SMOOTH",
"61 307 OFFCURVE",
"57 267 OFFCURVE",
"57 230 CURVE SMOOTH",
"57 79 OFFCURVE",
"133 -10 OFFCURVE",
"285 -10 CURVE SMOOTH"
);
},
{
closed = 1;
nodes = (
"162 17 OFFCURVE",
"106 102 OFFCURVE",
"106 231 CURVE SMOOTH",
"106 268 OFFCURVE",
"110 308 OFFCURVE",
"119 350 CURVE SMOOTH",
"158 542 OFFCURVE",
"262 683 OFFCURVE",
"427 683 CURVE SMOOTH",
"556 683 OFFCURVE",
"613 597 OFFCURVE",
"613 467 CURVE SMOOTH",
"613 431 OFFCURVE",
"608 392 OFFCURVE",
"600 350 CURVE SMOOTH",
"561 157 OFFCURVE",
"456 17 OFFCURVE",
"291 17 CURVE SMOOTH"
);
},
{
closed = 1;
nodes = (
"520 862 LINE SMOOTH",
"538 871 OFFCURVE",
"547 884 OFFCURVE",
"547 895 CURVE SMOOTH",
"547 904 OFFCURVE",
"542 910 OFFCURVE",
"532 910 CURVE SMOOTH",
"518 910 OFFCURVE",
"506 901 OFFCURVE",
"498 894 CURVE",
"373 801 LINE",
"380 786 LINE"
);
}
);
width = 654;
}
);
leftKerningGroup = O;
note = Oacute;
rightKerningGroup = O;
unicode = 00D3;
},
{
glyphname = Obreve;
lastChange = "2015-10-26 01:49:28 +0000";
layers = (
{
layerId = "DC57E17D-D7E6-498D-B8B0-08C45E75F177";
name = "Light Italic";
paths = (
{
closed = 1;
nodes = (
"473 -10 OFFCURVE",
"603 127 OFFCURVE",
"649 350 CURVE SMOOTH",
"658 392 OFFCURVE",
"662 431 OFFCURVE",
"662 467 CURVE SMOOTH",
"662 619 OFFCURVE",
"584 710 OFFCURVE",
"432 710 CURVE SMOOTH",
"244 710 OFFCURVE",
"115 572 OFFCURVE",
"70 350 CURVE SMOOTH",
"61 307 OFFCURVE",
"57 267 OFFCURVE",
"57 230 CURVE SMOOTH",
"57 79 OFFCURVE",
"133 -10 OFFCURVE",
"285 -10 CURVE SMOOTH"
);
},
{
closed = 1;
nodes = (
"162 17 OFFCURVE",
"106 102 OFFCURVE",
"106 231 CURVE SMOOTH",
"106 268 OFFCURVE",
"110 308 OFFCURVE",
"119 350 CURVE SMOOTH",
"158 542 OFFCURVE",
"262 683 OFFCURVE",
"427 683 CURVE SMOOTH",
"556 683 OFFCURVE",
"613 597 OFFCURVE",
"613 467 CURVE SMOOTH",
"613 431 OFFCURVE",
"608 392 OFFCURVE",
"600 350 CURVE SMOOTH",
"561 157 OFFCURVE",
"456 17 OFFCURVE",
"291 17 CURVE SMOOTH"
);
},
{
closed = 1;
nodes = (
"516 772 OFFCURVE",
"578 808 OFFCURVE",
"601 889 CURVE",
"566 889 LINE",
"541 811 OFFCURVE",
"490 799 OFFCURVE",
"450 799 CURVE SMOOTH",
"414 799 OFFCURVE",
"369 809 OFFCURVE",
"369 873 CURVE SMOOTH",
"369 878 OFFCURVE",
"369 883 OFFCURVE",
"370 889 CURVE",
"335 889 LINE",
"334 883 OFFCURVE",
"334 877 OFFCURVE",
"334 871 CURVE SMOOTH",
"334 803 OFFCURVE",
"378 772 OFFCURVE",
"444 772 CURVE SMOOTH"
);
}
);
width = 654;
}
);
leftKerningGroup = O;
note = Obreve;
rightKerningGroup = O;
unicode = 014E;
},
{
glyphname = Ocaron;
lastChange = "2015-10-26 01:49:28 +0000";
layers = (
{
layerId = "DC57E17D-D7E6-498D-B8B0-08C45E75F177";
name = "Light Italic";
paths = (
{
closed = 1;
nodes = (
"473 -10 OFFCURVE",
"603 127 OFFCURVE",
"649 350 CURVE SMOOTH",
"658 392 OFFCURVE",
"662 431 OFFCURVE",
"662 467 CURVE SMOOTH",
"662 619 OFFCURVE",
"584 710 OFFCURVE",
"432 710 CURVE SMOOTH",
"244 710 OFFCURVE",
"115 572 OFFCURVE",
"70 350 CURVE SMOOTH",
"61 307 OFFCURVE",
"57 267 OFFCURVE",
"57 230 CURVE SMOOTH",
"57 79 OFFCURVE",
"133 -10 OFFCURVE",
"285 -10 CURVE SMOOTH"
);
},
{
closed = 1;
nodes = (
"162 17 OFFCURVE",
"106 102 OFFCURVE",
"106 231 CURVE SMOOTH",
"106 268 OFFCURVE",
"110 308 OFFCURVE",
"119 350 CURVE SMOOTH",
"158 542 OFFCURVE",
"262 683 OFFCURVE",
"427 683 CURVE SMOOTH",
"556 683 OFFCURVE",
"613 597 OFFCURVE",
"613 467 CURVE SMOOTH",
"613 431 OFFCURVE",
"608 392 OFFCURVE",
"600 350 CURVE SMOOTH",
"561 157 OFFCURVE",
"456 17 OFFCURVE",
"291 17 CURVE SMOOTH"
);
},
{
closed = 1;
nodes = (
"459 786 LINE",
"499 831 OFFCURVE",
"550 870 OFFCURVE",
"591 896 CURVE",
"576 919 LINE",
"537 893 OFFCURVE",
"492 858 OFFCURVE",
"457 823 CURVE",
"452 823 LINE",
"433 858 OFFCURVE",
"401 893 OFFCURVE",
"373 919 CURVE",
"348 896 LINE",
"378 870 OFFCURVE",
"414 831 OFFCURVE",
"437 786 CURVE"
);
}
);
width = 654;
}
);
leftKerningGroup = O;
note = Ocaron;
rightKerningGroup = O;
unicode = 01D1;
},
{
glyphname = Ocircumflex;
lastChange = "2015-10-26 01:49:29 +0000";
layers = (
{
layerId = "DC57E17D-D7E6-498D-B8B0-08C45E75F177";
name = "Light Italic";
paths = (
{
closed = 1;
nodes = (
"473 -10 OFFCURVE",
"603 127 OFFCURVE",
"649 350 CURVE SMOOTH",
"658 392 OFFCURVE",
"662 431 OFFCURVE",
"662 467 CURVE SMOOTH",
"662 619 OFFCURVE",
"584 710 OFFCURVE",
"432 710 CURVE SMOOTH",
"244 710 OFFCURVE",
"115 572 OFFCURVE",
"70 350 CURVE SMOOTH",
"61 307 OFFCURVE",
"57 267 OFFCURVE",
"57 230 CURVE SMOOTH",
"57 79 OFFCURVE",
"133 -10 OFFCURVE",
"285 -10 CURVE SMOOTH"
);
},
{
closed = 1;
nodes = (
"162 17 OFFCURVE",
"106 102 OFFCURVE",
"106 231 CURVE SMOOTH",
"106 268 OFFCURVE",
"110 308 OFFCURVE",
"119 350 CURVE SMOOTH",
"158 542 OFFCURVE",
"262 683 OFFCURVE",
"427 683 CURVE SMOOTH",
"556 683 OFFCURVE",
"613 597 OFFCURVE",
"613 467 CURVE SMOOTH",
"613 431 OFFCURVE",
"608 392 OFFCURVE",
"600 350 CURVE SMOOTH",
"561 157 OFFCURVE",
"456 17 OFFCURVE",
"291 17 CURVE SMOOTH"
);
},
{
closed = 1;
nodes = (
"382 803 OFFCURVE",
"428 838 OFFCURVE",
"462 873 CURVE",
"467 873 LINE",
"487 838 OFFCURVE",
"517 803 OFFCURVE",
"546 778 CURVE",
"571 800 LINE",
"540 827 OFFCURVE",
"506 866 OFFCURVE",
"483 910 CURVE",
"461 910 LINE",
"420 866 OFFCURVE",
"369 827 OFFCURVE",
"328 800 CURVE",
"344 778 LINE"
);
}
);
width = 654;
}
);
leftKerningGroup = O;
note = Ocircumflex;
rightKerningGroup = O;
unicode = 00D4;
},
{
glyphname = Ocircumflexacute;
lastChange = "2015-10-26 01:49:28 +0000";
layers = (
{
layerId = "DC57E17D-D7E6-498D-B8B0-08C45E75F177";
name = "Light Italic";
paths = (
{
closed = 1;
nodes = (
"473 -10 OFFCURVE",
"603 127 OFFCURVE",
"649 350 CURVE SMOOTH",
"658 392 OFFCURVE",
"662 431 OFFCURVE",
"662 467 CURVE SMOOTH",
"662 619 OFFCURVE",
"584 710 OFFCURVE",
"432 710 CURVE SMOOTH",
"244 710 OFFCURVE",
"115 572 OFFCURVE",
"70 350 CURVE SMOOTH",
"61 307 OFFCURVE",
"57 267 OFFCURVE",
"57 230 CURVE SMOOTH",
"57 79 OFFCURVE",
"133 -10 OFFCURVE",
"285 -10 CURVE SMOOTH"
);
},
{
closed = 1;
nodes = (
"162 17 OFFCURVE",
"106 102 OFFCURVE",
"106 231 CURVE SMOOTH",
"106 268 OFFCURVE",
"110 308 OFFCURVE",
"119 350 CURVE SMOOTH",
"158 542 OFFCURVE",
"262 683 OFFCURVE",
"427 683 CURVE SMOOTH",
"556 683 OFFCURVE",
"613 597 OFFCURVE",
"613 467 CURVE SMOOTH",
"613 431 OFFCURVE",
"608 392 OFFCURVE",
"600 350 CURVE SMOOTH",
"561 157 OFFCURVE",
"456 17 OFFCURVE",
"291 17 CURVE SMOOTH"
);
},
{
closed = 1;
nodes = (
"383 803 OFFCURVE",
"428 838 OFFCURVE",
"462 873 CURVE",
"468 873 LINE",
"488 838 OFFCURVE",
"517 803 OFFCURVE",
"547 778 CURVE",
"572 800 LINE",
"541 827 OFFCURVE",
"506 866 OFFCURVE",
"484 910 CURVE",
"461 910 LINE",
"421 866 OFFCURVE",
"370 827 OFFCURVE",
"328 800 CURVE",
"345 778 LINE"
);
},
{
closed = 1;
nodes = (
"692 953 LINE",
"713 963 OFFCURVE",
"724 978 OFFCURVE",
"724 990 CURVE SMOOTH",
"724 998 OFFCURVE",
"719 1003 OFFCURVE",
"710 1003 CURVE SMOOTH",
"699 1003 OFFCURVE",
"684 996 OFFCURVE",
"671 984 CURVE",
"561 899 LINE",
"567 886 LINE"
);
}
);
width = 654;
}
);
leftKerningGroup = O;
note = Ocircumflexacute;
rightKerningGroup = O;
unicode = 1ED0;
},
{
glyphname = Ocircumflexdotbelow;
lastChange = "2015-10-26 01:49:30 +0000";
layers = (
{
layerId = "DC57E17D-D7E6-498D-B8B0-08C45E75F177";
name = "Light Italic";
paths = (
{
closed = 1;
nodes = (
"473 -10 OFFCURVE",
"603 127 OFFCURVE",
"649 350 CURVE SMOOTH",
"658 392 OFFCURVE",
"662 431 OFFCURVE",
"662 467 CURVE SMOOTH",
"662 619 OFFCURVE",
"584 710 OFFCURVE",
"432 710 CURVE SMOOTH",
"244 710 OFFCURVE",
"115 572 OFFCURVE",
"70 350 CURVE SMOOTH",
"61 307 OFFCURVE",
"57 267 OFFCURVE",
"57 230 CURVE SMOOTH",
"57 79 OFFCURVE",
"133 -10 OFFCURVE",
"285 -10 CURVE SMOOTH"
);
},
{
closed = 1;
nodes = (
"279 -133 OFFCURVE",
"296 -120 OFFCURVE",
"300 -98 CURVE",
"301 -95 OFFCURVE",
"301 -92 OFFCURVE",
"301 -89 CURVE SMOOTH",
"301 -72 OFFCURVE",
"291 -63 OFFCURVE",
"276 -63 CURVE SMOOTH",
"256 -63 OFFCURVE",
"240 -76 OFFCURVE",
"236 -98 CURVE",
"235 -102 OFFCURVE",
"235 -105 OFFCURVE",
"235 -108 CURVE SMOOTH",
"235 -124 OFFCURVE",
"245 -133 OFFCURVE",
"261 -133 CURVE SMOOTH"
);
},
{
closed = 1;
nodes = (
"162 17 OFFCURVE",
"106 102 OFFCURVE",
"106 231 CURVE SMOOTH",
"106 268 OFFCURVE",
"110 308 OFFCURVE",
"119 350 CURVE SMOOTH",
"158 542 OFFCURVE",
"262 683 OFFCURVE",
"427 683 CURVE SMOOTH",
"556 683 OFFCURVE",
"613 597 OFFCURVE",
"613 467 CURVE SMOOTH",
"613 431 OFFCURVE",
"608 392 OFFCURVE",
"600 350 CURVE SMOOTH",
"561 157 OFFCURVE",
"456 17 OFFCURVE",
"291 17 CURVE SMOOTH"
);
},
{
closed = 1;
nodes = (
"382 803 OFFCURVE",
"428 838 OFFCURVE",
"462 873 CURVE",
"467 873 LINE",
"487 838 OFFCURVE",
"517 803 OFFCURVE",
"546 778 CURVE",
"571 800 LINE",
"540 827 OFFCURVE",
"506 866 OFFCURVE",
"483 910 CURVE",
"461 910 LINE",
"420 866 OFFCURVE",
"369 827 OFFCURVE",
"328 800 CURVE",
"344 778 LINE"
);
}
);
width = 654;
}
);
leftKerningGroup = O;
note = Ocircumflexdotbelow;
rightKerningGroup = O;
unicode = 1ED8;
},
{
glyphname = Ocircumflexgrave;
lastChange = "2015-10-26 01:49:29 +0000";
layers = (
{
layerId = "DC57E17D-D7E6-498D-B8B0-08C45E75F177";
name = "Light Italic";
paths = (
{
closed = 1;
nodes = (
"473 -10 OFFCURVE",
"603 127 OFFCURVE",
"649 350 CURVE SMOOTH",
"658 392 OFFCURVE",
"662 431 OFFCURVE",
"662 467 CURVE SMOOTH",
"662 619 OFFCURVE",
"584 710 OFFCURVE",
"432 710 CURVE SMOOTH",
"244 710 OFFCURVE",
"115 572 OFFCURVE",
"70 350 CURVE SMOOTH",
"61 307 OFFCURVE",
"57 267 OFFCURVE",
"57 230 CURVE SMOOTH",
"57 79 OFFCURVE",
"133 -10 OFFCURVE",
"285 -10 CURVE SMOOTH"
);
},
{
closed = 1;
nodes = (
"162 17 OFFCURVE",
"106 102 OFFCURVE",
"106 231 CURVE SMOOTH",
"106 268 OFFCURVE",
"110 308 OFFCURVE",
"119 350 CURVE SMOOTH",
"158 542 OFFCURVE",
"262 683 OFFCURVE",
"427 683 CURVE SMOOTH",
"556 683 OFFCURVE",
"613 597 OFFCURVE",
"613 467 CURVE SMOOTH",
"613 431 OFFCURVE",
"608 392 OFFCURVE",
"600 350 CURVE SMOOTH",
"561 157 OFFCURVE",
"456 17 OFFCURVE",
"291 17 CURVE SMOOTH"
);
},
{
closed = 1;
nodes = (
"391 899 LINE",
"320 976 LINE SMOOTH",
"307 989 OFFCURVE",
"298 1003 OFFCURVE",
"283 1003 CURVE SMOOTH",
"271 1003 OFFCURVE",
"261 991 OFFCURVE",
"261 980 CURVE SMOOTH",
"261 969 OFFCURVE",
"272 958 OFFCURVE",
"288 947 CURVE SMOOTH",
"378 886 LINE"
);
},
{
closed = 1;
nodes = (
"383 803 OFFCURVE",
"428 838 OFFCURVE",
"462 873 CURVE",
"468 873 LINE",
"488 838 OFFCURVE",
"517 803 OFFCURVE",
"547 778 CURVE",
"572 800 LINE",
"541 827 OFFCURVE",
"506 866 OFFCURVE",
"484 910 CURVE",
"461 910 LINE",
"421 866 OFFCURVE",
"370 827 OFFCURVE",
"328 800 CURVE",
"345 778 LINE"
);
}
);
width = 654;
}
);
leftKerningGroup = O;
note = Ocircumflexgrave;
rightKerningGroup = O;
unicode = 1ED2;
},
{
glyphname = Ocircumflexhookabove;
lastChange = "2015-10-26 01:49:29 +0000";
layers = (
{
layerId = "DC57E17D-D7E6-498D-B8B0-08C45E75F177";
name = "Light Italic";
paths = (
{
closed = 1;
nodes = (
"473 -10 OFFCURVE",
"603 127 OFFCURVE",
"649 350 CURVE SMOOTH",
"658 392 OFFCURVE",
"662 431 OFFCURVE",
"662 467 CURVE SMOOTH",
"662 619 OFFCURVE",
"584 710 OFFCURVE",
"432 710 CURVE SMOOTH",
"244 710 OFFCURVE",
"115 572 OFFCURVE",
"70 350 CURVE SMOOTH",
"61 307 OFFCURVE",
"57 267 OFFCURVE",
"57 230 CURVE SMOOTH",
"57 79 OFFCURVE",
"133 -10 OFFCURVE",
"285 -10 CURVE SMOOTH"
);
},
{
closed = 1;
nodes = (
"162 17 OFFCURVE",
"106 102 OFFCURVE",
"106 231 CURVE SMOOTH",
"106 268 OFFCURVE",
"110 308 OFFCURVE",
"119 350 CURVE SMOOTH",
"158 542 OFFCURVE",
"262 683 OFFCURVE",
"427 683 CURVE SMOOTH",
"556 683 OFFCURVE",
"613 597 OFFCURVE",
"613 467 CURVE SMOOTH",
"613 431 OFFCURVE",
"608 392 OFFCURVE",
"600 350 CURVE SMOOTH",
"561 157 OFFCURVE",
"456 17 OFFCURVE",
"291 17 CURVE SMOOTH"
);
},
{
closed = 1;
nodes = (
"385 810 OFFCURVE",
"430 845 OFFCURVE",
"464 880 CURVE",
"469 880 LINE",
"490 845 OFFCURVE",
"519 810 OFFCURVE",
"549 785 CURVE",
"574 807 LINE",
"543 834 OFFCURVE",
"508 873 OFFCURVE",
"486 917 CURVE",
"463 917 LINE",
"423 873 OFFCURVE",
"372 834 OFFCURVE",
"330 807 CURVE",
"347 785 LINE"
);
},
{
closed = 1;
nodes = (
"578 874 LINE",
"595 923 LINE",
"637 928 OFFCURVE",
"662 946 OFFCURVE",
"670 982 CURVE SMOOTH",
"671 987 OFFCURVE",
"672 992 OFFCURVE",
"672 996 CURVE SMOOTH",
"672 1027 OFFCURVE",
"645 1040 OFFCURVE",
"614 1040 CURVE SMOOTH",
"592 1040 OFFCURVE",
"571 1033 OFFCURVE",
"556 1026 CURVE",
"557 1006 LINE",
"575 1015 OFFCURVE",
"589 1018 OFFCURVE",
"602 1018 CURVE SMOOTH",
"629 1018 OFFCURVE",
"641 1007 OFFCURVE",
"641 991 CURVE SMOOTH",
"641 965 OFFCURVE",
"621 941 OFFCURVE",
"579 941 CURVE SMOOTH",
"566 941 LINE",
"558 874 LINE"
);
}
);
width = 654;
}
);
leftKerningGroup = O;
note = Ocircumflexhookabove;
rightKerningGroup = O;
unicode = 1ED4;
},
{
glyphname = Ocircumflextilde;
lastChange = "2015-10-26 01:49:28 +0000";
layers = (
{
layerId = "DC57E17D-D7E6-498D-B8B0-08C45E75F177";
name = "Light Italic";
paths = (
{
closed = 1;
nodes = (
"473 -10 OFFCURVE",
"603 127 OFFCURVE",
"649 350 CURVE SMOOTH",
"658 392 OFFCURVE",
"662 431 OFFCURVE",
"662 467 CURVE SMOOTH",
"662 619 OFFCURVE",
"584 710 OFFCURVE",
"432 710 CURVE SMOOTH",
"244 710 OFFCURVE",
"115 572 OFFCURVE",
"70 350 CURVE SMOOTH",
"61 307 OFFCURVE",
"57 267 OFFCURVE",
"57 230 CURVE SMOOTH",
"57 79 OFFCURVE",
"133 -10 OFFCURVE",
"285 -10 CURVE SMOOTH"
);
},
{
closed = 1;
nodes = (
"162 17 OFFCURVE",
"106 102 OFFCURVE",
"106 231 CURVE SMOOTH",
"106 268 OFFCURVE",
"110 308 OFFCURVE",
"119 350 CURVE SMOOTH",
"158 542 OFFCURVE",
"262 683 OFFCURVE",
"427 683 CURVE SMOOTH",
"556 683 OFFCURVE",
"613 597 OFFCURVE",
"613 467 CURVE SMOOTH",
"613 431 OFFCURVE",
"608 392 OFFCURVE",
"600 350 CURVE SMOOTH",
"561 157 OFFCURVE",
"456 17 OFFCURVE",
"291 17 CURVE SMOOTH"
);
},
{
closed = 1;
nodes = (
"383 803 OFFCURVE",
"428 838 OFFCURVE",
"462 873 CURVE",
"468 873 LINE",
"488 838 OFFCURVE",
"517 803 OFFCURVE",
"547 778 CURVE",
"572 800 LINE",
"541 827 OFFCURVE",
"506 866 OFFCURVE",
"484 910 CURVE",
"461 910 LINE",
"421 866 OFFCURVE",
"370 827 OFFCURVE",
"328 800 CURVE",
"345 778 LINE"
);
},
{
closed = 1;
nodes = (
"360 943 LINE",
"376 980 OFFCURVE",
"400 1003 OFFCURVE",
"429 1003 CURVE SMOOTH",
"468 1003 OFFCURVE",
"500 944 OFFCURVE",
"540 944 CURVE SMOOTH",
"582 944 OFFCURVE",
"614 981 OFFCURVE",
"634 1039 CURVE",
"617 1039 LINE",
"601 998 OFFCURVE",
"579 975 OFFCURVE",
"549 975 CURVE SMOOTH",
"512 975 OFFCURVE",
"480 1033 OFFCURVE",
"437 1033 CURVE SMOOTH",
"399 1033 OFFCURVE",
"364 1006 OFFCURVE",
"344 943 CURVE"
);
}
);
width = 654;
}
);
leftKerningGroup = O;
note = Ocircumflextilde;
rightKerningGroup = O;
unicode = 1ED6;
},
{
glyphname = Odieresis;
lastChange = "2015-10-26 01:49:29 +0000";
layers = (
{
layerId = "DC57E17D-D7E6-498D-B8B0-08C45E75F177";
name = "Light Italic";
paths = (
{
closed = 1;
nodes = (
"473 -10 OFFCURVE",
"603 127 OFFCURVE",
"649 350 CURVE SMOOTH",
"658 392 OFFCURVE",
"662 431 OFFCURVE",
"662 467 CURVE SMOOTH",
"662 619 OFFCURVE",
"584 710 OFFCURVE",
"432 710 CURVE SMOOTH",
"244 710 OFFCURVE",
"115 572 OFFCURVE",
"70 350 CURVE SMOOTH",
"61 307 OFFCURVE",
"57 267 OFFCURVE",
"57 230 CURVE SMOOTH",
"57 79 OFFCURVE",
"133 -10 OFFCURVE",
"285 -10 CURVE SMOOTH"
);
},
{
closed = 1;
nodes = (
"162 17 OFFCURVE",
"106 102 OFFCURVE",
"106 231 CURVE SMOOTH",
"106 268 OFFCURVE",
"110 308 OFFCURVE",
"119 350 CURVE SMOOTH",
"158 542 OFFCURVE",
"262 683 OFFCURVE",
"427 683 CURVE SMOOTH",
"556 683 OFFCURVE",
"613 597 OFFCURVE",
"613 467 CURVE SMOOTH",
"613 431 OFFCURVE",
"608 392 OFFCURVE",
"600 350 CURVE SMOOTH",
"561 157 OFFCURVE",
"456 17 OFFCURVE",
"291 17 CURVE SMOOTH"
);
},
{
closed = 1;
nodes = (
"366 785 OFFCURVE",
"382 798 OFFCURVE",
"387 820 CURVE SMOOTH",
"388 823 OFFCURVE",
"388 827 OFFCURVE",
"388 830 CURVE SMOOTH",
"388 846 OFFCURVE",
"377 855 OFFCURVE",
"361 855 CURVE SMOOTH",
"340 855 OFFCURVE",
"323 838 OFFCURVE",
"323 809 CURVE SMOOTH",
"323 794 OFFCURVE",
"331 785 OFFCURVE",
"347 785 CURVE SMOOTH"
);
},
{
closed = 1;
nodes = (
"564 785 OFFCURVE",
"580 798 OFFCURVE",
"585 820 CURVE SMOOTH",
"586 823 OFFCURVE",
"586 826 OFFCURVE",
"586 829 CURVE SMOOTH",
"586 845 OFFCURVE",
"576 855 OFFCURVE",
"560 855 CURVE SMOOTH",
"540 855 OFFCURVE",
"525 842 OFFCURVE",
"520 820 CURVE SMOOTH",
"519 817 OFFCURVE",
"519 814 OFFCURVE",
"519 811 CURVE SMOOTH",
"519 794 OFFCURVE",
"529 785 OFFCURVE",
"545 785 CURVE SMOOTH"
);
}
);
width = 654;
}
);
leftKerningGroup = O;
note = Odieresis;
rightKerningGroup = O;
unicode = 00D6;
},
{
glyphname = Odotbelow;
lastChange = "2015-10-26 01:49:29 +0000";
layers = (
{
layerId = "DC57E17D-D7E6-498D-B8B0-08C45E75F177";
name = "Light Italic";
paths = (
{
closed = 1;
nodes = (
"473 -10 OFFCURVE",
"603 127 OFFCURVE",
"649 350 CURVE SMOOTH",
"658 392 OFFCURVE",
"662 431 OFFCURVE",
"662 467 CURVE SMOOTH",
"662 619 OFFCURVE",
"584 710 OFFCURVE",
"432 710 CURVE SMOOTH",
"244 710 OFFCURVE",
"115 572 OFFCURVE",
"70 350 CURVE SMOOTH",
"61 307 OFFCURVE",
"57 267 OFFCURVE",
"57 230 CURVE SMOOTH",
"57 79 OFFCURVE",
"133 -10 OFFCURVE",
"285 -10 CURVE SMOOTH"
);
},
{
closed = 1;
nodes = (
"279 -133 OFFCURVE",
"296 -120 OFFCURVE",
"300 -98 CURVE",
"301 -95 OFFCURVE",
"301 -92 OFFCURVE",
"301 -89 CURVE SMOOTH",
"301 -72 OFFCURVE",
"291 -63 OFFCURVE",
"276 -63 CURVE SMOOTH",
"256 -63 OFFCURVE",
"240 -76 OFFCURVE",
"236 -98 CURVE",
"235 -102 OFFCURVE",
"235 -105 OFFCURVE",
"235 -108 CURVE SMOOTH",
"235 -124 OFFCURVE",
"245 -133 OFFCURVE",
"261 -133 CURVE SMOOTH"
);
},
{
closed = 1;
nodes = (
"162 17 OFFCURVE",
"106 102 OFFCURVE",
"106 231 CURVE SMOOTH",
"106 268 OFFCURVE",
"110 308 OFFCURVE",
"119 350 CURVE SMOOTH",
"158 542 OFFCURVE",
"262 683 OFFCURVE",
"427 683 CURVE SMOOTH",
"556 683 OFFCURVE",
"613 597 OFFCURVE",
"613 467 CURVE SMOOTH",
"613 431 OFFCURVE",
"608 392 OFFCURVE",
"600 350 CURVE SMOOTH",
"561 157 OFFCURVE",
"456 17 OFFCURVE",
"291 17 CURVE SMOOTH"
);
}
);
width = 654;
}
);
leftKerningGroup = O;
note = Odotbelow;
rightKerningGroup = O;
unicode = 1ECC;
},
{
glyphname = Ograve;
lastChange = "2015-10-26 01:49:30 +0000";
layers = (
{
layerId = "DC57E17D-D7E6-498D-B8B0-08C45E75F177";
name = "Light Italic";
paths = (
{
closed = 1;
nodes = (
"473 -10 OFFCURVE",
"603 127 OFFCURVE",
"649 350 CURVE SMOOTH",
"658 392 OFFCURVE",
"662 431 OFFCURVE",
"662 467 CURVE SMOOTH",
"662 619 OFFCURVE",
"584 710 OFFCURVE",
"432 710 CURVE SMOOTH",
"244 710 OFFCURVE",
"115 572 OFFCURVE",
"70 350 CURVE SMOOTH",
"61 307 OFFCURVE",
"57 267 OFFCURVE",
"57 230 CURVE SMOOTH",
"57 79 OFFCURVE",
"133 -10 OFFCURVE",
"285 -10 CURVE SMOOTH"
);
},
{
closed = 1;
nodes = (
"162 17 OFFCURVE",
"106 102 OFFCURVE",
"106 231 CURVE SMOOTH",
"106 268 OFFCURVE",
"110 308 OFFCURVE",
"119 350 CURVE SMOOTH",
"158 542 OFFCURVE",
"262 683 OFFCURVE",
"427 683 CURVE SMOOTH",
"556 683 OFFCURVE",
"613 597 OFFCURVE",
"613 467 CURVE SMOOTH",
"613 431 OFFCURVE",
"608 392 OFFCURVE",
"600 350 CURVE SMOOTH",
"561 157 OFFCURVE",
"456 17 OFFCURVE",
"291 17 CURVE SMOOTH"
);
},
{
closed = 1;
nodes = (
"527 801 LINE",
"441 894 LINE",
"434 903 OFFCURVE",
"425 910 OFFCURVE",
"413 910 CURVE SMOOTH",
"399 910 OFFCURVE",
"390 900 OFFCURVE",
"390 886 CURVE SMOOTH",
"390 878 OFFCURVE",
"394 869 OFFCURVE",
"405 862 CURVE",
"515 786 LINE"
);
}
);
width = 654;
}
);
leftKerningGroup = O;
note = Ograve;
rightKerningGroup = O;
unicode = 00D2;
},
{
glyphname = Ohookabove;
lastChange = "2015-10-26 01:49:29 +0000";
layers = (
{
layerId = "DC57E17D-D7E6-498D-B8B0-08C45E75F177";
name = "Light Italic";
paths = (
{
closed = 1;
nodes = (
"473 -10 OFFCURVE",
"603 127 OFFCURVE",
"649 350 CURVE SMOOTH",
"658 392 OFFCURVE",
"662 431 OFFCURVE",
"662 467 CURVE SMOOTH",
"662 619 OFFCURVE",
"584 710 OFFCURVE",
"432 710 CURVE SMOOTH",
"244 710 OFFCURVE",
"115 572 OFFCURVE",
"70 350 CURVE SMOOTH",
"61 307 OFFCURVE",
"57 267 OFFCURVE",
"57 230 CURVE SMOOTH",
"57 79 OFFCURVE",
"133 -10 OFFCURVE",
"285 -10 CURVE SMOOTH"
);
},
{
closed = 1;
nodes = (
"162 17 OFFCURVE",
"106 102 OFFCURVE",
"106 231 CURVE SMOOTH",
"106 268 OFFCURVE",
"110 308 OFFCURVE",
"119 350 CURVE SMOOTH",
"158 542 OFFCURVE",
"262 683 OFFCURVE",
"427 683 CURVE SMOOTH",
"556 683 OFFCURVE",
"613 597 OFFCURVE",
"613 467 CURVE SMOOTH",
"613 431 OFFCURVE",
"608 392 OFFCURVE",
"600 350 CURVE SMOOTH",
"561 157 OFFCURVE",
"456 17 OFFCURVE",
"291 17 CURVE SMOOTH"
);
},
{
closed = 1;
nodes = (
"452 777 LINE",
"475 838 LINE",
"525 843 OFFCURVE",
"554 869 OFFCURVE",
"563 908 CURVE SMOOTH",
"564 913 OFFCURVE",
"565 919 OFFCURVE",
"565 923 CURVE SMOOTH",
"565 961 OFFCURVE",
"535 978 OFFCURVE",
"497 978 CURVE SMOOTH",
"470 978 OFFCURVE",
"444 970 OFFCURVE",
"425 962 CURVE",
"427 938 LINE",
"448 949 OFFCURVE",
"468 954 OFFCURVE",
"484 954 CURVE SMOOTH",
"516 954 OFFCURVE",
"531 939 OFFCURVE",
"531 919 CURVE SMOOTH",
"531 916 OFFCURVE",
"531 913 OFFCURVE",
"530 910 CURVE SMOOTH",
"524 883 OFFCURVE",
"502 858 OFFCURVE",
"456 858 CURVE SMOOTH",
"442 858 LINE",
"430 777 LINE"
);
}
);
width = 654;
}
);
leftKerningGroup = O;
note = Ohookabove;
rightKerningGroup = O;
unicode = 1ECE;
},
{
glyphname = Ohorn;
lastChange = "2015-10-26 01:49:28 +0000";
layers = (
{
layerId = "DC57E17D-D7E6-498D-B8B0-08C45E75F177";
name = "Light Italic";
paths = (
{
closed = 1;
nodes = (
"473 -10 OFFCURVE",
"603 127 OFFCURVE",
"649 350 CURVE SMOOTH",
"658 392 OFFCURVE",
"662 431 OFFCURVE",
"662 467 CURVE SMOOTH",
"662 619 OFFCURVE",
"584 710 OFFCURVE",
"432 710 CURVE SMOOTH",
"244 710 OFFCURVE",
"115 572 OFFCURVE",
"70 350 CURVE SMOOTH",
"61 307 OFFCURVE",
"57 267 OFFCURVE",
"57 230 CURVE SMOOTH",
"57 79 OFFCURVE",
"133 -10 OFFCURVE",
"285 -10 CURVE SMOOTH"
);
},
{
closed = 1;
nodes = (
"162 17 OFFCURVE",
"106 102 OFFCURVE",
"106 231 CURVE SMOOTH",
"106 268 OFFCURVE",
"110 308 OFFCURVE",
"119 350 CURVE SMOOTH",
"158 542 OFFCURVE",
"262 683 OFFCURVE",
"427 683 CURVE SMOOTH",
"556 683 OFFCURVE",
"613 597 OFFCURVE",
"613 467 CURVE SMOOTH",
"613 431 OFFCURVE",
"608 392 OFFCURVE",
"600 350 CURVE SMOOTH",
"561 157 OFFCURVE",
"456 17 OFFCURVE",
"291 17 CURVE SMOOTH"
);
},
{
closed = 1;
nodes = (
"710 574 OFFCURVE",
"745 631 OFFCURVE",
"754 671 CURVE SMOOTH",
"755 679 OFFCURVE",
"756 686 OFFCURVE",
"756 693 CURVE SMOOTH",
"756 716 OFFCURVE",
"747 732 OFFCURVE",
"719 732 CURVE SMOOTH",
"689 732 OFFCURVE",
"670 709 OFFCURVE",
"670 682 CURVE SMOOTH",
"670 664 OFFCURVE",
"682 655 OFFCURVE",
"698 655 CURVE SMOOTH",
"705 655 OFFCURVE",
"713 657 OFFCURVE",
"719 661 CURVE",
"708 616 OFFCURVE",
"672 577 OFFCURVE",
"637 555 CURVE",
"648 535 LINE"
);
}
);
width = 660;
}
);
leftKerningGroup = O;
note = Ohorn;
rightKerningGroup = O;
unicode = 01A0;
},
{
glyphname = Ohornacute;
lastChange = "2015-10-26 01:49:28 +0000";
layers = (
{
layerId = "DC57E17D-D7E6-498D-B8B0-08C45E75F177";
name = "Light Italic";
paths = (
{
closed = 1;
nodes = (
"473 -10 OFFCURVE",
"603 127 OFFCURVE",
"649 350 CURVE SMOOTH",
"658 392 OFFCURVE",
"662 431 OFFCURVE",
"662 467 CURVE SMOOTH",
"662 619 OFFCURVE",
"584 710 OFFCURVE",
"432 710 CURVE SMOOTH",
"244 710 OFFCURVE",
"115 572 OFFCURVE",
"70 350 CURVE SMOOTH",
"61 307 OFFCURVE",
"57 267 OFFCURVE",
"57 230 CURVE SMOOTH",
"57 79 OFFCURVE",
"133 -10 OFFCURVE",
"285 -10 CURVE SMOOTH"
);
},
{
closed = 1;
nodes = (
"162 17 OFFCURVE",
"106 102 OFFCURVE",
"106 231 CURVE SMOOTH",
"106 268 OFFCURVE",
"110 308 OFFCURVE",
"119 350 CURVE SMOOTH",
"158 542 OFFCURVE",
"262 683 OFFCURVE",
"427 683 CURVE SMOOTH",
"556 683 OFFCURVE",
"613 597 OFFCURVE",
"613 467 CURVE SMOOTH",
"613 431 OFFCURVE",
"608 392 OFFCURVE",
"600 350 CURVE SMOOTH",
"561 157 OFFCURVE",
"456 17 OFFCURVE",
"291 17 CURVE SMOOTH"
);
},
{
closed = 1;
nodes = (
"521 861 LINE SMOOTH",
"539 870 OFFCURVE",
"548 883 OFFCURVE",
"548 894 CURVE SMOOTH",
"548 903 OFFCURVE",
"543 909 OFFCURVE",
"533 909 CURVE SMOOTH",
"519 909 OFFCURVE",
"507 900 OFFCURVE",
"499 893 CURVE",
"374 800 LINE",
"381 785 LINE"
);
},
{
closed = 1;
nodes = (
"710 574 OFFCURVE",
"745 631 OFFCURVE",
"754 671 CURVE SMOOTH",
"755 679 OFFCURVE",
"756 686 OFFCURVE",
"756 693 CURVE SMOOTH",
"756 716 OFFCURVE",
"747 732 OFFCURVE",
"719 732 CURVE SMOOTH",
"689 732 OFFCURVE",
"670 709 OFFCURVE",
"670 682 CURVE SMOOTH",
"670 664 OFFCURVE",
"682 655 OFFCURVE",
"698 655 CURVE SMOOTH",
"705 655 OFFCURVE",
"713 657 OFFCURVE",
"719 661 CURVE",
"708 616 OFFCURVE",
"672 577 OFFCURVE",
"637 555 CURVE",
"648 535 LINE"
);
}
);
width = 660;
}
);
leftKerningGroup = O;
note = Ohornacute;
rightKerningGroup = O;
unicode = 1EDA;
},
{
glyphname = Ohorndotbelow;
lastChange = "2015-10-26 01:49:28 +0000";
layers = (
{
layerId = "DC57E17D-D7E6-498D-B8B0-08C45E75F177";
name = "Light Italic";
paths = (
{
closed = 1;
nodes = (
"473 -10 OFFCURVE",
"603 127 OFFCURVE",
"649 350 CURVE SMOOTH",
"658 392 OFFCURVE",
"662 431 OFFCURVE",
"662 467 CURVE SMOOTH",
"662 619 OFFCURVE",
"584 710 OFFCURVE",
"432 710 CURVE SMOOTH",
"244 710 OFFCURVE",
"115 572 OFFCURVE",
"70 350 CURVE SMOOTH",
"61 307 OFFCURVE",
"57 267 OFFCURVE",
"57 230 CURVE SMOOTH",
"57 79 OFFCURVE",
"133 -10 OFFCURVE",
"285 -10 CURVE SMOOTH"
);
},
{
closed = 1;
nodes = (
"279 -133 OFFCURVE",
"296 -120 OFFCURVE",
"300 -98 CURVE",
"301 -95 OFFCURVE",
"301 -92 OFFCURVE",
"301 -89 CURVE SMOOTH",
"301 -72 OFFCURVE",
"291 -63 OFFCURVE",
"276 -63 CURVE SMOOTH",
"256 -63 OFFCURVE",
"240 -76 OFFCURVE",
"236 -98 CURVE",
"235 -102 OFFCURVE",
"235 -105 OFFCURVE",
"235 -108 CURVE SMOOTH",
"235 -124 OFFCURVE",
"245 -133 OFFCURVE",
"261 -133 CURVE SMOOTH"
);
},
{
closed = 1;
nodes = (
"162 17 OFFCURVE",
"106 102 OFFCURVE",
"106 231 CURVE SMOOTH",
"106 268 OFFCURVE",
"110 308 OFFCURVE",
"119 350 CURVE SMOOTH",
"158 542 OFFCURVE",
"262 683 OFFCURVE",
"427 683 CURVE SMOOTH",
"556 683 OFFCURVE",
"613 597 OFFCURVE",
"613 467 CURVE SMOOTH",
"613 431 OFFCURVE",
"608 392 OFFCURVE",
"600 350 CURVE SMOOTH",
"561 157 OFFCURVE",
"456 17 OFFCURVE",
"291 17 CURVE SMOOTH"
);
},
{
closed = 1;
nodes = (
"710 574 OFFCURVE",
"745 631 OFFCURVE",
"754 671 CURVE SMOOTH",
"755 679 OFFCURVE",
"756 686 OFFCURVE",
"756 693 CURVE SMOOTH",
"756 716 OFFCURVE",
"747 732 OFFCURVE",
"719 732 CURVE SMOOTH",
"689 732 OFFCURVE",
"670 709 OFFCURVE",
"670 682 CURVE SMOOTH",
"670 664 OFFCURVE",
"682 655 OFFCURVE",
"698 655 CURVE SMOOTH",
"705 655 OFFCURVE",
"713 657 OFFCURVE",
"719 661 CURVE",
"708 616 OFFCURVE",
"672 577 OFFCURVE",
"637 555 CURVE",
"648 535 LINE"
);
}
);
width = 660;
}
);
leftKerningGroup = O;
note = Ohorndotbelow;
rightKerningGroup = O;
unicode = 1EE2;
},
{
glyphname = Ohorngrave;
lastChange = "2015-10-26 01:49:28 +0000";
layers = (
{
layerId = "DC57E17D-D7E6-498D-B8B0-08C45E75F177";
name = "Light Italic";
paths = (
{
closed = 1;
nodes = (
"473 -10 OFFCURVE",
"603 127 OFFCURVE",
"649 350 CURVE SMOOTH",
"658 392 OFFCURVE",
"662 431 OFFCURVE",
"662 467 CURVE SMOOTH",
"662 619 OFFCURVE",
"584 710 OFFCURVE",
"432 710 CURVE SMOOTH",
"244 710 OFFCURVE",
"115 572 OFFCURVE",
"70 350 CURVE SMOOTH",
"61 307 OFFCURVE",
"57 267 OFFCURVE",
"57 230 CURVE SMOOTH",
"57 79 OFFCURVE",
"133 -10 OFFCURVE",
"285 -10 CURVE SMOOTH"
);
},
{
closed = 1;
nodes = (
"162 17 OFFCURVE",
"106 102 OFFCURVE",
"106 231 CURVE SMOOTH",
"106 268 OFFCURVE",
"110 308 OFFCURVE",
"119 350 CURVE SMOOTH",
"158 542 OFFCURVE",
"262 683 OFFCURVE",
"427 683 CURVE SMOOTH",
"556 683 OFFCURVE",
"613 597 OFFCURVE",
"613 467 CURVE SMOOTH",
"613 431 OFFCURVE",
"608 392 OFFCURVE",
"600 350 CURVE SMOOTH",
"561 157 OFFCURVE",
"456 17 OFFCURVE",
"291 17 CURVE SMOOTH"
);
},
{
closed = 1;
nodes = (
"528 800 LINE",
"442 893 LINE",
"435 902 OFFCURVE",
"426 909 OFFCURVE",
"414 909 CURVE SMOOTH",
"400 909 OFFCURVE",
"391 899 OFFCURVE",
"391 885 CURVE SMOOTH",
"391 877 OFFCURVE",
"395 868 OFFCURVE",
"406 861 CURVE",
"516 785 LINE"
);
},
{
closed = 1;
nodes = (
"710 574 OFFCURVE",
"745 631 OFFCURVE",
"754 671 CURVE SMOOTH",
"755 679 OFFCURVE",
"756 686 OFFCURVE",
"756 693 CURVE SMOOTH",
"756 716 OFFCURVE",
"747 732 OFFCURVE",
"719 732 CURVE SMOOTH",
"689 732 OFFCURVE",
"670 709 OFFCURVE",
"670 682 CURVE SMOOTH",
"670 664 OFFCURVE",
"682 655 OFFCURVE",
"698 655 CURVE SMOOTH",
"705 655 OFFCURVE",
"713 657 OFFCURVE",
"719 661 CURVE",
"708 616 OFFCURVE",
"672 577 OFFCURVE",
"637 555 CURVE",
"648 535 LINE"
);
}
);
width = 660;
}
);
leftKerningGroup = O;
note = Ohorngrave;
rightKerningGroup = O;
unicode = 1EDC;
},
{
glyphname = Ohornhookabove;
lastChange = "2015-10-26 01:49:28 +0000";
layers = (
{
layerId = "DC57E17D-D7E6-498D-B8B0-08C45E75F177";
name = "Light Italic";
paths = (
{
closed = 1;
nodes = (
"473 -10 OFFCURVE",
"603 127 OFFCURVE",
"649 350 CURVE SMOOTH",
"658 392 OFFCURVE",
"662 431 OFFCURVE",
"662 467 CURVE SMOOTH",
"662 619 OFFCURVE",
"584 710 OFFCURVE",
"432 710 CURVE SMOOTH",
"244 710 OFFCURVE",
"115 572 OFFCURVE",
"70 350 CURVE SMOOTH",
"61 307 OFFCURVE",
"57 267 OFFCURVE",
"57 230 CURVE SMOOTH",
"57 79 OFFCURVE",
"133 -10 OFFCURVE",
"285 -10 CURVE SMOOTH"
);
},
{
closed = 1;
nodes = (
"162 17 OFFCURVE",
"106 102 OFFCURVE",
"106 231 CURVE SMOOTH",
"106 268 OFFCURVE",
"110 308 OFFCURVE",
"119 350 CURVE SMOOTH",
"158 542 OFFCURVE",
"262 683 OFFCURVE",
"427 683 CURVE SMOOTH",
"556 683 OFFCURVE",
"613 597 OFFCURVE",
"613 467 CURVE SMOOTH",
"613 431 OFFCURVE",
"608 392 OFFCURVE",
"600 350 CURVE SMOOTH",
"561 157 OFFCURVE",
"456 17 OFFCURVE",
"291 17 CURVE SMOOTH"
);
},
{
closed = 1;
nodes = (
"710 574 OFFCURVE",
"745 631 OFFCURVE",
"754 671 CURVE SMOOTH",
"755 679 OFFCURVE",
"756 686 OFFCURVE",
"756 693 CURVE SMOOTH",
"756 716 OFFCURVE",
"747 732 OFFCURVE",
"719 732 CURVE SMOOTH",
"689 732 OFFCURVE",
"670 709 OFFCURVE",
"670 682 CURVE SMOOTH",
"670 664 OFFCURVE",
"682 655 OFFCURVE",
"698 655 CURVE SMOOTH",
"705 655 OFFCURVE",
"713 657 OFFCURVE",
"719 661 CURVE",
"708 616 OFFCURVE",
"672 577 OFFCURVE",
"637 555 CURVE",
"648 535 LINE"
);
},
{
closed = 1;
nodes = (
"453 777 LINE",
"476 838 LINE",
"526 843 OFFCURVE",
"555 869 OFFCURVE",
"564 908 CURVE SMOOTH",
"565 913 OFFCURVE",
"565 918 OFFCURVE",
"565 923 CURVE SMOOTH",
"565 961 OFFCURVE",
"535 978 OFFCURVE",
"498 978 CURVE SMOOTH",
"471 978 OFFCURVE",
"444 970 OFFCURVE",
"426 962 CURVE",
"428 938 LINE",
"449 949 OFFCURVE",
"469 954 OFFCURVE",
"485 954 CURVE SMOOTH",
"517 954 OFFCURVE",
"532 939 OFFCURVE",
"532 919 CURVE SMOOTH",
"532 916 OFFCURVE",
"532 913 OFFCURVE",
"531 910 CURVE SMOOTH",
"525 883 OFFCURVE",
"503 858 OFFCURVE",
"457 858 CURVE SMOOTH",
"443 858 LINE",
"431 777 LINE"
);
}
);
width = 660;
}
);
leftKerningGroup = O;
note = Ohornhookabove;
rightKerningGroup = O;
unicode = 1EDE;
},
{
glyphname = Ohorntilde;
lastChange = "2015-10-26 01:49:28 +0000";
layers = (
{
layerId = "DC57E17D-D7E6-498D-B8B0-08C45E75F177";
name = "Light Italic";
paths = (
{
closed = 1;
nodes = (
"473 -10 OFFCURVE",
"603 127 OFFCURVE",
"649 350 CURVE SMOOTH",
"658 392 OFFCURVE",
"662 431 OFFCURVE",
"662 467 CURVE SMOOTH",
"662 619 OFFCURVE",
"584 710 OFFCURVE",
"432 710 CURVE SMOOTH",
"244 710 OFFCURVE",
"115 572 OFFCURVE",
"70 350 CURVE SMOOTH",
"61 307 OFFCURVE",
"57 267 OFFCURVE",
"57 230 CURVE SMOOTH",
"57 79 OFFCURVE",
"133 -10 OFFCURVE",
"285 -10 CURVE SMOOTH"
);
},
{
closed = 1;
nodes = (
"162 17 OFFCURVE",
"106 102 OFFCURVE",
"106 231 CURVE SMOOTH",
"106 268 OFFCURVE",
"110 308 OFFCURVE",
"119 350 CURVE SMOOTH",
"158 542 OFFCURVE",
"262 683 OFFCURVE",
"427 683 CURVE SMOOTH",
"556 683 OFFCURVE",
"613 597 OFFCURVE",
"613 467 CURVE SMOOTH",
"613 431 OFFCURVE",
"608 392 OFFCURVE",
"600 350 CURVE SMOOTH",
"561 157 OFFCURVE",
"456 17 OFFCURVE",
"291 17 CURVE SMOOTH"
);
},
{
closed = 1;
nodes = (
"323 786 LINE",
"338 823 OFFCURVE",
"364 846 OFFCURVE",
"394 846 CURVE SMOOTH",
"434 846 OFFCURVE",
"469 787 OFFCURVE",
"513 787 CURVE SMOOTH",
"557 787 OFFCURVE",
"591 824 OFFCURVE",
"611 882 CURVE",
"594 882 LINE",
"576 841 OFFCURVE",
"552 818 OFFCURVE",
"520 818 CURVE SMOOTH",
"481 818 OFFCURVE",
"448 876 OFFCURVE",
"402 876 CURVE SMOOTH",
"362 876 OFFCURVE",
"325 849 OFFCURVE",
"305 786 CURVE"
);
},
{
closed = 1;
nodes = (
"710 574 OFFCURVE",
"745 631 OFFCURVE",
"754 671 CURVE SMOOTH",
"755 679 OFFCURVE",
"756 686 OFFCURVE",
"756 693 CURVE SMOOTH",
"756 716 OFFCURVE",
"747 732 OFFCURVE",
"719 732 CURVE SMOOTH",
"689 732 OFFCURVE",
"670 709 OFFCURVE",
"670 682 CURVE SMOOTH",
"670 664 OFFCURVE",
"682 655 OFFCURVE",
"698 655 CURVE SMOOTH",
"705 655 OFFCURVE",
"713 657 OFFCURVE",
"719 661 CURVE",
"708 616 OFFCURVE",
"672 577 OFFCURVE",
"637 555 CURVE",
"648 535 LINE"
);
}
);
width = 660;
}
);
leftKerningGroup = O;
note = Ohorntilde;
rightKerningGroup = O;
unicode = 1EE0;
},
{
glyphname = Ohungarumlaut;
lastChange = "2015-10-26 01:49:29 +0000";
layers = (
{
layerId = "DC57E17D-D7E6-498D-B8B0-08C45E75F177";
name = "Light Italic";
paths = (
{
closed = 1;
nodes = (
"473 -10 OFFCURVE",
"603 127 OFFCURVE",
"649 350 CURVE SMOOTH",
"658 392 OFFCURVE",
"662 431 OFFCURVE",
"662 467 CURVE SMOOTH",
"662 619 OFFCURVE",
"584 710 OFFCURVE",
"432 710 CURVE SMOOTH",
"244 710 OFFCURVE",
"115 572 OFFCURVE",
"70 350 CURVE SMOOTH",
"61 307 OFFCURVE",
"57 267 OFFCURVE",
"57 230 CURVE SMOOTH",
"57 79 OFFCURVE",
"133 -10 OFFCURVE",
"285 -10 CURVE SMOOTH"
);
},
{
closed = 1;
nodes = (
"162 17 OFFCURVE",
"106 102 OFFCURVE",
"106 231 CURVE SMOOTH",
"106 268 OFFCURVE",
"110 308 OFFCURVE",
"119 350 CURVE SMOOTH",
"158 542 OFFCURVE",
"262 683 OFFCURVE",
"427 683 CURVE SMOOTH",
"556 683 OFFCURVE",
"613 597 OFFCURVE",
"613 467 CURVE SMOOTH",
"613 431 OFFCURVE",
"608 392 OFFCURVE",
"600 350 CURVE SMOOTH",
"561 157 OFFCURVE",
"456 17 OFFCURVE",
"291 17 CURVE SMOOTH"
);
},
{
closed = 1;
nodes = (
"477 862 LINE SMOOTH",
"494 871 OFFCURVE",
"504 882 OFFCURVE",
"504 895 CURVE SMOOTH",
"504 904 OFFCURVE",
"499 910 OFFCURVE",
"489 910 CURVE SMOOTH",
"475 910 OFFCURVE",
"463 901 OFFCURVE",
"455 894 CURVE",
"331 800 LINE",
"338 786 LINE"
);
},
{
closed = 1;
nodes = (
"654 862 LINE SMOOTH",
"670 871 OFFCURVE",
"680 882 OFFCURVE",
"680 895 CURVE SMOOTH",
"680 904 OFFCURVE",
"674 910 OFFCURVE",
"664 910 CURVE SMOOTH",
"652 910 OFFCURVE",
"638 901 OFFCURVE",
"631 894 CURVE",
"507 800 LINE",
"514 786 LINE"
);
}
);
width = 654;
}
);
leftKerningGroup = O;
note = Ohungarumlaut;
rightKerningGroup = O;
unicode = 0150;
},
{
glyphname = Omacron;
lastChange = "2015-10-26 01:49:28 +0000";
layers = (
{
layerId = "DC57E17D-D7E6-498D-B8B0-08C45E75F177";
name = "Light Italic";
paths = (
{
closed = 1;
nodes = (
"473 -10 OFFCURVE",
"603 127 OFFCURVE",
"649 350 CURVE SMOOTH",
"658 392 OFFCURVE",
"662 431 OFFCURVE",
"662 467 CURVE SMOOTH",
"662 619 OFFCURVE",
"584 710 OFFCURVE",
"432 710 CURVE SMOOTH",
"244 710 OFFCURVE",
"115 572 OFFCURVE",
"70 350 CURVE SMOOTH",
"61 307 OFFCURVE",
"57 267 OFFCURVE",
"57 230 CURVE SMOOTH",
"57 79 OFFCURVE",
"133 -10 OFFCURVE",
"285 -10 CURVE SMOOTH"
);
},
{
closed = 1;
nodes = (
"162 17 OFFCURVE",
"106 102 OFFCURVE",
"106 231 CURVE SMOOTH",
"106 268 OFFCURVE",
"110 308 OFFCURVE",
"119 350 CURVE SMOOTH",
"158 542 OFFCURVE",
"262 683 OFFCURVE",
"427 683 CURVE SMOOTH",
"556 683 OFFCURVE",
"613 597 OFFCURVE",
"613 467 CURVE SMOOTH",
"613 431 OFFCURVE",
"608 392 OFFCURVE",
"600 350 CURVE SMOOTH",
"561 157 OFFCURVE",
"456 17 OFFCURVE",
"291 17 CURVE SMOOTH"
);
},
{
closed = 1;
nodes = (
"592 802 LINE",
"597 829 LINE",
"315 829 LINE",
"310 802 LINE"
);
}
);
width = 654;
}
);
leftKerningGroup = O;
note = Omacron;
rightKerningGroup = O;
unicode = 014C;
},
{
glyphname = Oslash;
lastChange = "2015-10-26 01:49:28 +0000";
layers = (
{
layerId = "DC57E17D-D7E6-498D-B8B0-08C45E75F177";
name = "Light Italic";
paths = (
{
closed = 1;
nodes = (
"654 702 LINE",
"633 718 LINE",
"48 -10 LINE",
"68 -26 LINE"
);
},
{
closed = 1;
nodes = (
"473 -10 OFFCURVE",
"603 127 OFFCURVE",
"649 350 CURVE SMOOTH",
"658 392 OFFCURVE",
"662 431 OFFCURVE",
"662 467 CURVE SMOOTH",
"662 619 OFFCURVE",
"584 710 OFFCURVE",
"432 710 CURVE SMOOTH",
"244 710 OFFCURVE",
"115 572 OFFCURVE",
"70 350 CURVE SMOOTH",
"61 307 OFFCURVE",
"57 267 OFFCURVE",
"57 230 CURVE SMOOTH",
"57 79 OFFCURVE",
"133 -10 OFFCURVE",
"285 -10 CURVE SMOOTH"
);
},
{
closed = 1;
nodes = (
"162 17 OFFCURVE",
"106 102 OFFCURVE",
"106 231 CURVE SMOOTH",
"106 268 OFFCURVE",
"110 308 OFFCURVE",
"119 350 CURVE SMOOTH",
"158 542 OFFCURVE",
"262 683 OFFCURVE",
"427 683 CURVE SMOOTH",
"556 683 OFFCURVE",
"613 597 OFFCURVE",
"613 467 CURVE SMOOTH",
"613 431 OFFCURVE",
"608 392 OFFCURVE",
"600 350 CURVE SMOOTH",
"561 157 OFFCURVE",
"456 17 OFFCURVE",
"291 17 CURVE SMOOTH"
);
}
);
width = 654;
}
);
leftKerningGroup = O;
note = Oslash;
rightKerningGroup = O;
unicode = 00D8;
},
{
glyphname = Oslashacute;
lastChange = "2015-10-26 01:49:29 +0000";
layers = (
{
layerId = "DC57E17D-D7E6-498D-B8B0-08C45E75F177";
name = "Light Italic";
paths = (
{
closed = 1;
nodes = (
"654 702 LINE",
"633 718 LINE",
"48 -10 LINE",
"68 -26 LINE"
);
},
{
closed = 1;
nodes = (
"473 -10 OFFCURVE",
"603 127 OFFCURVE",
"649 350 CURVE SMOOTH",
"658 392 OFFCURVE",
"662 431 OFFCURVE",
"662 467 CURVE SMOOTH",
"662 619 OFFCURVE",
"584 710 OFFCURVE",
"432 710 CURVE SMOOTH",
"244 710 OFFCURVE",
"115 572 OFFCURVE",
"70 350 CURVE SMOOTH",
"61 307 OFFCURVE",
"57 267 OFFCURVE",
"57 230 CURVE SMOOTH",
"57 79 OFFCURVE",
"133 -10 OFFCURVE",
"285 -10 CURVE SMOOTH"
);
},
{
closed = 1;
nodes = (
"162 17 OFFCURVE",
"106 102 OFFCURVE",
"106 231 CURVE SMOOTH",
"106 268 OFFCURVE",
"110 308 OFFCURVE",
"119 350 CURVE SMOOTH",
"158 542 OFFCURVE",
"262 683 OFFCURVE",
"427 683 CURVE SMOOTH",
"556 683 OFFCURVE",
"613 597 OFFCURVE",
"613 467 CURVE SMOOTH",
"613 431 OFFCURVE",
"608 392 OFFCURVE",
"600 350 CURVE SMOOTH",
"561 157 OFFCURVE",
"456 17 OFFCURVE",
"291 17 CURVE SMOOTH"
);
},
{
closed = 1;
nodes = (
"537 862 LINE SMOOTH",
"553 871 OFFCURVE",
"564 883 OFFCURVE",
"564 894 CURVE SMOOTH",
"564 903 OFFCURVE",
"559 910 OFFCURVE",
"548 910 CURVE SMOOTH",
"535 910 OFFCURVE",
"522 901 OFFCURVE",
"515 894 CURVE",
"390 801 LINE",
"396 786 LINE"
);
}
);
width = 654;
}
);
leftKerningGroup = O;
note = Oslashacute;
rightKerningGroup = O;
unicode = 01FE;
},
{
glyphname = Otilde;
lastChange = "2015-10-26 01:49:28 +0000";
layers = (
{
layerId = "DC57E17D-D7E6-498D-B8B0-08C45E75F177";
name = "Light Italic";
paths = (
{
closed = 1;
nodes = (
"473 -10 OFFCURVE",
"603 127 OFFCURVE",
"649 350 CURVE SMOOTH",
"658 392 OFFCURVE",
"662 431 OFFCURVE",
"662 467 CURVE SMOOTH",
"662 619 OFFCURVE",
"584 710 OFFCURVE",
"432 710 CURVE SMOOTH",
"244 710 OFFCURVE",
"115 572 OFFCURVE",
"70 350 CURVE SMOOTH",
"61 307 OFFCURVE",
"57 267 OFFCURVE",
"57 230 CURVE SMOOTH",
"57 79 OFFCURVE",
"133 -10 OFFCURVE",
"285 -10 CURVE SMOOTH"
);
},
{
closed = 1;
nodes = (
"162 17 OFFCURVE",
"106 102 OFFCURVE",
"106 231 CURVE SMOOTH",
"106 268 OFFCURVE",
"110 308 OFFCURVE",
"119 350 CURVE SMOOTH",
"158 542 OFFCURVE",
"262 683 OFFCURVE",
"427 683 CURVE SMOOTH",
"556 683 OFFCURVE",
"613 597 OFFCURVE",
"613 467 CURVE SMOOTH",
"613 431 OFFCURVE",
"608 392 OFFCURVE",
"600 350 CURVE SMOOTH",
"561 157 OFFCURVE",
"456 17 OFFCURVE",
"291 17 CURVE SMOOTH"
);
},
{
closed = 1;
nodes = (
"322 786 LINE",
"337 823 OFFCURVE",
"363 846 OFFCURVE",
"393 846 CURVE SMOOTH",
"433 846 OFFCURVE",
"468 787 OFFCURVE",
"512 787 CURVE SMOOTH",
"556 787 OFFCURVE",
"590 824 OFFCURVE",
"610 882 CURVE",
"593 882 LINE",
"575 841 OFFCURVE",
"551 818 OFFCURVE",
"519 818 CURVE SMOOTH",
"480 818 OFFCURVE",
"447 876 OFFCURVE",
"401 876 CURVE SMOOTH",
"361 876 OFFCURVE",
"324 849 OFFCURVE",
"304 786 CURVE"
);
}
);
width = 654;
}
);
leftKerningGroup = O;
note = Otilde;
rightKerningGroup = O;
unicode = 00D5;
},
{
glyphname = OE;
lastChange = "2015-10-26 01:49:29 +0000";
layers = (
{
layerId = "DC57E17D-D7E6-498D-B8B0-08C45E75F177";
name = "Light Italic";
paths = (
{
closed = 1;
nodes = (
"346 -10 OFFCURVE",
"402 6 OFFCURVE",
"451 38 CURVE",
"444 0 LINE",
"816 0 LINE",
"852 124 LINE",
"840 124 LINE",
"827 105 OFFCURVE",
"799 51 OFFCURVE",
"791 26 CURVE",
"496 26 LINE",
"562 346 LINE",
"784 346 LINE",
"783 335 OFFCURVE",
"781 314 OFFCURVE",
"781 295 CURVE SMOOTH",
"781 284 OFFCURVE",
"782 273 OFFCURVE",
"783 265 CURVE",
"794 265 LINE",
"832 454 LINE",
"822 454 LINE",
"809 432 OFFCURVE",
"796 391 OFFCURVE",
"790 373 CURVE",
"567 373 LINE",
"629 673 LINE",
"923 673 LINE",
"920 658 OFFCURVE",
"918 631 OFFCURVE",
"918 608 CURVE SMOOTH",
"918 594 OFFCURVE",
"919 582 OFFCURVE",
"921 575 CURVE",
"934 575 LINE",
"959 700 LINE",
"586 700 LINE",
"578 659 LINE",
"543 692 OFFCURVE",
"492 710 OFFCURVE",
"428 710 CURVE SMOOTH",
"239 710 OFFCURVE",
"114 566 OFFCURVE",
"70 350 CURVE SMOOTH",
"61 307 OFFCURVE",
"57 267 OFFCURVE",
"57 231 CURVE SMOOTH",
"57 82 OFFCURVE",
"129 -10 OFFCURVE",
"281 -10 CURVE SMOOTH"
);
},
{
closed = 1;
nodes = (
"163 17 OFFCURVE",
"106 103 OFFCURVE",
"106 233 CURVE SMOOTH",
"106 269 OFFCURVE",
"111 308 OFFCURVE",
"119 350 CURVE SMOOTH",
"158 542 OFFCURVE",
"264 683 OFFCURVE",
"427 683 CURVE SMOOTH",
"492 683 OFFCURVE",
"540 657 OFFCURVE",
"569 618 CURVE",
"460 80 LINE",
"413 40 OFFCURVE",
"356 17 OFFCURVE",
"291 17 CURVE SMOOTH"
);
}
);
width = 917;
}
);
note = OE;
unicode = 0152;
},
{
glyphname = P;
lastChange = "2015-10-26 01:49:29 +0000";
layers = (
{
layerId = "DC57E17D-D7E6-498D-B8B0-08C45E75F177";
name = "Light Italic";
paths = (
{
closed = 1;
nodes = (
"209 0 LINE",
"210 7 LINE",
"189 15 OFFCURVE",
"162 20 OFFCURVE",
"136 24 CURVE",
"188 281 LINE",
"345 281 LINE SMOOTH",
"485 281 OFFCURVE",
"563 369 OFFCURVE",
"588 491 CURVE SMOOTH",
"592 513 OFFCURVE",
"594 534 OFFCURVE",
"594 553 CURVE SMOOTH",
"594 643 OFFCURVE",
"546 700 OFFCURVE",
"422 700 CURVE SMOOTH",
"149 700 LINE",
"148 692 LINE",
"170 684 OFFCURVE",
"195 679 OFFCURVE",
"221 675 CURVE",
"88 24 LINE",
"62 21 OFFCURVE",
"32 15 OFFCURVE",
"6 7 CURVE",
"5 0 LINE"
);
},
{
closed = 1;
nodes = (
"269 673 LINE",
"420 673 LINE SMOOTH",
"509 673 OFFCURVE",
"547 624 OFFCURVE",
"547 550 CURVE SMOOTH",
"547 532 OFFCURVE",
"544 512 OFFCURVE",
"540 491 CURVE SMOOTH",
"519 387 OFFCURVE",
"457 307 OFFCURVE",
"345 307 CURVE SMOOTH",
"194 307 LINE"
);
}
);
width = 562;
}
);
note = P;
unicode = 0050;
},
{
glyphname = Thorn;
lastChange = "2015-10-26 01:49:29 +0000";
layers = (
{
layerId = "DC57E17D-D7E6-498D-B8B0-08C45E75F177";
name = "Light Italic";
paths = (
{
closed = 1;
nodes = (
"210 0 LINE",
"211 7 LINE",
"189 15 OFFCURVE",
"162 20 OFFCURVE",
"136 24 CURVE",
"158 134 LINE",
"316 134 LINE SMOOTH",
"456 134 OFFCURVE",
"534 223 OFFCURVE",
"559 345 CURVE SMOOTH",
"564 367 OFFCURVE",
"566 388 OFFCURVE",
"566 408 CURVE SMOOTH",
"566 495 OFFCURVE",
"518 553 OFFCURVE",
"401 553 CURVE SMOOTH",
"244 553 LINE",
"274 700 LINE",
"150 700 LINE",
"149 692 LINE",
"171 684 OFFCURVE",
"195 679 OFFCURVE",
"222 675 CURVE",
"89 24 LINE",
"63 21 OFFCURVE",
"33 15 OFFCURVE",
"7 7 CURVE",
"6 0 LINE"
);
},
{
closed = 1;
nodes = (
"239 527 LINE",
"387 527 LINE SMOOTH",
"479 527 OFFCURVE",
"518 479 OFFCURVE",
"518 404 CURVE SMOOTH",
"518 386 OFFCURVE",
"515 366 OFFCURVE",
"511 345 CURVE SMOOTH",
"490 240 OFFCURVE",
"428 161 OFFCURVE",
"316 161 CURVE SMOOTH",
"164 161 LINE"
);
}
);
width = 560;
}
);
note = Thorn;
unicode = 00DE;
},
{
glyphname = Q;
lastChange = "2015-10-26 01:49:29 +0000";
layers = (
{
layerId = "DC57E17D-D7E6-498D-B8B0-08C45E75F177";
name = "Light Italic";
paths = (
{
closed = 1;
nodes = (
"473 -10 OFFCURVE",
"603 127 OFFCURVE",
"649 350 CURVE SMOOTH",
"658 392 OFFCURVE",
"662 431 OFFCURVE",
"662 467 CURVE SMOOTH",
"662 619 OFFCURVE",
"584 710 OFFCURVE",
"432 710 CURVE SMOOTH",
"244 710 OFFCURVE",
"115 572 OFFCURVE",
"70 350 CURVE SMOOTH",
"61 307 OFFCURVE",
"57 267 OFFCURVE",
"57 230 CURVE SMOOTH",
"57 79 OFFCURVE",
"133 -10 OFFCURVE",
"285 -10 CURVE SMOOTH"
);
},
{
closed = 1;
nodes = (
"469 -137 LINE",
"379 -129 OFFCURVE",
"329 -83 OFFCURVE",
"329 -15 CURVE SMOOTH",
"329 -10 OFFCURVE",
"329 -5 OFFCURVE",
"330 0 CURVE",
"284 0 LINE",
"277 -89 OFFCURVE",
"335 -148 OFFCURVE",
"466 -159 CURVE"
);
},
{
closed = 1;
nodes = (
"163 17 OFFCURVE",
"106 103 OFFCURVE",
"106 233 CURVE SMOOTH",
"106 269 OFFCURVE",
"111 308 OFFCURVE",
"119 350 CURVE SMOOTH",
"158 542 OFFCURVE",
"264 683 OFFCURVE",
"427 683 CURVE SMOOTH",
"555 683 OFFCURVE",
"613 596 OFFCURVE",
"613 466 CURVE SMOOTH",
"613 430 OFFCURVE",
"608 391 OFFCURVE",
"600 350 CURVE SMOOTH",
"561 157 OFFCURVE",
"454 17 OFFCURVE",
"291 17 CURVE SMOOTH"
);
}
);
width = 654;
}
);
leftKerningGroup = O;
note = Q;
rightKerningGroup = O;
unicode = 0051;
},
{
glyphname = R;
lastChange = "2015-10-26 01:49:29 +0000";
layers = (
{
layerId = "DC57E17D-D7E6-498D-B8B0-08C45E75F177";
name = "Light Italic";
paths = (
{
closed = 1;
nodes = (
"210 0 LINE",
"211 7 LINE",
"190 15 OFFCURVE",
"163 20 OFFCURVE",
"137 24 CURVE",
"194 302 LINE",
"352 302 LINE SMOOTH",
"491 302 OFFCURVE",
"566 378 OFFCURVE",
"591 501 CURVE SMOOTH",
"596 523 OFFCURVE",
"598 544 OFFCURVE",
"598 563 CURVE SMOOTH",
"598 648 OFFCURVE",
"550 700 OFFCURVE",
"433 700 CURVE SMOOTH",
"150 700 LINE",
"149 692 LINE",
"171 684 OFFCURVE",
"196 679 OFFCURVE",
"222 675 CURVE",
"89 24 LINE",
"64 21 OFFCURVE",
"33 15 OFFCURVE",
"7 7 CURVE",
"6 0 LINE"
);
},
{
closed = 1;
nodes = (
"540 0 LINE",
"541 8 LINE",
"528 15 OFFCURVE",
"497 20 OFFCURVE",
"477 24 CURVE",
"377 307 LINE",
"331 307 LINE",
"437 0 LINE"
);
},
{
closed = 1;
nodes = (
"270 673 LINE",
"420 673 LINE SMOOTH",
"511 673 OFFCURVE",
"550 630 OFFCURVE",
"550 557 CURVE SMOOTH",
"550 540 OFFCURVE",
"548 521 OFFCURVE",
"544 501 CURVE SMOOTH",
"523 397 OFFCURVE",
"463 328 OFFCURVE",
"349 328 CURVE SMOOTH",
"199 328 LINE"
);
}
);
width = 608;
}
);
note = R;
rightKerningGroup = R;
unicode = 0052;
},
{
glyphname = Racute;
lastChange = "2015-10-26 01:49:28 +0000";
layers = (
{
layerId = "DC57E17D-D7E6-498D-B8B0-08C45E75F177";
name = "Light Italic";
paths = (
{
closed = 1;
nodes = (
"210 0 LINE",
"211 7 LINE",
"190 15 OFFCURVE",
"163 20 OFFCURVE",
"137 24 CURVE",
"194 302 LINE",
"352 302 LINE SMOOTH",
"491 302 OFFCURVE",
"566 378 OFFCURVE",
"591 501 CURVE SMOOTH",
"596 523 OFFCURVE",
"598 544 OFFCURVE",
"598 563 CURVE SMOOTH",
"598 648 OFFCURVE",
"550 700 OFFCURVE",
"433 700 CURVE SMOOTH",
"150 700 LINE",
"149 692 LINE",
"171 684 OFFCURVE",
"196 679 OFFCURVE",
"222 675 CURVE",
"89 24 LINE",
"64 21 OFFCURVE",
"33 15 OFFCURVE",
"7 7 CURVE",
"6 0 LINE"
);
},
{
closed = 1;
nodes = (
"540 0 LINE",
"541 8 LINE",
"528 15 OFFCURVE",
"497 20 OFFCURVE",
"477 24 CURVE",
"377 307 LINE",
"331 307 LINE",
"437 0 LINE"
);
},
{
closed = 1;
nodes = (
"270 673 LINE",
"420 673 LINE SMOOTH",
"511 673 OFFCURVE",
"550 630 OFFCURVE",
"550 557 CURVE SMOOTH",
"550 540 OFFCURVE",
"548 521 OFFCURVE",
"544 501 CURVE SMOOTH",
"523 397 OFFCURVE",
"463 328 OFFCURVE",
"349 328 CURVE SMOOTH",
"199 328 LINE"
);
},
{
closed = 1;
nodes = (
"497 862 LINE SMOOTH",
"515 871 OFFCURVE",
"524 884 OFFCURVE",
"524 895 CURVE SMOOTH",
"524 904 OFFCURVE",
"519 910 OFFCURVE",
"509 910 CURVE SMOOTH",
"495 910 OFFCURVE",
"483 901 OFFCURVE",
"475 894 CURVE",
"350 801 LINE",
"357 786 LINE"
);
}
);
width = 608;
}
);
note = Racute;
rightKerningGroup = R;
unicode = 0154;
},
{
glyphname = Rcaron;
lastChange = "2015-10-26 01:49:29 +0000";
layers = (
{
layerId = "DC57E17D-D7E6-498D-B8B0-08C45E75F177";
name = "Light Italic";
paths = (
{
closed = 1;
nodes = (
"210 0 LINE",
"211 7 LINE",
"190 15 OFFCURVE",
"163 20 OFFCURVE",
"137 24 CURVE",
"194 302 LINE",
"352 302 LINE SMOOTH",
"491 302 OFFCURVE",
"566 378 OFFCURVE",
"591 501 CURVE SMOOTH",
"596 523 OFFCURVE",
"598 544 OFFCURVE",
"598 563 CURVE SMOOTH",
"598 648 OFFCURVE",
"550 700 OFFCURVE",
"433 700 CURVE SMOOTH",
"150 700 LINE",
"149 692 LINE",
"171 684 OFFCURVE",
"196 679 OFFCURVE",
"222 675 CURVE",
"89 24 LINE",
"64 21 OFFCURVE",
"33 15 OFFCURVE",
"7 7 CURVE",
"6 0 LINE"
);
},
{
closed = 1;
nodes = (
"540 0 LINE",
"541 8 LINE",
"528 15 OFFCURVE",
"497 20 OFFCURVE",
"477 24 CURVE",
"377 307 LINE",
"331 307 LINE",
"437 0 LINE"
);
},
{
closed = 1;
nodes = (
"270 673 LINE",
"420 673 LINE SMOOTH",
"511 673 OFFCURVE",
"550 630 OFFCURVE",
"550 557 CURVE SMOOTH",
"550 540 OFFCURVE",
"548 521 OFFCURVE",
"544 501 CURVE SMOOTH",
"523 397 OFFCURVE",
"463 328 OFFCURVE",
"349 328 CURVE SMOOTH",
"199 328 LINE"
);
},
{
closed = 1;
nodes = (
"434 786 LINE",
"474 831 OFFCURVE",
"525 870 OFFCURVE",
"566 896 CURVE",
"551 919 LINE",
"512 893 OFFCURVE",
"467 858 OFFCURVE",
"432 823 CURVE",
"427 823 LINE",
"408 858 OFFCURVE",
"376 893 OFFCURVE",
"348 919 CURVE",
"324 896 LINE",
"353 870 OFFCURVE",
"389 831 OFFCURVE",
"412 786 CURVE"
);
}
);
width = 608;
}
);
note = Rcaron;
rightKerningGroup = R;
unicode = 0158;
},
{
glyphname = Rcommaaccent;
lastChange = "2015-10-26 01:49:29 +0000";
layers = (
{
layerId = "DC57E17D-D7E6-498D-B8B0-08C45E75F177";
name = "Light Italic";
paths = (
{
closed = 1;
nodes = (
"210 0 LINE",
"211 7 LINE",
"190 15 OFFCURVE",
"163 20 OFFCURVE",
"137 24 CURVE",
"194 302 LINE",
"352 302 LINE SMOOTH",
"491 302 OFFCURVE",
"566 378 OFFCURVE",
"591 501 CURVE SMOOTH",
"596 523 OFFCURVE",
"598 544 OFFCURVE",
"598 563 CURVE SMOOTH",
"598 648 OFFCURVE",
"550 700 OFFCURVE",
"433 700 CURVE SMOOTH",
"150 700 LINE",
"149 692 LINE",
"171 684 OFFCURVE",
"196 679 OFFCURVE",
"222 675 CURVE",
"89 24 LINE",
"64 21 OFFCURVE",
"33 15 OFFCURVE",
"7 7 CURVE",
"6 0 LINE"
);
},
{
closed = 1;
nodes = (
"260 -225 OFFCURVE",
"293 -160 OFFCURVE",
"301 -119 CURVE SMOOTH",
"303 -112 OFFCURVE",
"303 -105 OFFCURVE",
"303 -98 CURVE SMOOTH",
"303 -76 OFFCURVE",
"293 -61 OFFCURVE",
"267 -61 CURVE SMOOTH",
"248 -61 OFFCURVE",
"227 -72 OFFCURVE",
"222 -98 CURVE",
"221 -101 OFFCURVE",
"221 -105 OFFCURVE",
"221 -108 CURVE SMOOTH",
"221 -124 OFFCURVE",
"231 -135 OFFCURVE",
"247 -135 CURVE SMOOTH",
"252 -135 OFFCURVE",
"258 -134 OFFCURVE",
"263 -132 CURVE",
"258 -147 LINE SMOOTH",
"249 -180 OFFCURVE",
"229 -216 OFFCURVE",
"204 -241 CURVE",
"222 -258 LINE"
);
},
{
closed = 1;
nodes = (
"540 0 LINE",
"541 8 LINE",
"528 15 OFFCURVE",
"497 20 OFFCURVE",
"477 24 CURVE",
"377 307 LINE",
"331 307 LINE",
"437 0 LINE"
);
},
{
closed = 1;
nodes = (
"270 673 LINE",
"420 673 LINE SMOOTH",
"511 673 OFFCURVE",
"550 630 OFFCURVE",
"550 557 CURVE SMOOTH",
"550 540 OFFCURVE",
"548 521 OFFCURVE",
"544 501 CURVE SMOOTH",
"523 397 OFFCURVE",
"463 328 OFFCURVE",
"349 328 CURVE SMOOTH",
"199 328 LINE"
);
}
);
width = 608;
}
);
note = Rcommaaccent;
rightKerningGroup = R;
unicode = 0156;
},
{
glyphname = Rdotbelow;
lastChange = "2015-10-26 01:49:28 +0000";
layers = (
{
layerId = "DC57E17D-D7E6-498D-B8B0-08C45E75F177";
name = "Light Italic";
paths = (
{
closed = 1;
nodes = (
"210 0 LINE",
"211 7 LINE",
"190 15 OFFCURVE",
"163 20 OFFCURVE",
"137 24 CURVE",
"194 302 LINE",
"352 302 LINE SMOOTH",
"491 302 OFFCURVE",
"566 378 OFFCURVE",
"591 501 CURVE SMOOTH",
"596 523 OFFCURVE",
"598 544 OFFCURVE",
"598 563 CURVE SMOOTH",
"598 648 OFFCURVE",
"550 700 OFFCURVE",
"433 700 CURVE SMOOTH",
"150 700 LINE",
"149 692 LINE",
"171 684 OFFCURVE",
"196 679 OFFCURVE",
"222 675 CURVE",
"89 24 LINE",
"64 21 OFFCURVE",
"33 15 OFFCURVE",
"7 7 CURVE",
"6 0 LINE"
);
},
{
closed = 1;
nodes = (
"273 -133 OFFCURVE",
"289 -120 OFFCURVE",
"294 -98 CURVE",
"295 -95 OFFCURVE",
"295 -92 OFFCURVE",
"295 -89 CURVE SMOOTH",
"295 -73 OFFCURVE",
"285 -63 OFFCURVE",
"269 -63 CURVE SMOOTH",
"250 -63 OFFCURVE",
"233 -76 OFFCURVE",
"229 -98 CURVE",
"228 -101 OFFCURVE",
"228 -104 OFFCURVE",
"228 -107 CURVE SMOOTH",
"228 -124 OFFCURVE",
"238 -133 OFFCURVE",
"254 -133 CURVE SMOOTH"
);
},
{
closed = 1;
nodes = (
"540 0 LINE",
"541 8 LINE",
"528 15 OFFCURVE",
"497 20 OFFCURVE",
"477 24 CURVE",
"377 307 LINE",
"331 307 LINE",
"437 0 LINE"
);
},
{
closed = 1;
nodes = (
"270 673 LINE",
"420 673 LINE SMOOTH",
"511 673 OFFCURVE",
"550 630 OFFCURVE",
"550 557 CURVE SMOOTH",
"550 540 OFFCURVE",
"548 521 OFFCURVE",
"544 501 CURVE SMOOTH",
"523 397 OFFCURVE",
"463 328 OFFCURVE",
"349 328 CURVE SMOOTH",
"199 328 LINE"
);
}
);
width = 608;
}
);
note = Rdotbelow;
rightKerningGroup = R;
unicode = 1E5A;
},
{
glyphname = Rdotbelowmacron;
lastChange = "2015-10-26 01:49:29 +0000";
layers = (
{
layerId = "DC57E17D-D7E6-498D-B8B0-08C45E75F177";
name = "Light Italic";
paths = (
{
closed = 1;
nodes = (
"210 0 LINE",
"211 7 LINE",
"190 15 OFFCURVE",
"163 20 OFFCURVE",
"137 24 CURVE",
"194 302 LINE",
"352 302 LINE SMOOTH",
"491 302 OFFCURVE",
"566 378 OFFCURVE",
"591 501 CURVE SMOOTH",
"596 523 OFFCURVE",
"598 544 OFFCURVE",
"598 563 CURVE SMOOTH",
"598 648 OFFCURVE",
"550 700 OFFCURVE",
"433 700 CURVE SMOOTH",
"150 700 LINE",
"149 692 LINE",
"171 684 OFFCURVE",
"196 679 OFFCURVE",
"222 675 CURVE",
"89 24 LINE",
"64 21 OFFCURVE",
"33 15 OFFCURVE",
"7 7 CURVE",
"6 0 LINE"
);
},
{
closed = 1;
nodes = (
"273 -133 OFFCURVE",
"289 -120 OFFCURVE",
"294 -98 CURVE",
"295 -95 OFFCURVE",
"295 -92 OFFCURVE",
"295 -89 CURVE SMOOTH",
"295 -73 OFFCURVE",
"284 -63 OFFCURVE",
"268 -63 CURVE SMOOTH",
"249 -63 OFFCURVE",
"232 -76 OFFCURVE",
"228 -98 CURVE",
"227 -101 OFFCURVE",
"227 -104 OFFCURVE",
"227 -107 CURVE SMOOTH",
"227 -124 OFFCURVE",
"237 -133 OFFCURVE",
"253 -133 CURVE SMOOTH"
);
},
{
closed = 1;
nodes = (
"540 0 LINE",
"541 8 LINE",
"528 15 OFFCURVE",
"497 20 OFFCURVE",
"477 24 CURVE",
"377 307 LINE",
"331 307 LINE",
"437 0 LINE"
);
},
{
closed = 1;
nodes = (
"270 673 LINE",
"420 673 LINE SMOOTH",
"511 673 OFFCURVE",
"550 630 OFFCURVE",
"550 557 CURVE SMOOTH",
"550 540 OFFCURVE",
"548 521 OFFCURVE",
"544 501 CURVE SMOOTH",
"523 397 OFFCURVE",
"463 328 OFFCURVE",
"349 328 CURVE SMOOTH",
"199 328 LINE"
);
},
{
closed = 1;
nodes = (
"540 785 LINE",
"545 811 LINE",
"255 811 LINE",
"250 785 LINE"
);
}
);
width = 608;
}
);
note = Rdotbelowmacron;
rightKerningGroup = R;
unicode = 1E5C;
},
{
glyphname = Rlinebelow;
lastChange = "2015-10-26 01:49:28 +0000";
layers = (
{
layerId = "DC57E17D-D7E6-498D-B8B0-08C45E75F177";
name = "Light Italic";
paths = (
{
closed = 1;
nodes = (
"210 0 LINE",
"211 7 LINE",
"190 15 OFFCURVE",
"163 20 OFFCURVE",
"137 24 CURVE",
"194 302 LINE",
"352 302 LINE SMOOTH",
"491 302 OFFCURVE",
"566 378 OFFCURVE",
"591 501 CURVE SMOOTH",
"596 523 OFFCURVE",
"598 544 OFFCURVE",
"598 563 CURVE SMOOTH",
"598 648 OFFCURVE",
"550 700 OFFCURVE",
"433 700 CURVE SMOOTH",
"150 700 LINE",
"149 692 LINE",
"171 684 OFFCURVE",
"196 679 OFFCURVE",
"222 675 CURVE",
"89 24 LINE",
"64 21 OFFCURVE",
"33 15 OFFCURVE",
"7 7 CURVE",
"6 0 LINE"
);
},
{
closed = 1;
nodes = (
"395 -100 LINE",
"400 -74 LINE",
"118 -74 LINE",
"112 -100 LINE"
);
},
{
closed = 1;
nodes = (
"540 0 LINE",
"541 8 LINE",
"528 15 OFFCURVE",
"497 20 OFFCURVE",
"477 24 CURVE",
"377 307 LINE",
"331 307 LINE",
"437 0 LINE"
);
},
{
closed = 1;
nodes = (
"270 673 LINE",
"420 673 LINE SMOOTH",
"511 673 OFFCURVE",
"550 630 OFFCURVE",
"550 557 CURVE SMOOTH",
"550 540 OFFCURVE",
"548 521 OFFCURVE",
"544 501 CURVE SMOOTH",
"523 397 OFFCURVE",
"463 328 OFFCURVE",
"349 328 CURVE SMOOTH",
"199 328 LINE"
);
}
);
width = 608;
}
);
note = Rlinebelow;
rightKerningGroup = R;
unicode = 1E5E;
},
{
glyphname = S;
lastChange = "2015-10-26 01:49:28 +0000";
layers = (
{
layerId = "DC57E17D-D7E6-498D-B8B0-08C45E75F177";
name = "Light Italic";
paths = (
{
closed = 1;
nodes = (
"324 -10 OFFCURVE",
"428 63 OFFCURVE",
"451 176 CURVE SMOOTH",
"454 190 OFFCURVE",
"455 204 OFFCURVE",
"455 216 CURVE SMOOTH",
"455 400 OFFCURVE",
"166 394 OFFCURVE",
"166 534 CURVE SMOOTH",
"166 541 OFFCURVE",
"167 549 OFFCURVE",
"169 557 CURVE SMOOTH",
"184 633 OFFCURVE",
"246 683 OFFCURVE",
"366 683 CURVE SMOOTH",
"422 683 OFFCURVE",
"462 665 OFFCURVE",
"485 635 CURVE",
"483 614 OFFCURVE",
"479 578 OFFCURVE",
"479 554 CURVE SMOOTH",
"479 546 OFFCURVE",
"479 540 OFFCURVE",
"480 535 CURVE",
"493 535 LINE",
"522 640 LINE",
"492 686 OFFCURVE",
"437 710 OFFCURVE",
"356 710 CURVE SMOOTH",
"233 710 OFFCURVE",
"141 658 OFFCURVE",
"120 553 CURVE SMOOTH",
"118 541 OFFCURVE",
"116 530 OFFCURVE",
"116 520 CURVE SMOOTH",
"116 357 OFFCURVE",
"405 369 OFFCURVE",
"405 202 CURVE SMOOTH",
"405 192 OFFCURVE",
"403 180 OFFCURVE",
"401 168 CURVE SMOOTH",
"381 70 OFFCURVE",
"286 17 OFFCURVE",
"198 17 CURVE SMOOTH",
"119 17 OFFCURVE",
"71 50 OFFCURVE",
"48 93 CURVE",
"51 115 OFFCURVE",
"58 169 OFFCURVE",
"58 197 CURVE SMOOTH",
"58 202 OFFCURVE",
"57 207 OFFCURVE",
"57 210 CURVE",
"43 210 LINE",
"11 80 LINE",
"38 32 OFFCURVE",
"102 -10 OFFCURVE",
"203 -10 CURVE SMOOTH"
);
}
);
width = 488;
}
);
leftKerningGroup = S;
note = S;
rightKerningGroup = S;
unicode = 0053;
},
{
glyphname = Sacute;
lastChange = "2015-10-26 01:49:29 +0000";
layers = (
{
layerId = "DC57E17D-D7E6-498D-B8B0-08C45E75F177";
name = "Light Italic";
paths = (
{
closed = 1;
nodes = (
"324 -10 OFFCURVE",
"428 63 OFFCURVE",
"451 176 CURVE SMOOTH",
"454 190 OFFCURVE",
"455 204 OFFCURVE",
"455 216 CURVE SMOOTH",
"455 400 OFFCURVE",
"166 394 OFFCURVE",
"166 534 CURVE SMOOTH",
"166 541 OFFCURVE",
"167 549 OFFCURVE",
"169 557 CURVE SMOOTH",
"184 633 OFFCURVE",
"246 683 OFFCURVE",
"366 683 CURVE SMOOTH",
"422 683 OFFCURVE",
"462 665 OFFCURVE",
"485 635 CURVE",
"483 614 OFFCURVE",
"479 578 OFFCURVE",
"479 554 CURVE SMOOTH",
"479 546 OFFCURVE",
"479 540 OFFCURVE",
"480 535 CURVE",
"493 535 LINE",
"522 640 LINE",
"492 686 OFFCURVE",
"437 710 OFFCURVE",
"356 710 CURVE SMOOTH",
"233 710 OFFCURVE",
"141 658 OFFCURVE",
"120 553 CURVE SMOOTH",
"118 541 OFFCURVE",
"116 530 OFFCURVE",
"116 520 CURVE SMOOTH",
"116 357 OFFCURVE",
"405 369 OFFCURVE",
"405 202 CURVE SMOOTH",
"405 192 OFFCURVE",
"403 180 OFFCURVE",
"401 168 CURVE SMOOTH",
"381 70 OFFCURVE",
"286 17 OFFCURVE",
"198 17 CURVE SMOOTH",
"119 17 OFFCURVE",
"71 50 OFFCURVE",
"48 93 CURVE",
"51 115 OFFCURVE",
"58 169 OFFCURVE",
"58 197 CURVE SMOOTH",
"58 202 OFFCURVE",
"57 207 OFFCURVE",
"57 210 CURVE",
"43 210 LINE",
"11 80 LINE",
"38 32 OFFCURVE",
"102 -10 OFFCURVE",
"203 -10 CURVE SMOOTH"
);
},
{
closed = 1;
nodes = (
"466 862 LINE SMOOTH",
"483 871 OFFCURVE",
"492 884 OFFCURVE",
"492 896 CURVE SMOOTH",
"492 904 OFFCURVE",
"487 910 OFFCURVE",
"477 910 CURVE SMOOTH",
"464 910 OFFCURVE",
"451 901 OFFCURVE",
"444 894 CURVE",
"319 801 LINE",
"325 786 LINE"
);
}
);
width = 488;
}
);
leftKerningGroup = S;
note = Sacute;
rightKerningGroup = S;
unicode = 015A;
},
{
glyphname = Scaron;
lastChange = "2015-10-26 01:49:28 +0000";
layers = (
{
layerId = "DC57E17D-D7E6-498D-B8B0-08C45E75F177";
name = "Light Italic";
paths = (
{
closed = 1;
nodes = (
"324 -10 OFFCURVE",
"428 63 OFFCURVE",
"451 176 CURVE SMOOTH",
"454 190 OFFCURVE",
"455 204 OFFCURVE",
"455 216 CURVE SMOOTH",
"455 400 OFFCURVE",
"166 394 OFFCURVE",
"166 534 CURVE SMOOTH",
"166 541 OFFCURVE",
"167 549 OFFCURVE",
"169 557 CURVE SMOOTH",
"184 633 OFFCURVE",
"246 683 OFFCURVE",
"366 683 CURVE SMOOTH",
"422 683 OFFCURVE",
"462 665 OFFCURVE",
"485 635 CURVE",
"483 614 OFFCURVE",
"479 578 OFFCURVE",
"479 554 CURVE SMOOTH",
"479 546 OFFCURVE",
"479 540 OFFCURVE",
"480 535 CURVE",
"493 535 LINE",
"522 640 LINE",
"492 686 OFFCURVE",
"437 710 OFFCURVE",
"356 710 CURVE SMOOTH",
"233 710 OFFCURVE",
"141 658 OFFCURVE",
"120 553 CURVE SMOOTH",
"118 541 OFFCURVE",
"116 530 OFFCURVE",
"116 520 CURVE SMOOTH",
"116 357 OFFCURVE",
"405 369 OFFCURVE",
"405 202 CURVE SMOOTH",
"405 192 OFFCURVE",
"403 180 OFFCURVE",
"401 168 CURVE SMOOTH",
"381 70 OFFCURVE",
"286 17 OFFCURVE",
"198 17 CURVE SMOOTH",
"119 17 OFFCURVE",
"71 50 OFFCURVE",
"48 93 CURVE",
"51 115 OFFCURVE",
"58 169 OFFCURVE",
"58 197 CURVE SMOOTH",
"58 202 OFFCURVE",
"57 207 OFFCURVE",
"57 210 CURVE",
"43 210 LINE",
"11 80 LINE",
"38 32 OFFCURVE",
"102 -10 OFFCURVE",
"203 -10 CURVE SMOOTH"
);
},
{
closed = 1;
nodes = (
"375 786 LINE",
"416 831 OFFCURVE",
"467 870 OFFCURVE",
"508 896 CURVE",
"492 919 LINE",
"453 893 OFFCURVE",
"408 858 OFFCURVE",
"373 823 CURVE",
"369 823 LINE",
"349 858 OFFCURVE",
"318 893 OFFCURVE",
"290 919 CURVE",
"265 896 LINE",
"295 870 OFFCURVE",
"330 831 OFFCURVE",
"353 786 CURVE"
);
}
);
width = 488;
}
);
leftKerningGroup = S;
note = Scaron;
rightKerningGroup = S;
unicode = 0160;
},
{
glyphname = Scedilla;
lastChange = "2015-10-26 01:49:28 +0000";
layers = (
{
layerId = "DC57E17D-D7E6-498D-B8B0-08C45E75F177";
name = "Light Italic";
paths = (
{
closed = 1;
nodes = (
"324 -10 OFFCURVE",
"428 63 OFFCURVE",
"451 176 CURVE SMOOTH",
"454 190 OFFCURVE",
"455 204 OFFCURVE",
"455 216 CURVE SMOOTH",
"455 400 OFFCURVE",
"166 394 OFFCURVE",
"166 534 CURVE SMOOTH",
"166 541 OFFCURVE",
"167 549 OFFCURVE",
"169 557 CURVE SMOOTH",
"184 633 OFFCURVE",
"246 683 OFFCURVE",
"366 683 CURVE SMOOTH",
"422 683 OFFCURVE",
"462 665 OFFCURVE",
"485 635 CURVE",
"483 614 OFFCURVE",
"479 578 OFFCURVE",
"479 554 CURVE SMOOTH",
"479 546 OFFCURVE",
"479 540 OFFCURVE",
"480 535 CURVE",
"493 535 LINE",
"522 640 LINE",
"492 686 OFFCURVE",
"437 710 OFFCURVE",
"356 710 CURVE SMOOTH",
"233 710 OFFCURVE",
"141 658 OFFCURVE",
"120 553 CURVE SMOOTH",
"118 541 OFFCURVE",
"116 530 OFFCURVE",
"116 520 CURVE SMOOTH",
"116 357 OFFCURVE",
"405 369 OFFCURVE",
"405 202 CURVE SMOOTH",
"405 192 OFFCURVE",
"403 180 OFFCURVE",
"401 168 CURVE SMOOTH",
"381 70 OFFCURVE",
"286 17 OFFCURVE",
"198 17 CURVE SMOOTH",
"119 17 OFFCURVE",
"71 50 OFFCURVE",
"48 93 CURVE",
"51 115 OFFCURVE",
"58 169 OFFCURVE",
"58 197 CURVE SMOOTH",
"58 202 OFFCURVE",
"57 207 OFFCURVE",
"57 210 CURVE",
"43 210 LINE",
"11 80 LINE",
"38 32 OFFCURVE",
"102 -10 OFFCURVE",
"203 -10 CURVE SMOOTH"
);
},
{
closed = 1;
nodes = (
"203 -197 OFFCURVE",
"251 -173 OFFCURVE",
"260 -123 CURVE SMOOTH",
"261 -119 OFFCURVE",
"262 -114 OFFCURVE",
"262 -110 CURVE SMOOTH",
"262 -80 OFFCURVE",
"232 -67 OFFCURVE",
"195 -67 CURVE SMOOTH",
"189 -67 OFFCURVE",
"183 -67 OFFCURVE",
"179 -68 CURVE",
"223 4 LINE",
"194 4 LINE",
"146 -67 LINE",
"160 -92 LINE",
"167 -91 OFFCURVE",
"176 -90 OFFCURVE",
"184 -90 CURVE SMOOTH",
"207 -90 OFFCURVE",
"233 -98 OFFCURVE",
"228 -122 CURVE SMOOTH",
"221 -157 OFFCURVE",
"192 -172 OFFCURVE",
"152 -172 CURVE SMOOTH",
"136 -172 OFFCURVE",
"118 -170 OFFCURVE",
"102 -166 CURVE",
"87 -187 LINE",
"105 -194 OFFCURVE",
"127 -197 OFFCURVE",
"147 -197 CURVE SMOOTH"
);
}
);
width = 488;
}
);
leftKerningGroup = S;
note = Scedilla;
rightKerningGroup = S;
unicode = 015E;
},
{
glyphname = Scircumflex;
lastChange = "2015-10-26 01:49:30 +0000";
layers = (
{
layerId = "DC57E17D-D7E6-498D-B8B0-08C45E75F177";
name = "Light Italic";
paths = (
{
closed = 1;
nodes = (
"324 -10 OFFCURVE",
"428 63 OFFCURVE",
"451 176 CURVE SMOOTH",
"454 190 OFFCURVE",
"455 204 OFFCURVE",
"455 216 CURVE SMOOTH",
"455 400 OFFCURVE",
"166 394 OFFCURVE",
"166 534 CURVE SMOOTH",
"166 541 OFFCURVE",
"167 549 OFFCURVE",
"169 557 CURVE SMOOTH",
"184 633 OFFCURVE",
"246 683 OFFCURVE",
"366 683 CURVE SMOOTH",
"422 683 OFFCURVE",
"462 665 OFFCURVE",
"485 635 CURVE",
"483 614 OFFCURVE",
"479 578 OFFCURVE",
"479 554 CURVE SMOOTH",
"479 546 OFFCURVE",
"479 540 OFFCURVE",
"480 535 CURVE",
"493 535 LINE",
"522 640 LINE",
"492 686 OFFCURVE",
"437 710 OFFCURVE",
"356 710 CURVE SMOOTH",
"233 710 OFFCURVE",
"141 658 OFFCURVE",
"120 553 CURVE SMOOTH",
"118 541 OFFCURVE",
"116 530 OFFCURVE",
"116 520 CURVE SMOOTH",
"116 357 OFFCURVE",
"405 369 OFFCURVE",
"405 202 CURVE SMOOTH",
"405 192 OFFCURVE",
"403 180 OFFCURVE",
"401 168 CURVE SMOOTH",
"381 70 OFFCURVE",
"286 17 OFFCURVE",
"198 17 CURVE SMOOTH",
"119 17 OFFCURVE",
"71 50 OFFCURVE",
"48 93 CURVE",
"51 115 OFFCURVE",
"58 169 OFFCURVE",
"58 197 CURVE SMOOTH",
"58 202 OFFCURVE",
"57 207 OFFCURVE",
"57 210 CURVE",
"43 210 LINE",
"11 80 LINE",
"38 32 OFFCURVE",
"102 -10 OFFCURVE",
"203 -10 CURVE SMOOTH"
);
},
{
closed = 1;
nodes = (
"300 803 OFFCURVE",
"346 838 OFFCURVE",
"379 873 CURVE",
"384 873 LINE",
"404 838 OFFCURVE",
"435 803 OFFCURVE",
"464 778 CURVE",
"489 800 LINE",
"458 827 OFFCURVE",
"423 866 OFFCURVE",
"400 910 CURVE",
"378 910 LINE",
"338 866 OFFCURVE",
"286 827 OFFCURVE",
"246 800 CURVE",
"261 778 LINE"
);
}
);
width = 488;
}
);
leftKerningGroup = S;
note = Scircumflex;
rightKerningGroup = S;
unicode = 015C;
},
{
glyphname = Scommaaccent;
lastChange = "2015-10-26 01:49:28 +0000";
layers = (
{
layerId = "DC57E17D-D7E6-498D-B8B0-08C45E75F177";
name = "Light Italic";
paths = (
{
closed = 1;
nodes = (
"324 -10 OFFCURVE",
"428 63 OFFCURVE",
"451 176 CURVE SMOOTH",
"454 190 OFFCURVE",
"455 204 OFFCURVE",
"455 216 CURVE SMOOTH",
"455 400 OFFCURVE",
"166 394 OFFCURVE",
"166 534 CURVE SMOOTH",
"166 541 OFFCURVE",
"167 549 OFFCURVE",
"169 557 CURVE SMOOTH",
"184 633 OFFCURVE",
"246 683 OFFCURVE",
"366 683 CURVE SMOOTH",
"422 683 OFFCURVE",
"462 665 OFFCURVE",
"485 635 CURVE",
"483 614 OFFCURVE",
"479 578 OFFCURVE",
"479 554 CURVE SMOOTH",
"479 546 OFFCURVE",
"479 540 OFFCURVE",
"480 535 CURVE",
"493 535 LINE",
"522 640 LINE",
"492 686 OFFCURVE",
"437 710 OFFCURVE",
"356 710 CURVE SMOOTH",
"233 710 OFFCURVE",
"141 658 OFFCURVE",
"120 553 CURVE SMOOTH",
"118 541 OFFCURVE",
"116 530 OFFCURVE",
"116 520 CURVE SMOOTH",
"116 357 OFFCURVE",
"405 369 OFFCURVE",
"405 202 CURVE SMOOTH",
"405 192 OFFCURVE",
"403 180 OFFCURVE",
"401 168 CURVE SMOOTH",
"381 70 OFFCURVE",
"286 17 OFFCURVE",
"198 17 CURVE SMOOTH",
"119 17 OFFCURVE",
"71 50 OFFCURVE",
"48 93 CURVE",
"51 115 OFFCURVE",
"58 169 OFFCURVE",
"58 197 CURVE SMOOTH",
"58 202 OFFCURVE",
"57 207 OFFCURVE",
"57 210 CURVE",
"43 210 LINE",
"11 80 LINE",
"38 32 OFFCURVE",
"102 -10 OFFCURVE",
"203 -10 CURVE SMOOTH"
);
},
{
closed = 1;
nodes = (
"187 -219 OFFCURVE",
"229 -136 OFFCURVE",
"229 -99 CURVE SMOOTH",
"229 -74 OFFCURVE",
"217 -56 OFFCURVE",
"189 -56 CURVE SMOOTH",
"164 -56 OFFCURVE",
"139 -77 OFFCURVE",
"139 -106 CURVE SMOOTH",
"139 -124 OFFCURVE",
"152 -135 OFFCURVE",
"167 -135 CURVE SMOOTH",
"172 -135 OFFCURVE",
"179 -135 OFFCURVE",
"183 -132 CURVE",
"180 -147 LINE SMOOTH",
"170 -181 OFFCURVE",
"149 -214 OFFCURVE",
"125 -239 CURVE",
"143 -256 LINE"
);
}
);
width = 488;
}
);
leftKerningGroup = S;
note = Scommaaccent;
rightKerningGroup = S;
unicode = 0218;
},
